SplineFontDB: 3.2
FontName: FontAwesome6Free-Solid
FullName: Font Awesome 6 Free Solid
FamilyName: Font Awesome 6 Free
Weight: Solid
Copyright: Copyright (c) Font Awesome
Version: Version 775.01953125 (Font Awesome version: 6.7.2)
ItalicAngle: 0
UnderlinePosition: 0
UnderlineWidth: 0
Ascent: 896
Descent: 128
InvalidEm: 0
sfntRevision: 0x0307051f
LayerCount: 2
Layer: 0 0 "Back" 1
Layer: 1 0 "Fore" 0
XUID: [1021 1020 -136595712 831820]
StyleMap: 0x0000
FSType: 0
OS2Version: 4
OS2_WeightWidthSlopeOnly: 0
OS2_UseTypoMetrics: 1
CreationTime: 1734130191
ModificationTime: 1741941709
PfmFamily: 17
TTFWeight: 900
TTFWidth: 5
LineGap: 0
VLineGap: 0
Panose: 2 0 9 3 0 0 0 0 0 0
OS2TypoAscent: 896
OS2TypoAOffset: 0
OS2TypoDescent: -128
OS2TypoDOffset: 0
OS2TypoLinegap: 0
OS2WinAscent: 896
OS2WinAOffset: 0
OS2WinDescent: 128
OS2WinDOffset: 0
HheadAscent: 896
HheadAOffset: 0
HheadDescent: -128
HheadDOffset: 0
OS2SubXSize: 664
OS2SubYSize: 716
OS2SubXOff: 0
OS2SubYOff: 142
OS2SupXSize: 664
OS2SupYSize: 716
OS2SupXOff: 0
OS2SupYOff: 490
OS2StrikeYSize: 50
OS2StrikeYPos: 264
OS2CapHeight: 842
OS2XHeight: 626
OS2Vendor: 'AWSM'
OS2CodePages: 00000001.00000000
OS2UnicodeRanges: 80000001.10000000.00000000.00000000
Lookup: 4 0 1 "'liga' Standard Ligatures in Latin lookup 0" { "'liga' Standard Ligatures in Latin lookup 0 subtable"  } ['liga' ('latn' <'dflt' > ) ]
MarkAttachClasses: 1
DEI: 91125
LangName: 1033 "" "Font Awesome 6 Free Solid" "" "Font Awesome 6 Free Solid-6.7.2" "" "Version 775.01953125 (Font Awesome version: 6.7.2)" "" "" "" "" "The web's most popular icon set and toolkit." "https://fontawesome.com" "" "" "" "" "Font Awesome 6 Free" "Solid"
Encoding: UnicodeFull
UnicodeInterp: none
NameList: AGL For New Fonts
DisplaySize: -48
AntiAlias: 1
FitToEm: 0
WinInfo: 63122 37 25
BeginPrivate: 0
EndPrivate
BeginChars: 1114113 1406

StartChar: .notdef
Encoding: 1114112 -1 0
Width: 768
Flags: HW
LayerCount: 2
Fore
SplineSet
128 115 m 1
 128 653 l 1
 307 384 l 1
 128 115 l 1
205 0 m 1
 384 269 l 1
 563 0 l 1
 205 0 l 1
461 384 m 1
 640 653 l 1
 640 115 l 1
 461 384 l 1
563 768 m 1
 384 499 l 1
 205 768 l 1
 563 768 l 1
0 800 m 2
 0 -32 l 2
 0 -85 43 -128 96 -128 c 2
 672 -128 l 2
 725 -128 768 -85 768 -32 c 2
 768 800 l 2
 768 853 725 896 672 896 c 2
 96 896 l 2
 43 896 0 853 0 800 c 2
EndSplineSet
EndChar

StartChar: exclamation
Encoding: 61738 61738 2
AltUni2: 002757.ffffffff.0 002755.ffffffff.0 000021.ffffffff.0
Width: 256
Flags: HW
LayerCount: 2
Fore
SplineSet
192 768 m 2
 192 256 l 2
 192 221 163 192 128 192 c 0
 93 192 64 221 64 256 c 2
 64 768 l 2
 64 803 93 832 128 832 c 0
 163 832 192 803 192 768 c 2
128 -64 m 0
 99 -64 73 -49 59 -24 c 0
 45 1 45 31 59 56 c 0
 73 81 99 96 128 96 c 0
 157 96 183 81 197 56 c 0
 211 31 211 1 197 -24 c 0
 183 -49 157 -64 128 -64 c 0
EndSplineSet
Ligature2: "'liga' Standard Ligatures in Latin lookup 0 subtable" e x c l a m a t i o n
EndChar

StartChar: hashtag
Encoding: 62098 62098 3
AltUni2: 000023.ffffffff.0
Width: 896
Flags: HW
LayerCount: 2
Fore
SplineSet
363 831 m 2
 362 831 l 2
 327 837 295 814 289 779 c 2
 266 640 l 1
 128 640 l 2
 93 640 64 611 64 576 c 0
 64 541 93 512 128 512 c 2
 244 512 l 1
 202 256 l 1
 64 256 l 2
 29 256 0 227 -0 192 c 0
 0 157 29 128 64 128 c 2
 180 128 l 1
 161 10 l 2
 155 -25 179 -57 214 -63 c 0
 249 -69 281 -46 287 -11 c 2
 310 128 l 1
 501 128 l 1
 481 10 l 2
 475 -25 499 -57 534 -63 c 0
 569 -69 601 -46 607 -11 c 2
 630 128 l 1
 768 128 l 2
 803 128 832 157 832 192 c 0
 832 227 803 256 768 256 c 2
 652 256 l 1
 694 512 l 1
 832 512 l 2
 867 512 896 541 896 576 c 0
 896 611 867 640 832 640 c 2
 716 640 l 1
 735 758 l 2
 741 793 717 825 682 831 c 0
 647 837 615 814 609 779 c 2
 586 640 l 1
 396 640 l 1
 415 758 l 2
 421 793 398 825 363 831 c 2
374 512 m 1
 564 512 l 1
 522 256 l 1
 332 256 l 1
 374 512 l 1
374 512 m 1024
EndSplineSet
Ligature2: "'liga' Standard Ligatures in Latin lookup 0 subtable" h a s h t a g
EndChar

StartChar: dollar-sign
Encoding: 128178 128178 4
AltUni2: 00f155.ffffffff.0 000024.ffffffff.0
Width: 640
Flags: HW
LayerCount: 2
Fore
SplineSet
320 896 m 0
 285 896 256 867 256 832 c 2
 256 761 l 1
 225 757 197 750 170 739 c 0
 105 713 47 664 33 588 c 0
 25 545 28 505 45 469 c 0
 62 434 89 409 117 390 c 0
 169 356 239 338 296 322 c 1
 296 322 l 1
 301 320 l 2
 366 303 416 289 449 268 c 0
 464 258 471 249 475 241 c 0
 478 234 482 221 478 200 c 0
 474 176 458 157 424 143 c 0
 388 128 336 123 272 132 c 0
 232 138 164 156 122 175 c 0
 90 189 52 175 38 143 c 0
 24 111 38 72 70 58 c 0
 124 34 204 14 253 6 c 1
 253 6 l 1
 253 6 l 2
 254 6 255 5 256 5 c 2
 256 -64 l 2
 256 -99 285 -128 320 -128 c 0
 355 -128 384 -99 384 -64 c 2
 384 2 l 1
 416 6 446 13 473 24 c 0
 538 51 590 102 604 178 c 0
 612 221 608 260 591 296 c 0
 574 331 547 356 519 375 c 0
 467 409 397 428 340 443 c 2
 334 444 l 2
 269 461 220 476 187 497 c 0
 172 507 165 515 161 523 c 0
 158 530 155 543 159 564 c 0
 163 584 178 605 217 620 c 0
 256 635 311 642 374 633 c 2
 469 615 l 2
 504 609 537 632 543 667 c 0
 549 702 527 735 492 741 c 2
 396 759 l 2
 395 759 394 759 393 759 c 0
 390 760 387 761 384 761 c 2
 384 832 l 2
 384 867 355 896 320 896 c 0
EndSplineSet
Ligature2: "'liga' Standard Ligatures in Latin lookup 0 subtable" u s d
Ligature2: "'liga' Standard Ligatures in Latin lookup 0 subtable" d o l l a r
Ligature2: "'liga' Standard Ligatures in Latin lookup 0 subtable" d o l l a r hyphen s i g n
EndChar

StartChar: percent
Encoding: 62785 62785 5
AltUni2: 00f295.ffffffff.0 000025.ffffffff.0
Width: 768
Flags: HW
LayerCount: 2
Fore
SplineSet
749 659 m 2
 109 19 l 2
 84 -6 44 -6 19 19 c 0
 -6 44 -6 84 19 109 c 2
 659 749 l 2
 684 774 724 774 749 749 c 0
 774 724 774 684 749 659 c 2
256 640 m 0
 256 594 232 552 192 529 c 0
 152 506 104 506 64 529 c 0
 24 552 0 594 0 640 c 0
 0 686 24 728 64 751 c 0
 104 774 152 774 192 751 c 0
 232 728 256 686 256 640 c 0
768 128 m 0
 768 82 744 40 704 17 c 0
 664 -6 616 -6 576 17 c 0
 536 40 512 82 512 128 c 0
 512 174 536 216 576 239 c 0
 616 262 664 262 704 239 c 0
 744 216 768 174 768 128 c 0
EndSplineSet
Ligature2: "'liga' Standard Ligatures in Latin lookup 0 subtable" p e r c e n t
Ligature2: "'liga' Standard Ligatures in Latin lookup 0 subtable" p e r c e n t a g e
EndChar

StartChar: asterisk
Encoding: 61545 61545 6
AltUni2: 002731.ffffffff.0 00002a.ffffffff.0
Width: 768
Flags: HW
LayerCount: 2
Fore
SplineSet
384 832 m 0
 349 832 320 803 320 768 c 2
 320 497 l 1
 97 631 l 2
 67 649 27 639 9 609 c 0
 -9 579 1 539 31 521 c 2
 260 384 l 1
 31 247 l 2
 1 229 -9 189 9 159 c 0
 27 129 67 119 97 137 c 2
 320 271 l 1
 320 0 l 2
 320 -35 349 -64 384 -64 c 0
 419 -64 448 -35 448 0 c 2
 448 271 l 1
 671 137 l 2
 701 119 741 129 759 159 c 0
 777 189 767 229 737 247 c 2
 508 384 l 1
 737 521 l 2
 767 539 777 579 759 609 c 0
 741 639 701 649 671 631 c 2
 448 497 l 1
 448 768 l 2
 448 803 419 832 384 832 c 0
EndSplineSet
Ligature2: "'liga' Standard Ligatures in Latin lookup 0 subtable" a s t e r i s k
EndChar

StartChar: plus
Encoding: 61543 61543 7
AltUni2: 002795.ffffffff.0 00002b.ffffffff.0
Width: 896
Flags: HW
LayerCount: 2
Fore
SplineSet
512 736 m 2
 512 448 l 1
 800 448 l 2
 835 448 864 419 864 384 c 0
 864 349 835 320 800 320 c 2
 512 320 l 1
 512 32 l 2
 512 -3 483 -32 448 -32 c 0
 413 -32 384 -3 384 32 c 2
 384 320 l 1
 96 320 l 2
 61 320 32 349 32 384 c 0
 32 419 61 448 96 448 c 2
 384 448 l 1
 384 736 l 2
 384 771 413 800 448 800 c 0
 483 800 512 771 512 736 c 2
EndSplineSet
Ligature2: "'liga' Standard Ligatures in Latin lookup 0 subtable" p l u s
Ligature2: "'liga' Standard Ligatures in Latin lookup 0 subtable" a d d
EndChar

StartChar: hyphen
Encoding: 45 45 8
Width: 640
Flags: HW
LayerCount: 2
Fore
SplineSet
0 384 m 0
 0 349 29 320 64 320 c 2
 576 320 l 2
 611 320 640 349 640 384 c 0
 640 419 611 448 576 448 c 2
 64 448 l 2
 29 448 0 419 0 384 c 0
EndSplineSet
Ligature2: "'liga' Standard Ligatures in Latin lookup 0 subtable" h y p h e n
EndChar

StartChar: 0
Encoding: 48 48 9
Width: 640
Flags: HW
LayerCount: 2
Fore
SplineSet
0 512 m 2
 0 256 l 2
 0 79 143 -64 320 -64 c 0
 497 -64 640 79 640 256 c 2
 640 512 l 2
 640 689 497 832 320 832 c 0
 143 832 0 689 0 512 c 2
320 704 m 0
 426 704 512 618 512 512 c 2
 512 256 l 2
 512 150 426 64 320 64 c 0
 214 64 128 150 128 256 c 2
 128 512 l 2
 128 618 214 704 320 704 c 0
EndSplineSet
Ligature2: "'liga' Standard Ligatures in Latin lookup 0 subtable" 0
EndChar

StartChar: 1
Encoding: 49 49 10
Width: 512
Flags: HW
LayerCount: 2
Fore
SplineSet
320 768 m 2
 320 64 l 1
 448 64 l 2
 483 64 512 35 512 0 c 0
 512 -35 483 -64 448 -64 c 2
 256 -64 l 1
 64 -64 l 2
 29 -64 0 -35 0 0 c 0
 0 35 29 64 64 64 c 2
 192 64 l 1
 192 648 l 1
 100 587 l 2
 71 567 31 574 11 604 c 0
 -9 634 -1 673 29 693 c 2
 221 821 l 2
 241 834 265 835 286 824 c 0
 307 813 320 792 320 768 c 2
EndSplineSet
Ligature2: "'liga' Standard Ligatures in Latin lookup 0 subtable" 1
EndChar

StartChar: 2
Encoding: 50 50 11
Width: 640
Flags: HW
LayerCount: 2
Fore
SplineSet
286 704 m 0
 376 704 448 632 448 542 c 0
 448 499 430 457 400 427 c 2
 19 45 l 2
 1 27 -5 0 5 -24 c 0
 15 -48 38 -64 64 -64 c 2
 576 -64 l 2
 611 -64 640 -35 640 0 c 0
 640 35 611 64 576 64 c 2
 219 64 l 1
 491 337 l 2
 545 391 576 465 576 542 c 0
 576 702 446 832 286 832 c 0
 209 832 135 801 80 747 c 2
 19 685 l 2
 -6 660 -6 620 19 595 c 0
 44 570 84 570 109 595 c 2
 171 656 l 2
 201 687 243 704 286 704 c 0
286 704 m 1024
EndSplineSet
Ligature2: "'liga' Standard Ligatures in Latin lookup 0 subtable" 2
EndChar

StartChar: 3
Encoding: 51 51 12
Width: 640
Flags: HW
LayerCount: 2
Fore
SplineSet
0 768 m 0
 0 733 29 704 64 704 c 2
 379 704 l 1
 117 463 l 2
 98 445 90 418 100 393 c 0
 110 368 134 352 160 352 c 2
 368 352 l 2
 448 352 512 288 512 208 c 0
 512 128 448 64 368 64 c 2
 211 64 l 2
 175 64 141 84 125 117 c 2
 121 125 l 2
 105 157 67 169 35 153 c 0
 3 137 -9 99 7 67 c 2
 11 60 l 2
 49 -16 126 -64 211 -64 c 2
 368 -64 l 2
 518 -64 640 58 640 208 c 0
 640 358 518 480 368 480 c 2
 325 480 l 1
 587 721 l 2
 606 739 614 766 604 791 c 0
 594 816 570 832 544 832 c 2
 64 832 l 2
 29 832 0 803 0 768 c 0
EndSplineSet
Ligature2: "'liga' Standard Ligatures in Latin lookup 0 subtable" 3
EndChar

StartChar: 4
Encoding: 52 52 13
Width: 768
Flags: HW
LayerCount: 2
Fore
SplineSet
378 741 m 2
 165 288 l 1
 512 288 l 1
 512 576 l 2
 512 611 541 640 576 640 c 0
 611 640 640 611 640 576 c 2
 640 288 l 1
 704 288 l 2
 739 288 768 259 768 224 c 0
 768 189 739 160 704 160 c 2
 640 160 l 1
 640 0 l 2
 640 -35 611 -64 576 -64 c 0
 541 -64 512 -35 512 0 c 2
 512 160 l 1
 64 160 l 2
 42 160 22 171 10 190 c 0
 -2 209 -3 231 6 251 c 2
 262 795 l 2
 277 827 315 841 347 826 c 0
 379 811 393 773 378 741 c 2
EndSplineSet
Ligature2: "'liga' Standard Ligatures in Latin lookup 0 subtable" 4
EndChar

StartChar: 5
Encoding: 53 53 14
Width: 640
Flags: HW
LayerCount: 2
Fore
SplineSet
65 779 m 2
 1 427 l 2
 -2 408 3 390 15 375 c 0
 27 360 45 352 64 352 c 2
 368 352 l 2
 448 352 512 288 512 208 c 0
 512 128 448 64 368 64 c 2
 201 64 l 2
 171 64 143 81 129 108 c 2
 121 125 l 2
 105 157 67 169 35 153 c 0
 3 137 -9 99 7 67 c 2
 15 51 l 2
 50 -19 122 -64 201 -64 c 2
 368 -64 l 2
 518 -64 640 58 640 208 c 0
 640 358 518 480 368 480 c 2
 141 480 l 1
 181 704 l 1
 512 704 l 2
 547 704 576 733 576 768 c 0
 576 803 547 832 512 832 c 2
 128 832 l 2
 97 832 71 809 65 779 c 2
65 779 m 1024
EndSplineSet
Ligature2: "'liga' Standard Ligatures in Latin lookup 0 subtable" 5
EndChar

StartChar: 6
Encoding: 54 54 15
Width: 640
Flags: HW
LayerCount: 2
Fore
SplineSet
465 727 m 1
 465 727 l 1
 337 576 l 1
 506 567 640 427 640 256 c 0
 640 79 497 -64 320 -64 c 0
 143 -64 0 79 0 256 c 2
 0 257 l 2
 0 260 0 263 0 266 c 0
 2 340 29 411 77 467 c 2
 367 809 l 2
 390 836 430 840 457 817 c 0
 484 794 488 754 465 727 c 1
512 256 m 0
 512 325 475 388 416 422 c 0
 357 456 283 456 224 422 c 0
 165 388 128 325 128 256 c 0
 128 187 165 124 224 90 c 0
 283 56 357 56 416 90 c 0
 475 124 512 187 512 256 c 0
EndSplineSet
Ligature2: "'liga' Standard Ligatures in Latin lookup 0 subtable" 6
EndChar

StartChar: 7
Encoding: 55 55 16
Width: 640
Flags: HW
LayerCount: 2
Fore
SplineSet
0 768 m 0
 0 733 29 704 64 704 c 2
 465 704 l 1
 73 32 l 2
 55 1 65 -37 96 -55 c 0
 127 -73 165 -63 183 -32 c 2
 631 736 l 2
 643 756 642 780 631 800 c 0
 620 820 599 832 576 832 c 2
 64 832 l 2
 29 832 0 803 0 768 c 0
EndSplineSet
Ligature2: "'liga' Standard Ligatures in Latin lookup 0 subtable" 7
EndChar

StartChar: 8
Encoding: 56 56 17
Width: 640
Flags: HW
LayerCount: 2
Fore
SplineSet
608 576 m 0
 608 507 581 444 536 398 c 1
 599 351 640 276 640 192 c 0
 640 51 525 -64 384 -64 c 2
 256 -64 l 2
 115 -64 0 51 0 192 c 0
 0 276 41 351 104 398 c 1
 59 444 32 507 32 576 c 0
 32 717 147 832 288 832 c 2
 352 832 l 2
 493 832 608 717 608 576 c 0
352 320 m 1
 352 320 l 1
 288 320 l 1
 288 320 l 1
 256 320 l 2
 185 320 128 263 128 192 c 0
 128 121 185 64 256 64 c 2
 384 64 l 2
 455 64 512 121 512 192 c 0
 512 263 455 320 384 320 c 2
 352 320 l 1
352 448 m 1
 423 448 480 505 480 576 c 0
 480 647 423 704 352 704 c 2
 288 704 l 2
 217 704 160 647 160 576 c 0
 160 505 217 448 288 448 c 1
 288 448 l 1
 352 448 l 1
 352 448 l 1
EndSplineSet
Ligature2: "'liga' Standard Ligatures in Latin lookup 0 subtable" 8
EndChar

StartChar: 9
Encoding: 57 57 18
Width: 640
Flags: HW
LayerCount: 2
Fore
SplineSet
128 512 m 0
 128 581 165 644 224 678 c 0
 283 712 357 712 416 678 c 0
 475 644 512 581 512 512 c 0
 512 443 475 380 416 346 c 0
 357 312 283 312 224 346 c 0
 165 380 128 443 128 512 c 0
303 192 m 1
 303 192 l 1
 175 41 l 2
 152 14 156 -26 183 -49 c 0
 210 -72 250 -68 273 -41 c 2
 563 301 l 2
 609 356 637 425 640 496 c 0
 640 501 640 507 640 512 c 0
 640 689 497 832 320 832 c 0
 143 832 0 689 0 512 c 0
 0 341 134 201 303 192 c 1
303 192 m 1024
EndSplineSet
Ligature2: "'liga' Standard Ligatures in Latin lookup 0 subtable" 9
EndChar

StartChar: less-than
Encoding: 62774 62774 19
AltUni2: 00003c.ffffffff.0
Width: 768
Flags: HW
LayerCount: 2
Fore
SplineSet
761 733 m 0
 745 765 707 777 675 761 c 2
 35 441 l 2
 13 430 0 408 -0 384 c 0
 0 360 13 338 35 327 c 2
 675 7 l 2
 707 -9 745 3 761 35 c 0
 777 67 765 105 733 121 c 2
 207 384 l 1
 733 647 l 2
 765 663 777 701 761 733 c 0
EndSplineSet
Ligature2: "'liga' Standard Ligatures in Latin lookup 0 subtable" l e s s hyphen t h a n
EndChar

StartChar: equals
Encoding: 62764 62764 20
AltUni2: 00003d.ffffffff.0
Width: 896
Flags: HW
LayerCount: 2
Fore
SplineSet
96 640 m 2
 800 640 l 2
 835 640 864 611 864 576 c 0
 864 541 835 512 800 512 c 2
 96 512 l 2
 61 512 32 541 32 576 c 0
 32 611 61 640 96 640 c 2
96 256 m 2
 800 256 l 2
 835 256 864 227 864 192 c 0
 864 157 835 128 800 128 c 2
 96 128 l 2
 61 128 32 157 32 192 c 0
 32 227 61 256 96 256 c 2
EndSplineSet
Ligature2: "'liga' Standard Ligatures in Latin lookup 0 subtable" e q u a l s
EndChar

StartChar: greater-than
Encoding: 62769 62769 21
AltUni2: 00003e.ffffffff.0
Width: 768
Flags: HW
LayerCount: 2
Fore
SplineSet
7 733 m 0
 23 765 61 777 93 761 c 2
 733 441 l 2
 755 430 768 408 768 384 c 0
 768 360 755 338 733 327 c 2
 93 7 l 2
 61 -9 23 3 7 35 c 0
 -9 67 3 105 35 121 c 2
 561 384 l 1
 35 647 l 2
 3 663 -9 701 7 733 c 0
7 733 m 1024
EndSplineSet
Ligature2: "'liga' Standard Ligatures in Latin lookup 0 subtable" g r e a t e r hyphen t h a n
EndChar

StartChar: question
Encoding: 61736 61736 22
AltUni2: 002754.ffffffff.0 002753.ffffffff.0 00003f.ffffffff.0
Width: 640
Flags: HW
LayerCount: 2
Fore
SplineSet
160 576 m 0
 160 541 131 512 96 512 c 0
 61 512 32 541 32 576 c 0
 32 717 147 832 288 832 c 2
 352 832 l 2
 493 832 608 717 608 576 c 2
 608 569 l 2
 608 482 563 401 490 354 c 2
 406 299 l 2
 392 290 384 275 384 259 c 2
 384 256 l 2
 384 221 355 192 320 192 c 0
 285 192 256 221 256 256 c 2
 256 259 l 2
 256 319 287 375 337 407 c 2
 421 461 l 2
 458 484 480 525 480 569 c 2
 480 576 l 2
 480 647 423 704 352 704 c 2
 288 704 l 2
 217 704 160 647 160 576 c 0
320 -64 m 0
 291 -64 265 -49 251 -24 c 0
 237 1 237 31 251 56 c 0
 265 81 291 96 320 96 c 0
 349 96 375 81 389 56 c 0
 403 31 403 1 389 -24 c 0
 375 -49 349 -64 320 -64 c 0
EndSplineSet
Ligature2: "'liga' Standard Ligatures in Latin lookup 0 subtable" q u e s t i o n
EndChar

StartChar: at
Encoding: 61946 61946 23
AltUni2: 000040.ffffffff.0
Width: 1024
Flags: HW
LayerCount: 2
Fore
SplineSet
512 768 m 0
 724 768 896 596 896 384 c 2
 896 320 l 2
 896 285 867 256 832 256 c 0
 797 256 768 285 768 320 c 2
 768 384 l 1
 768 544 l 2
 768 579 739 608 704 608 c 0
 688 608 672 602 661 592 c 1
 619 622 568 640 512 640 c 0
 371 640 256 525 256 384 c 0
 256 243 371 128 512 128 c 0
 579 128 640 154 686 196 c 1
 721 155 773 128 832 128 c 0
 938 128 1024 214 1024 320 c 2
 1024 384 l 2
 1024 667 795 896 512 896 c 0
 229 896 0 667 0 384 c 0
 0 101 229 -128 512 -128 c 0
 547 -128 576 -99 576 -64 c 0
 576 -29 547 0 512 0 c 0
 300 0 128 172 128 384 c 0
 128 596 300 768 512 768 c 0
640 384 m 0
 640 338 616 296 576 273 c 0
 536 250 488 250 448 273 c 0
 408 296 384 338 384 384 c 0
 384 430 408 472 448 495 c 0
 488 518 536 518 576 495 c 0
 616 472 640 430 640 384 c 0
EndSplineSet
Ligature2: "'liga' Standard Ligatures in Latin lookup 0 subtable" a t
EndChar

StartChar: a
Encoding: 97 97 24
AltUni2: 000041.ffffffff.0
Width: 768
Flags: HW
LayerCount: 2
Fore
SplineSet
443 793 m 1
 443 793 l 1
 683 217 l 1
 763 25 l 2
 777 -8 761 -45 728 -59 c 0
 695 -73 659 -58 645 -25 c 2
 581 128 l 1
 187 128 l 1
 123 -25 l 2
 109 -58 72 -73 39 -59 c 0
 6 -45 -9 -8 5 25 c 2
 85 217 l 1
 325 793 l 2
 335 817 358 832 384 832 c 0
 410 832 433 817 443 793 c 1
528 256 m 1
 384 602 l 1
 240 256 l 1
 528 256 l 1
EndSplineSet
EndChar

StartChar: b
Encoding: 98 98 25
AltUni2: 000042.ffffffff.0
Width: 640
Flags: HW
LayerCount: 2
Fore
SplineSet
128 832 m 2
 320 832 l 2
 461 832 576 717 576 576 c 0
 576 513 553 456 516 411 c 1
 590 366 640 285 640 192 c 0
 640 51 525 -64 384 -64 c 2
 128 -64 l 2
 57 -64 0 -7 0 64 c 2
 0 384 l 1
 0 704 l 2
 0 775 57 832 128 832 c 2
320 448 m 2
 391 448 448 505 448 576 c 0
 448 647 391 704 320 704 c 2
 128 704 l 1
 128 448 l 1
 320 448 l 2
128 320 m 1
 128 64 l 1
 384 64 l 2
 455 64 512 121 512 192 c 0
 512 263 455 320 384 320 c 2
 320 320 l 1
 128 320 l 1
EndSplineSet
EndChar

StartChar: c
Encoding: 99 99 26
AltUni2: 000043.ffffffff.0
Width: 768
Flags: HW
LayerCount: 2
Fore
SplineSet
658 610 m 1
 658 610 l 1
 683 585 724 585 749 610 c 0
 774 635 774 676 749 701 c 0
 574 876 306 876 131 701 c 0
 -44 526 -44 242 131 67 c 0
 306 -108 574 -108 749 67 c 0
 774 92 774 133 749 158 c 0
 724 183 683 183 658 158 c 0
 533 33 347 33 222 158 c 0
 97 283 97 485 222 610 c 0
 347 735 533 735 658 610 c 1
658 610 m 1024
EndSplineSet
EndChar

StartChar: d
Encoding: 100 100 27
AltUni2: 000044.ffffffff.0
Width: 768
Flags: HW
LayerCount: 2
Fore
SplineSet
0 704 m 2
 0 64 l 2
 0 -7 57 -64 128 -64 c 2
 320 -64 l 2
 567 -64 768 137 768 384 c 0
 768 631 567 832 320 832 c 2
 128 832 l 2
 57 832 0 775 0 704 c 2
320 704 m 2
 497 704 640 561 640 384 c 0
 640 207 497 64 320 64 c 2
 128 64 l 1
 128 704 l 1
 320 704 l 2
EndSplineSet
EndChar

StartChar: e
Encoding: 101 101 28
AltUni2: 000045.ffffffff.0
Width: 640
Flags: HW
LayerCount: 2
Fore
SplineSet
128 832 m 2
 576 832 l 2
 611 832 640 803 640 768 c 0
 640 733 611 704 576 704 c 2
 128 704 l 1
 128 448 l 1
 448 448 l 2
 483 448 512 419 512 384 c 0
 512 349 483 320 448 320 c 2
 128 320 l 1
 128 64 l 1
 576 64 l 2
 611 64 640 35 640 0 c 0
 640 -35 611 -64 576 -64 c 2
 128 -64 l 2
 57 -64 0 -7 0 64 c 2
 0 384 l 1
 0 704 l 2
 0 775 57 832 128 832 c 2
EndSplineSet
EndChar

StartChar: f
Encoding: 102 102 29
AltUni2: 000046.ffffffff.0
Width: 640
Flags: HW
LayerCount: 2
Fore
SplineSet
128 832 m 2
 576 832 l 2
 611 832 640 803 640 768 c 0
 640 733 611 704 576 704 c 2
 128 704 l 1
 128 448 l 1
 448 448 l 2
 483 448 512 419 512 384 c 0
 512 349 483 320 448 320 c 2
 128 320 l 1
 128 0 l 2
 128 -35 99 -64 64 -64 c 0
 29 -64 0 -35 0 0 c 2
 0 384 l 1
 0 704 l 2
 0 775 57 832 128 832 c 2
EndSplineSet
EndChar

StartChar: g
Encoding: 103 103 30
AltUni2: 000047.ffffffff.0
Width: 896
Flags: HW
LayerCount: 2
Fore
SplineSet
448 704 m 0
 530 704 604 674 661 623 c 0
 687 599 728 602 752 628 c 0
 776 654 773 694 747 718 c 0
 668 789 563 832 448 832 c 0
 201 832 0 631 -0 384 c 0
 0 137 201 -64 448 -64 c 0
 683 -64 875 117 894 347 c 0
 899 405 852 448 800 448 c 2
 512 448 l 2
 477 448 448 419 448 384 c 0
 448 349 477 320 512 320 c 2
 762 320 l 1
 732 174 603 64 448 64 c 0
 271 64 128 207 128 384 c 0
 128 561 271 704 448 704 c 0
EndSplineSet
EndChar

StartChar: h
Encoding: 104 104 31
AltUni2: 000048.ffffffff.0
Width: 768
Flags: HW
LayerCount: 2
Fore
SplineSet
640 384 m 1
 128 384 l 1
 128 0 l 2
 128 -35 99 -64 64 -64 c 0
 29 -64 0 -35 0 0 c 2
 0 768 l 2
 0 803 29 832 64 832 c 0
 99 832 128 803 128 768 c 2
 128 512 l 1
 640 512 l 1
 640 768 l 2
 640 803 669 832 704 832 c 0
 739 832 768 803 768 768 c 2
 768 448 l 1
 768 0 l 2
 768 -35 739 -64 704 -64 c 0
 669 -64 640 -35 640 0 c 2
 640 384 l 1
EndSplineSet
EndChar

StartChar: i
Encoding: 105 105 32
AltUni2: 000049.ffffffff.0
Width: 640
Flags: HW
LayerCount: 2
Fore
SplineSet
64 832 m 2
 320 832 l 1
 576 832 l 2
 611 832 640 803 640 768 c 0
 640 733 611 704 576 704 c 2
 384 704 l 1
 384 64 l 1
 576 64 l 2
 611 64 640 35 640 0 c 0
 640 -35 611 -64 576 -64 c 2
 64 -64 l 2
 29 -64 0 -35 0 0 c 0
 0 35 29 64 64 64 c 2
 256 64 l 1
 256 704 l 1
 64 704 l 2
 29 704 0 733 0 768 c 0
 0 803 29 832 64 832 c 2
EndSplineSet
EndChar

StartChar: j
Encoding: 106 106 33
AltUni2: 00004a.ffffffff.0
Width: 640
Flags: HW
LayerCount: 2
Fore
SplineSet
576 832 m 0
 541 832 512 803 512 768 c 2
 512 256 l 2
 512 150 426 64 320 64 c 0
 214 64 128 150 128 256 c 2
 128 320 l 2
 128 355 99 384 64 384 c 0
 29 384 0 355 0 320 c 2
 0 256 l 2
 0 79 143 -64 320 -64 c 0
 497 -64 640 79 640 256 c 2
 640 768 l 2
 640 803 611 832 576 832 c 0
EndSplineSet
EndChar

StartChar: k
Encoding: 107 107 34
AltUni2: 00004b.ffffffff.0
Width: 640
Flags: HW
LayerCount: 2
Fore
SplineSet
622 723 m 2
 348 441 l 1
 629 36 l 2
 649 7 641 -33 612 -53 c 0
 583 -73 543 -66 523 -37 c 2
 257 347 l 1
 128 214 l 1
 128 0 l 2
 128 -35 99 -64 64 -64 c 0
 29 -64 0 -35 -0 0 c 2
 -0 240 l 1
 -0 768 l 2
 0 803 29 832 64 832 c 0
 99 832 128 803 128 768 c 2
 128 398 l 1
 220 492 l 1
 530 812 l 2
 555 837 596 839 621 814 c 0
 646 789 647 748 622 723 c 2
EndSplineSet
EndChar

StartChar: l
Encoding: 108 108 35
AltUni2: 00004c.ffffffff.0
Width: 640
Flags: HW
LayerCount: 2
Fore
SplineSet
128 832 m 0
 93 832 64 803 64 768 c 2
 64 0 l 2
 64 -35 93 -64 128 -64 c 2
 576 -64 l 2
 611 -64 640 -35 640 0 c 0
 640 35 611 64 576 64 c 2
 192 64 l 1
 192 768 l 2
 192 803 163 832 128 832 c 0
EndSplineSet
EndChar

StartChar: m
Encoding: 109 109 36
AltUni2: 00004d.ffffffff.0
Width: 896
Flags: HW
LayerCount: 2
Fore
SplineSet
45 829 m 0
 18 821 0 796 -0 768 c 2
 -0 0 l 2
 0 -35 29 -64 64 -64 c 0
 99 -64 128 -35 128 0 c 2
 128 557 l 1
 395 156 l 2
 407 138 427 128 448 128 c 0
 469 128 489 138 501 156 c 2
 768 557 l 1
 768 0 l 2
 768 -35 797 -64 832 -64 c 0
 867 -64 896 -35 896 0 c 2
 896 768 l 2
 896 796 878 821 851 829 c 0
 824 837 795 826 779 803 c 2
 448 307 l 1
 117 803 l 2
 101 827 72 837 45 829 c 0
EndSplineSet
EndChar

StartChar: n
Encoding: 110 110 37
AltUni2: 00004e.ffffffff.0
Width: 768
Flags: HW
LayerCount: 2
Fore
SplineSet
42 828 m 0
 17 819 0 795 -0 768 c 2
 -0 0 l 2
 0 -35 29 -64 64 -64 c 0
 99 -64 128 -35 128 0 c 2
 128 591 l 1
 655 -41 l 2
 672 -62 701 -69 726 -60 c 0
 751 -51 768 -27 768 -0 c 2
 768 768 l 2
 768 803 739 832 704 832 c 0
 669 832 640 803 640 768 c 2
 640 177 l 1
 113 809 l 2
 96 830 67 837 42 828 c 0
EndSplineSet
EndChar

StartChar: o
Encoding: 111 111 38
AltUni2: 00004f.ffffffff.0
Width: 896
Flags: HW
LayerCount: 2
Fore
SplineSet
448 704 m 0
 562 704 668 643 725 544 c 0
 782 445 782 323 725 224 c 0
 668 125 562 64 448 64 c 0
 334 64 228 125 171 224 c 0
 114 323 114 445 171 544 c 0
 228 643 334 704 448 704 c 0
896 384 m 0
 896 544 811 692 672 772 c 0
 533 852 363 852 224 772 c 0
 85 692 0 544 0 384 c 0
 0 224 85 76 224 -4 c 0
 363 -84 533 -84 672 -4 c 0
 811 76 896 224 896 384 c 0
EndSplineSet
EndChar

StartChar: p
Encoding: 112 112 39
AltUni2: 000050.ffffffff.0
Width: 640
Flags: HW
LayerCount: 2
Fore
SplineSet
0 704 m 2
 0 256 l 1
 0 0 l 2
 0 -35 29 -64 64 -64 c 0
 99 -64 128 -35 128 0 c 2
 128 192 l 1
 320 192 l 2
 497 192 640 335 640 512 c 0
 640 689 497 832 320 832 c 2
 128 832 l 2
 57 832 0 775 0 704 c 2
128 320 m 1
 128 704 l 1
 320 704 l 2
 426 704 512 618 512 512 c 0
 512 406 426 320 320 320 c 2
 128 320 l 1
EndSplineSet
EndChar

StartChar: q
Encoding: 113 113 40
AltUni2: 000051.ffffffff.0
Width: 896
Flags: HW
LayerCount: 2
Fore
SplineSet
128 384 m 0
 128 561 271 704 448 704 c 0
 625 704 768 561 768 384 c 0
 768 311 744 245 703 191 c 1
 561 361 l 2
 538 388 498 392 471 369 c 0
 444 346 440 306 463 279 c 2
 607 106 l 1
 560 79 506 64 448 64 c 0
 271 64 128 207 128 384 c 0
690 7 m 1
 690 7 l 1
 783 -105 l 2
 806 -132 846 -136 873 -113 c 0
 900 -90 904 -50 881 -23 c 2
 787 91 l 1
 855 170 896 272 896 384 c 0
 896 631 695 832 448 832 c 0
 201 832 0 631 0 384 c 0
 0 137 201 -64 448 -64 c 0
 537 -64 620 -38 690 7 c 1
690 7 m 1024
EndSplineSet
EndChar

StartChar: r
Encoding: 114 114 41
AltUni2: 000052.ffffffff.0
Width: 640
Flags: HW
LayerCount: 2
Fore
SplineSet
128 832 m 2
 352 832 l 2
 511 832 640 703 640 544 c 0
 640 423 565 320 460 277 c 1
 629 37 l 2
 649 8 642 -33 613 -53 c 0
 584 -73 544 -66 524 -37 c 2
 319 256 l 1
 128 256 l 1
 128 0 l 2
 128 -35 99 -64 64 -64 c 0
 29 -64 0 -35 0 0 c 2
 0 320 l 1
 0 704 l 2
 0 775 57 832 128 832 c 2
352 384 m 2
 440 384 512 456 512 544 c 0
 512 632 440 704 352 704 c 2
 128 704 l 1
 128 384 l 1
 352 384 l 2
EndSplineSet
EndChar

StartChar: s
Encoding: 115 115 42
AltUni2: 000053.ffffffff.0
Width: 640
Flags: HW
LayerCount: 2
Fore
SplineSet
198 685 m 1
 198 685 l 1
 240 703 301 710 375 698 c 1
 385 761 l 1
 375 698 l 1
 399 694 473 680 495 674 c 0
 529 665 565 685 574 719 c 0
 583 753 562 789 528 798 c 0
 500 806 421 821 395 825 c 0
 306 839 219 833 148 803 c 0
 75 772 19 713 4 628 c 1
 67 617 l 1
 4 628 l 1
 -4 579 0 536 18 496 c 0
 35 457 64 428 95 406 c 0
 153 366 232 343 297 324 c 0
 299 324 300 324 302 323 c 0
 375 302 434 285 472 258 c 0
 490 246 500 233 506 220 c 0
 511 208 515 190 510 162 c 0
 504 127 482 100 442 83 c 0
 400 65 339 59 265 70 c 0
 229 76 167 97 116 114 c 0
 105 118 94 122 84 125 c 0
 50 136 14 118 3 84 c 0
 -8 50 10 14 43 3 c 0
 50 1 59 -3 69 -6 c 0
 119 -23 196 -49 244 -57 c 1
 244 -57 l 1
 245 -57 l 1
 334 -71 421 -65 492 -35 c 0
 565 -4 621 55 636 140 c 0
 644 189 640 232 622 272 c 0
 605 311 576 340 545 362 c 0
 487 402 408 425 343 444 c 0
 341 444 340 444 338 445 c 0
 265 466 206 483 168 510 c 0
 150 522 140 535 134 548 c 0
 129 560 125 578 130 606 c 0
 136 641 158 668 198 685 c 1
198 685 m 1024
EndSplineSet
EndChar

StartChar: t
Encoding: 116 116 43
AltUni2: 000054.ffffffff.0
Width: 768
Flags: HW
LayerCount: 2
Fore
SplineSet
64 832 m 2
 384 832 l 1
 704 832 l 2
 739 832 768 803 768 768 c 0
 768 733 739 704 704 704 c 2
 448 704 l 1
 448 0 l 2
 448 -35 419 -64 384 -64 c 0
 349 -64 320 -35 320 0 c 2
 320 704 l 1
 64 704 l 2
 29 704 0 733 0 768 c 0
 0 803 29 832 64 832 c 2
EndSplineSet
EndChar

StartChar: u
Encoding: 117 117 44
AltUni2: 000055.ffffffff.0
Width: 768
Flags: HW
LayerCount: 2
Fore
SplineSet
64 832 m 0
 29 832 0 803 0 768 c 2
 0 320 l 2
 0 108 172 -64 384 -64 c 0
 596 -64 768 108 768 320 c 2
 768 768 l 2
 768 803 739 832 704 832 c 0
 669 832 640 803 640 768 c 2
 640 320 l 2
 640 179 525 64 384 64 c 0
 243 64 128 179 128 320 c 2
 128 768 l 2
 128 803 99 832 64 832 c 0
EndSplineSet
EndChar

StartChar: v
Encoding: 118 118 45
AltUni2: 000056.ffffffff.0
Width: 768
Flags: HW
LayerCount: 2
Fore
SplineSet
39 827 m 0
 6 813 -9 776 5 743 c 2
 325 -25 l 2
 335 -49 358 -64 384 -64 c 0
 410 -64 433 -49 443 -25 c 2
 763 743 l 2
 777 776 762 813 729 827 c 0
 696 841 659 826 645 793 c 2
 384 166 l 1
 123 793 l 2
 109 826 72 841 39 827 c 0
39 827 m 1024
EndSplineSet
EndChar

StartChar: w
Encoding: 119 119 46
AltUni2: 000057.ffffffff.0
Width: 1152
Flags: HW
LayerCount: 2
Fore
SplineSet
42 828 m 0
 9 816 -8 779 4 746 c 2
 292 -23 l 2
 302 -49 327 -65 354 -64 c 0
 381 -63 405 -44 413 -18 c 2
 576 539 l 1
 738 -18 l 2
 746 -44 769 -63 797 -64 c 0
 825 -65 850 -49 860 -23 c 2
 1148 745 l 2
 1160 778 1143 816 1110 828 c 0
 1077 840 1040 823 1028 790 c 2
 808 203 l 1
 637 786 l 2
 629 813 604 832 576 832 c 0
 548 832 523 813 515 786 c 2
 344 203 l 1
 124 791 l 2
 112 824 75 840 42 828 c 0
EndSplineSet
EndChar

StartChar: x
Encoding: 120 120 47
AltUni2: 000058.ffffffff.0
Width: 768
Flags: HW
LayerCount: 2
Fore
SplineSet
753 727 m 2
 467 384 l 1
 753 41 l 2
 776 14 772 -26 745 -49 c 0
 718 -72 678 -68 655 -41 c 2
 384 284 l 1
 113 -41 l 2
 90 -68 50 -72 23 -49 c 0
 -4 -26 -8 14 15 41 c 2
 301 384 l 1
 15 727 l 2
 -8 754 -4 794 23 817 c 0
 50 840 90 836 113 809 c 2
 384 484 l 1
 655 809 l 2
 678 836 718 840 745 817 c 0
 772 794 776 754 753 727 c 2
EndSplineSet
EndChar

StartChar: y
Encoding: 121 121 48
AltUni2: 000059.ffffffff.0
Width: 768
Flags: HW
LayerCount: 2
Fore
SplineSet
116 805 m 2
 384 430 l 1
 652 805 l 2
 672 834 712 840 741 820 c 0
 770 800 777 760 756 731 c 2
 448 299 l 1
 448 -0 l 2
 448 -35 419 -64 384 -64 c 0
 349 -64 320 -35 320 -0 c 2
 320 299 l 1
 12 731 l 2
 -9 760 -2 799 27 820 c 0
 56 841 96 834 116 805 c 2
EndSplineSet
EndChar

StartChar: z
Encoding: 122 122 49
AltUni2: 00005a.ffffffff.0
Width: 768
Flags: HW
LayerCount: 2
Fore
SplineSet
0 768 m 0
 0 733 29 704 64 704 c 2
 567 704 l 1
 15 41 l 2
 -1 22 -5 -5 6 -27 c 0
 17 -49 39 -64 64 -64 c 2
 704 -64 l 2
 739 -64 768 -35 768 0 c 0
 768 35 739 64 704 64 c 2
 201 64 l 1
 753 727 l 2
 769 746 773 773 762 795 c 0
 751 817 729 832 704 832 c 2
 64 832 l 2
 29 832 0 803 0 768 c 0
EndSplineSet
EndChar

StartChar: faucet
Encoding: 57349 57349 51
Width: 1024
Flags: HW
LayerCount: 2
Fore
SplineSet
384 704 m 2
 384 739 413 768 448 768 c 0
 483 768 512 739 512 704 c 2
 512 680 l 1
 704 704 l 2
 739 704 768 675 768 640 c 0
 768 605 739 576 704 576 c 2
 512 600 l 1
 450 608 l 1
 448 608 l 1
 446 608 l 1
 384 600 l 1
 192 576 l 2
 157 576 128 605 128 640 c 0
 128 675 157 704 192 704 c 2
 384 680 l 1
 384 704 l 2
64 384 m 2
 256 384 l 1
 301 429 l 2
 313 441 330 448 347 448 c 2
 384 448 l 1
 384 536 l 1
 448 544 l 1
 512 536 l 1
 512 448 l 1
 550 448 l 2
 567 448 583 441 595 429 c 2
 640 384 l 1
 704 384 l 2
 881 384 1024 241 1024 64 c 0
 1024 29 995 0 960 0 c 2
 832 0 l 2
 797 0 768 29 768 64 c 0
 768 99 739 128 704 128 c 2
 632 128 l 1
 592 70 524 32 448 32 c 0
 372 32 304 70 264 128 c 1
 64 128 l 2
 29 128 0 157 0 192 c 2
 0 320 l 2
 0 355 29 384 64 384 c 2
EndSplineSet
Ligature2: "'liga' Standard Ligatures in Latin lookup 0 subtable" f a u c e t
EndChar

StartChar: faucet-drip
Encoding: 128688 128688 52
AltUni2: 00e006.ffffffff.0
Width: 1024
Flags: HW
LayerCount: 2
Fore
SplineSet
448 896 m 0
 413 896 384 867 384 832 c 2
 384 808 l 1
 192 832 l 2
 157 832 128 803 128 768 c 0
 128 733 157 704 192 704 c 2
 384 728 l 1
 446 736 l 1
 448 736 l 1
 450 736 l 1
 512 728 l 1
 704 704 l 2
 739 704 768 733 768 768 c 0
 768 803 739 832 704 832 c 2
 512 808 l 1
 512 832 l 2
 512 867 483 896 448 896 c 0
0 448 m 2
 -0 320 l 2
 0 285 29 256 64 256 c 2
 264 256 l 1
 304 198 372 160 448 160 c 0
 524 160 592 198 632 256 c 1
 704 256 l 2
 739 256 768 227 768 192 c 0
 768 157 797 128 832 128 c 2
 960 128 l 2
 995 128 1024 157 1024 192 c 0
 1024 369 881 512 704 512 c 2
 640 512 l 1
 594 557 l 2
 582 569 566 576 549 576 c 2
 512 576 l 1
 512 664 l 1
 448 672 l 1
 384 664 l 1
 384 576 l 1
 346 576 l 2
 329 576 313 569 301 557 c 2
 256 512 l 1
 64 512 l 2
 29 512 0 483 0 448 c 2
874 49 m 1
 874 49 l 1
 838 -36 l 2
 834 -44 832 -53 832 -62 c 2
 832 -64 l 2
 832 -99 861 -128 896 -128 c 0
 931 -128 960 -99 960 -64 c 2
 960 -62 l 2
 960 -53 959 -44 955 -36 c 2
 918 49 l 2
 914 58 906 64 896 64 c 0
 886 64 878 58 874 49 c 1
874 49 m 1024
EndSplineSet
Ligature2: "'liga' Standard Ligatures in Latin lookup 0 subtable" f a u c e t hyphen d r i p
EndChar

StartChar: house-chimney-window
Encoding: 57357 57357 53
Width: 1152
Flags: HW
LayerCount: 2
Fore
SplineSet
1152 385 m 2
 1152 385 l 2
 1154 403 1146 419 1130 433 c 2
 1024 526 l 1
 1024 768 l 2
 1024 803 995 832 960 832 c 2
 896 832 l 2
 861 832 832 803 832 768 c 2
 832 695 l 1
 619 882 l 2
 607 892 591 896 577 896 c 0
 563 896 547 894 533 880 c 2
 20 433 l 2
 6 419 0 403 0 385 c 0
 0 349 28 321 64 321 c 2
 128 321 l 1
 128 -0 l 2
 128 -71 185 -128 256 -128 c 2
 897 -128 l 2
 968 -128 1025 -71 1025 0 c 2
 1024 321 l 1
 1088 321 l 2
 1122 321 1152 349 1152 385 c 2
496 512 m 2
 656 512 l 2
 683 512 704 491 704 464 c 2
 704 304 l 2
 704 277 683 256 656 256 c 2
 496 256 l 2
 469 256 448 277 448 304 c 2
 448 464 l 2
 448 491 469 512 496 512 c 2
EndSplineSet
Ligature2: "'liga' Standard Ligatures in Latin lookup 0 subtable" h o u s e hyphen c h i m n e y hyphen w i n d o w
EndChar

StartChar: house-signal
Encoding: 57362 57362 54
Width: 1152
Flags: HW
LayerCount: 2
Fore
SplineSet
715 879 m 2
 1131 495 l 2
 1150 477 1158 449 1148 425 c 0
 1138 401 1114 384 1088 384 c 2
 1024 384 l 1
 1024 160 l 2
 1024 107 981 64 928 64 c 2
 556 64 l 1
 507 239 370 376 196 427 c 1
 188 451 194 478 213 495 c 2
 629 879 l 2
 653 902 690 902 715 879 c 2
576 480 m 2
 576 352 l 2
 576 334 590 320 608 320 c 2
 736 320 l 2
 754 320 768 334 768 352 c 2
 768 480 l 2
 768 498 754 512 736 512 c 2
 608 512 l 2
 590 512 576 498 576 480 c 2
48 384 m 0
 304 384 512 176 512 -80 c 0
 512 -107 491 -128 464 -128 c 0
 437 -128 416 -107 416 -80 c 0
 416 123 251 288 48 288 c 0
 21 288 0 309 -0 336 c 0
 0 363 21 384 48 384 c 0
64 -128 m 0
 29 -128 0 -99 -0 -64 c 0
 0 -29 29 0 64 -0 c 0
 99 0 128 -29 128 -64 c 0
 128 -99 99 -128 64 -128 c 0
-0 144 m 0
 0 171 21 192 48 192 c 0
 198 192 320 70 320 -80 c 0
 320 -107 299 -128 272 -128 c 0
 245 -128 224 -107 224 -80 c 0
 224 17 145 96 48 96 c 0
 21 96 0 117 -0 144 c 0
EndSplineSet
Ligature2: "'liga' Standard Ligatures in Latin lookup 0 subtable" h o u s e hyphen s i g n a l
EndChar

StartChar: temperature-arrow-down
Encoding: 57407 57407 55
Width: 1152
Flags: HW
LayerCount: 2
Fore
SplineSet
256 672 m 2
 256 343 l 2
 256 308 241 279 225 258 c 0
 204 231 192 197 192 160 c 0
 192 72 264 0 352 0 c 0
 440 0 512 72 512 160 c 0
 512 197 500 231 479 258 c 0
 463 279 448 308 448 343 c 2
 448 672 l 2
 448 725 405 768 352 768 c 0
 299 768 256 725 256 672 c 2
352 896 m 0
 476 896 576 796 576 672 c 2
 576 343 l 2
 576 343 576 343 576 342 c 0
 576 341 578 338 580 336 c 0
 618 287 640 226 640 160 c 0
 640 1 511 -128 352 -128 c 0
 193 -128 64 1 64 160 c 0
 64 226 86 287 124 336 c 0
 126 338 128 341 128 342 c 0
 128 343 128 343 128 343 c 2
 128 672 l 2
 128 796 228 896 352 896 c 0
352 64 m 0
 299 64 256 107 256 160 c 0
 256 202 283 238 320 251 c 1
 320 352 l 2
 320 370 334 384 352 384 c 0
 370 384 384 370 384 352 c 2
 384 251 l 1
 421 238 448 202 448 160 c 0
 448 107 405 64 352 64 c 0
1024 192 m 1
 1024 192 l 1
 1050 192 1073 176 1083 152 c 0
 1093 128 1087 101 1069 83 c 2
 941 -45 l 2
 929 -57 913 -64 896 -64 c 0
 879 -64 863 -57 851 -45 c 2
 723 83 l 2
 705 101 699 128 709 152 c 0
 719 176 742 192 768 192 c 2
 832 192 l 1
 832 768 l 2
 832 803 861 832 896 832 c 0
 931 832 960 803 960 768 c 2
 960 192 l 1
 1024 192 l 1
1024 192 m 1024
EndSplineSet
Ligature2: "'liga' Standard Ligatures in Latin lookup 0 subtable" t e m p e r a t u r e hyphen d o w n
Ligature2: "'liga' Standard Ligatures in Latin lookup 0 subtable" t e m p e r a t u r e hyphen a r r o w hyphen d o w n
EndChar

StartChar: temperature-arrow-up
Encoding: 57408 57408 56
Width: 1152
Flags: HW
LayerCount: 2
Fore
SplineSet
256 672 m 2
 256 343 l 2
 256 308 241 279 225 258 c 0
 204 231 192 197 192 160 c 0
 192 72 264 0 352 0 c 0
 440 0 512 72 512 160 c 0
 512 197 500 231 479 258 c 0
 463 279 448 308 448 343 c 2
 448 672 l 2
 448 725 405 768 352 768 c 0
 299 768 256 725 256 672 c 2
352 896 m 0
 476 896 576 796 576 672 c 2
 576 343 l 2
 576 343 576 343 576 342 c 0
 576 341 578 338 580 336 c 0
 618 287 640 226 640 160 c 0
 640 1 511 -128 352 -128 c 0
 193 -128 64 1 64 160 c 0
 64 226 86 287 124 336 c 0
 126 338 128 341 128 342 c 0
 128 343 128 343 128 343 c 2
 128 672 l 2
 128 796 228 896 352 896 c 0
352 64 m 0
 299 64 256 107 256 160 c 0
 256 202 283 238 320 251 c 1
 320 672 l 2
 320 690 334 704 352 704 c 0
 370 704 384 690 384 672 c 2
 384 251 l 1
 421 238 448 202 448 160 c 0
 448 107 405 64 352 64 c 0
960 576 m 1
 960 576 l 1
 960 -0 l 2
 960 -35 931 -64 896 -64 c 0
 861 -64 832 -35 832 -0 c 2
 832 576 l 1
 768 576 l 2
 742 576 719 592 709 616 c 0
 699 640 705 667 723 685 c 2
 851 813 l 2
 876 838 916 838 941 813 c 2
 1069 685 l 2
 1087 667 1093 640 1083 616 c 0
 1073 592 1050 576 1024 576 c 2
 960 576 l 1
960 576 m 1024
EndSplineSet
Ligature2: "'liga' Standard Ligatures in Latin lookup 0 subtable" t e m p e r a t u r e hyphen u p
Ligature2: "'liga' Standard Ligatures in Latin lookup 0 subtable" t e m p e r a t u r e hyphen a r r o w hyphen u p
EndChar

StartChar: trailer
Encoding: 57409 57409 57
Width: 1280
Flags: HW
LayerCount: 2
Fore
SplineSet
96 832 m 2
 992 832 l 2
 1045 832 1088 789 1088 736 c 2
 1088 256 l 1
 1216 256 l 2
 1251 256 1280 227 1280 192 c 0
 1280 157 1251 128 1216 128 c 2
 992 128 l 1
 976 128 l 1
 574 128 l 1
 558 237 465 320 352 320 c 0
 239 320 146 237 130 128 c 1
 96 128 l 2
 43 128 0 171 0 224 c 2
 0 736 l 2
 0 789 43 832 96 832 c 2
160 704 m 0
 142 704 128 690 128 672 c 2
 128 368 l 1
 148 384 169 398 192 410 c 1
 192 672 l 2
 192 690 178 704 160 704 c 0
352 448 m 0
 363 448 373 448 384 447 c 1
 384 672 l 2
 384 690 370 704 352 704 c 0
 334 704 320 690 320 672 c 2
 320 447 l 1
 331 448 341 448 352 448 c 0
512 410 m 1
 535 398 556 384 576 368 c 1
 576 672 l 2
 576 690 562 704 544 704 c 0
 526 704 512 690 512 672 c 2
 512 410 l 1
736 704 m 0
 718 704 704 690 704 672 c 2
 704 288 l 2
 704 270 718 256 736 256 c 0
 754 256 768 270 768 288 c 2
 768 672 l 2
 768 690 754 704 736 704 c 0
960 672 m 2
 960 690 946 704 928 704 c 0
 910 704 896 690 896 672 c 2
 896 288 l 2
 896 270 910 256 928 256 c 0
 946 256 960 270 960 288 c 2
 960 672 l 2
352 -64 m 0
 295 -64 242 -34 213 16 c 0
 184 66 184 126 213 176 c 0
 242 226 295 256 352 256 c 0
 409 256 462 226 491 176 c 0
 520 126 520 66 491 16 c 0
 462 -34 409 -64 352 -64 c 0
352 160 m 0
 317 160 288 131 288 96 c 0
 288 61 317 32 352 32 c 0
 387 32 416 61 416 96 c 0
 416 131 387 160 352 160 c 0
EndSplineSet
Ligature2: "'liga' Standard Ligatures in Latin lookup 0 subtable" t r a i l e r
EndChar

StartChar: bacteria
Encoding: 57433 57433 58
Width: 1280
Flags: HW
LayerCount: 2
Fore
SplineSet
610 895 m 0
 629 889 640 869 635 850 c 2
 626 819 l 1
 653 804 676 782 691 754 c 1
 722 763 l 2
 741 768 762 757 767 738 c 0
 772 719 761 699 742 694 c 2
 712 685 l 1
 714 652 707 620 692 592 c 1
 710 574 l 2
 724 560 724 537 710 523 c 0
 696 509 673 509 659 523 c 2
 644 537 l 1
 626 524 605 514 582 509 c 0
 574 507 566 504 558 502 c 2
 563 486 l 2
 568 467 557 447 538 442 c 0
 519 437 498 447 493 466 c 2
 491 475 l 1
 452 453 430 429 417 409 c 1
 434 401 l 2
 452 393 461 372 453 354 c 0
 445 336 424 327 406 335 c 2
 392 341 l 1
 390 308 378 277 359 252 c 1
 374 238 l 2
 388 224 388 201 374 187 c 0
 360 173 337 173 323 187 c 2
 305 205 l 1
 280 191 250 183 219 184 c 0
 217 184 213 185 211 185 c 2
 203 154 l 2
 197 135 177 123 158 129 c 0
 139 135 128 155 133 174 c 2
 142 205 l 1
 115 220 92 243 77 270 c 1
 46 261 l 2
 27 256 6 267 1 286 c 0
 -4 305 7 326 26 331 c 2
 56 339 l 2
 56 345 56 351 56 357 c 2
 114 356 l 2
 114 356 l 1
 56 358 56 358 56 358 c 1
 56 358 l 1
 56 358 l 1
 56 359 l 1
 56 362 l 2
 56 364 57 365 57 367 c 0
 57 371 57 377 58 383 c 0
 59 395 63 411 67 430 c 0
 67 432 68 432 68 434 c 2
 47 443 l 2
 29 450 20 471 27 489 c 0
 34 507 56 516 74 509 c 2
 90 503 l 1
 98 524 109 546 122 569 c 0
 125 575 128 580 132 586 c 2
 109 604 l 2
 93 616 92 639 104 655 c 0
 116 671 138 672 154 660 c 2
 174 644 l 1
 195 668 219 692 246 714 c 1
 234 732 l 2
 223 749 227 771 244 782 c 0
 261 793 283 789 294 772 c 2
 305 755 l 1
 332 772 363 788 396 801 c 1
 387 822 l 2
 379 840 388 861 406 869 c 0
 424 877 445 868 453 850 c 2
 464 825 l 1
 478 829 491 833 506 836 c 0
 523 840 540 840 557 839 c 1
 565 870 l 2
 571 889 591 900 610 895 c 0
224 352 m 1
 224 352 l 1
 183 353 151 354 128 355 c 1
 128 355 l 1
 224 352 l 1
256 512 m 0
 221 512 192 483 192 448 c 0
 192 413 221 384 256 384 c 0
 291 384 320 413 320 448 c 0
 320 483 291 512 256 512 c 0
384 608 m 0
 384 590 398 576 416 576 c 0
 434 576 448 590 448 608 c 0
 448 626 434 640 416 640 c 0
 398 640 384 626 384 608 c 0
645 -82 m 2
 654 -51 l 1
 627 -36 604 -14 589 14 c 1
 558 5 l 2
 539 0 518 11 513 30 c 0
 508 49 519 69 538 74 c 2
 568 83 l 1
 566 116 574 148 589 176 c 1
 571 194 l 2
 557 208 557 231 571 245 c 0
 585 259 608 259 622 245 c 2
 636 231 l 1
 654 244 675 254 698 259 c 0
 706 261 714 264 722 266 c 2
 717 282 l 2
 712 301 723 321 742 326 c 0
 761 331 782 321 787 302 c 2
 789 293 l 1
 828 315 850 339 863 359 c 1
 846 367 l 2
 828 375 819 396 827 414 c 0
 835 432 856 441 874 433 c 2
 888 427 l 1
 890 460 902 491 921 516 c 1
 907 530 l 2
 893 544 893 567 907 581 c 0
 921 595 944 595 958 581 c 2
 976 563 l 1
 1001 577 1031 585 1062 584 c 0
 1064 584 1067 583 1069 583 c 2
 1077 614 l 2
 1083 633 1103 645 1122 639 c 0
 1141 633 1152 613 1147 594 c 2
 1138 563 l 1
 1165 548 1188 525 1203 498 c 1
 1234 507 l 2
 1253 512 1274 501 1279 482 c 0
 1284 463 1273 442 1254 437 c 2
 1224 429 l 2
 1224 423 1224 416 1224 410 c 2
 1166 412 l 2
 1166 412 l 1
 1224 410 1224 410 1224 410 c 1
 1224 410 l 1
 1224 410 l 1
 1224 409 l 1
 1224 406 l 2
 1224 404 1223 403 1223 401 c 0
 1223 397 1223 391 1222 385 c 0
 1221 373 1217 357 1213 338 c 0
 1213 336 1212 336 1212 334 c 2
 1233 325 l 2
 1251 318 1260 297 1253 279 c 0
 1246 261 1224 252 1206 259 c 2
 1190 265 l 1
 1182 244 1171 222 1158 199 c 0
 1155 193 1152 188 1148 182 c 2
 1171 164 l 2
 1187 152 1188 129 1176 113 c 0
 1164 97 1142 96 1126 108 c 2
 1106 124 l 1
 1085 100 1061 76 1034 54 c 1
 1046 36 l 2
 1057 19 1053 -3 1036 -14 c 0
 1019 -25 997 -21 986 -4 c 2
 975 13 l 1
 948 -4 917 -20 884 -33 c 1
 893 -54 l 2
 901 -72 892 -93 874 -101 c 0
 856 -109 835 -100 827 -82 c 2
 816 -57 l 1
 802 -61 789 -65 774 -68 c 0
 757 -72 740 -72 723 -71 c 1
 715 -102 l 2
 710 -121 689 -133 670 -127 c 0
 651 -121 640 -101 645 -82 c 2
1152 413 m 1
 1152 413 l 1
 1056 416 l 1
 1097 415 1129 414 1152 413 c 1
 1152 413 l 1
896 128 m 0
 896 163 867 192 832 192 c 0
 797 192 768 163 768 128 c 0
 768 93 797 64 832 64 c 0
 867 64 896 93 896 128 c 0
EndSplineSet
Ligature2: "'liga' Standard Ligatures in Latin lookup 0 subtable" b a c t e r i a
EndChar

StartChar: bacterium
Encoding: 57434 57434 59
Width: 1024
Flags: HW
LayerCount: 2
Fore
SplineSet
846 835 m 2
 838 807 l 1
 879 786 913 752 935 710 c 1
 963 718 l 2
 989 725 1015 711 1022 685 c 0
 1029 659 1014 633 989 626 c 2
 960 617 l 1
 962 570 949 525 925 487 c 1
 946 466 l 2
 965 447 965 417 946 398 c 0
 927 379 897 379 878 398 c 2
 857 419 l 1
 836 405 812 396 786 390 c 0
 770 386 756 382 742 378 c 1
 750 349 l 2
 757 323 743 296 717 289 c 0
 691 282 665 297 658 322 c 2
 653 337 l 1
 606 308 576 275 556 245 c 1
 579 236 l 2
 603 226 614 197 604 173 c 0
 594 149 565 138 541 148 c 2
 516 158 l 1
 515 157 l 2
 512 148 512 140 511 137 c 2
 511 136 l 2
 507 100 495 67 477 39 c 1
 498 18 l 2
 517 -1 517 -31 498 -50 c 0
 479 -69 449 -69 430 -50 c 2
 409 -29 l 1
 371 -53 327 -66 279 -64 c 1
 270 -93 l 2
 263 -119 237 -133 211 -126 c 0
 185 -119 171 -92 178 -67 c 2
 186 -39 l 1
 144 -18 110 17 89 58 c 1
 61 50 l 2
 35 43 9 57 2 83 c 0
 -5 109 10 135 35 142 c 2
 64 151 l 1
 64 161 64 170 65 180 c 1
 143 173 l 1
 143 173 l 1
 65 180 65 181 65 181 c 1
 65 181 l 1
 65 181 l 1
 65 183 l 1
 65 185 l 2
 65 187 66 190 66 193 c 0
 67 199 68 205 69 213 c 0
 72 229 77 251 84 276 c 0
 85 278 84 280 85 282 c 2
 62 291 l 2
 37 301 25 329 35 354 c 0
 45 379 73 390 98 380 c 2
 118 373 l 1
 130 402 145 432 164 463 c 0
 168 469 172 477 176 483 c 2
 146 507 l 2
 125 523 123 553 139 574 c 0
 155 595 185 598 206 581 c 2
 233 560 l 1
 260 593 292 624 328 654 c 1
 312 677 l 2
 297 699 303 729 325 744 c 0
 347 759 377 753 392 731 c 2
 405 711 l 1
 441 734 482 755 526 774 c 1
 516 797 l 2
 506 821 517 850 541 860 c 0
 565 870 594 859 604 835 c 2
 616 807 l 1
 638 814 662 820 686 826 c 0
 706 831 725 833 745 832 c 1
 754 861 l 2
 761 887 787 901 813 894 c 0
 839 887 853 860 846 835 c 2
184 169 m 1
 288 160 l 1
 184 169 l 1
 184 169 l 1
224 256 m 0
 224 222 242 190 272 173 c 0
 302 156 338 156 368 173 c 0
 398 190 416 222 416 256 c 0
 416 290 398 322 368 339 c 0
 338 356 302 356 272 339 c 0
 242 322 224 290 224 256 c 0
480 528 m 0
 453 528 432 507 432 480 c 0
 432 453 453 432 480 432 c 0
 507 432 528 453 528 480 c 0
 528 507 507 528 480 528 c 0
EndSplineSet
Ligature2: "'liga' Standard Ligatures in Latin lookup 0 subtable" b a c t e r i u m
EndChar

StartChar: box-tissue
Encoding: 57435 57435 60
Width: 1024
Flags: HW
LayerCount: 2
Fore
SplineSet
185 896 m 2
 154 896 128 870 128 839 c 0
 128 834 129 830 130 825 c 2
 224 448 l 1
 256 320 l 1
 768 320 l 1
 819 448 l 1
 892 630 l 2
 894 636 896 643 896 650 c 0
 896 680 872 704 842 704 c 2
 672 704 l 2
 592 704 568 752 544 800 c 0
 520 848 496 896 416 896 c 2
 185 896 l 2
158 448 m 1
 96 448 l 2
 43 448 0 405 0 352 c 2
 0 128 l 1
 1024 128 l 1
 1024 352 l 2
 1024 405 981 448 928 448 c 2
 888 448 l 1
 837 320 l 1
 864 320 l 2
 882 320 896 306 896 288 c 0
 896 270 882 256 864 256 c 2
 768 256 l 1
 256 256 l 1
 160 256 l 2
 142 256 128 270 128 288 c 0
 128 306 142 320 160 320 c 2
 190 320 l 1
 158 448 l 1
0 64 m 1
 0 -32 l 2
 0 -85 43 -128 96 -128 c 2
 928 -128 l 2
 981 -128 1024 -85 1024 -32 c 2
 1024 64 l 1
 0 64 l 1
EndSplineSet
Ligature2: "'liga' Standard Ligatures in Latin lookup 0 subtable" b o x hyphen t i s s u e
EndChar

StartChar: hand-holding-medical
Encoding: 57436 57436 61
Width: 1152
Flags: HW
LayerCount: 2
Fore
SplineSet
448 848 m 2
 448 875 469 896 496 896 c 2
 592 896 l 2
 619 896 640 875 640 848 c 2
 640 736 l 1
 752 736 l 2
 779 736 800 715 800 688 c 2
 800 592 l 2
 800 565 779 544 752 544 c 2
 640 544 l 1
 640 432 l 2
 640 405 619 384 592 384 c 2
 496 384 l 2
 469 384 448 405 448 432 c 2
 448 544 l 1
 336 544 l 2
 309 544 288 565 288 592 c 2
 288 688 l 2
 288 715 309 736 336 736 c 2
 448 736 l 1
 448 848 l 2
1119 112 m 1
 1120 112 l 1
 866 -75 l 2
 819 -109 763 -128 705 -128 c 2
 384 -128 l 1
 64 -128 l 2
 29 -128 0 -99 0 -64 c 2
 0 64 l 2
 0 99 29 128 64 128 c 2
 138 128 l 1
 227 200 l 2
 272 236 329 256 387 256 c 2
 544 256 l 1
 576 256 l 1
 704 256 l 2
 739 256 768 227 768 192 c 0
 768 157 739 128 704 128 c 2
 576 128 l 1
 544 128 l 2
 526 128 512 114 512 96 c 0
 512 78 526 64 544 64 c 2
 785 64 l 1
 1025 240 l 2
 1061 266 1110 259 1136 223 c 0
 1162 187 1155 138 1119 112 c 1
385 128 m 1
 386 128 386 128 387 128 c 1
 387 128 l 1
 385 128 l 1
EndSplineSet
Ligature2: "'liga' Standard Ligatures in Latin lookup 0 subtable" h a n d hyphen h o l d i n g hyphen m e d i c a l
EndChar

StartChar: hand-sparkles
Encoding: 57437 57437 62
Width: 1280
Flags: HW
LayerCount: 2
Fore
SplineSet
640 896 m 0
 605 896 576 867 576 832 c 2
 576 416 l 2
 576 398 562 384 544 384 c 0
 526 384 512 398 512 416 c 2
 512 768 l 2
 512 803 483 832 448 832 c 0
 413 832 384 803 384 768 c 2
 384 224 l 2
 384 221 384 218 384 215 c 1
 263 330 l 2
 231 360 180 359 150 327 c 0
 120 295 121 244 153 214 c 2
 378 0 l 2
 464 -82 579 -128 698 -128 c 2
 736 -128 l 2
 820 -128 897 -99 957 -50 c 1
 921 -39 896 -6 896 32 c 0
 896 70 921 103 958 114 c 2
 1020 132 l 1
 1038 194 l 2
 1045 220 1064 240 1088 250 c 1
 1088 640 l 2
 1088 675 1059 704 1024 704 c 0
 989 704 960 675 960 640 c 2
 960 416 l 2
 960 398 946 384 928 384 c 0
 910 384 896 398 896 416 c 2
 896 768 l 2
 896 803 867 832 832 832 c 0
 797 832 768 803 768 768 c 2
 768 416 l 2
 768 398 754 384 736 384 c 0
 718 384 704 398 704 416 c 2
 704 832 l 2
 704 867 675 896 640 896 c 0
625 243 m 2
 640 192 l 1
 691 177 l 2
 699 175 704 168 704 160 c 0
 704 152 699 145 691 143 c 2
 640 128 l 1
 625 77 l 2
 623 69 616 64 608 64 c 0
 600 64 593 69 591 77 c 2
 576 128 l 1
 525 143 l 2
 517 145 512 152 512 160 c 0
 512 168 517 175 525 177 c 2
 576 192 l 1
 591 243 l 2
 593 251 600 256 608 256 c 0
 616 256 623 251 625 243 c 2
208 656 m 1
 180 753 l 2
 177 762 169 768 160 768 c 0
 151 768 143 762 140 753 c 2
 112 656 l 1
 15 628 l 2
 6 625 0 617 0 608 c 0
 0 599 6 591 15 588 c 2
 112 560 l 1
 140 463 l 2
 143 454 151 448 160 448 c 0
 169 448 177 454 180 463 c 2
 208 560 l 1
 305 588 l 2
 314 591 320 599 320 608 c 0
 320 617 314 625 305 628 c 2
 208 656 l 1
1168 80 m 1
 1140 177 l 2
 1137 186 1129 192 1120 192 c 0
 1111 192 1103 186 1100 177 c 2
 1072 80 l 1
 975 52 l 2
 966 49 960 41 960 32 c 0
 960 23 966 15 975 12 c 2
 1072 -16 l 1
 1100 -113 l 2
 1103 -122 1111 -128 1120 -128 c 0
 1129 -128 1137 -122 1140 -113 c 2
 1168 -16 l 1
 1265 12 l 2
 1274 15 1280 23 1280 32 c 0
 1280 41 1274 49 1265 52 c 2
 1168 80 l 1
EndSplineSet
Ligature2: "'liga' Standard Ligatures in Latin lookup 0 subtable" h a n d hyphen s p a r k l e s
EndChar

StartChar: hands-bubbles
Encoding: 57438 57438 63
Width: 1152
Flags: HW
LayerCount: 2
Fore
SplineSet
832 768 m 0
 797 768 768 797 768 832 c 0
 768 867 797 896 832 896 c 0
 867 896 896 867 896 832 c 0
 896 797 867 768 832 768 c 0
1024 512 m 0
 989 512 960 541 960 576 c 0
 960 611 989 640 1024 640 c 0
 1059 640 1088 611 1088 576 c 0
 1088 541 1059 512 1024 512 c 0
320 -32 m 0
 320 -66 302 -98 272 -115 c 0
 242 -132 206 -132 176 -115 c 0
 146 -98 128 -66 128 -32 c 0
 128 2 146 34 176 51 c 0
 206 68 242 68 272 51 c 0
 302 34 320 2 320 -32 c 0
64 576 m 2
 64 611 93 640 128 640 c 0
 163 640 192 611 192 576 c 2
 192 477 l 1
 279 627 l 1
 279 627 l 1
 279 627 l 1
 415 863 l 2
 428 886 457 894 480 881 c 0
 503 868 511 838 498 815 c 2
 374 600 l 2
 367 589 372 574 383 567 c 0
 394 560 408 565 415 576 c 2
 571 846 l 2
 584 869 614 877 637 864 c 0
 660 851 668 821 655 798 c 2
 563 639 l 1
 544 637 525 632 508 621 c 2
 388 545 l 2
 266 469 192 336 192 192 c 2
 192 176 l 2
 192 172 192 169 192 165 c 1
 112 229 64 327 64 431 c 2
 64 576 l 2
664 719 m 1
 664 719 l 1
 677 742 707 750 730 737 c 0
 753 724 760 694 747 671 c 2
 689 571 l 1
 688 574 686 577 684 580 c 0
 667 607 643 625 615 634 c 1
 664 719 l 1
757 592 m 1
 757 592 l 1
 770 615 800 622 823 609 c 0
 846 596 853 567 840 544 c 2
 794 464 l 1
 731 464 l 1
 731 464 l 1
 704 464 l 1
 695 464 l 1
 699 475 702 487 703 499 c 2
 757 592 l 1
630 546 m 1
 630 546 l 1
 649 516 640 477 610 458 c 2
 518 400 l 1
 704 400 l 1
 704 400 l 1
 704 400 l 1
 976 400 l 2
 1003 400 1024 379 1024 352 c 0
 1024 325 1003 304 976 304 c 2
 728 304 l 2
 715 304 704 293 704 280 c 0
 704 267 715 256 728 256 c 2
 1040 256 l 2
 1067 256 1088 235 1088 208 c 0
 1088 181 1067 160 1040 160 c 2
 728 160 l 2
 715 160 704 149 704 136 c 0
 704 123 715 112 728 112 c 2
 976 112 l 2
 1003 112 1024 91 1024 64 c 0
 1024 37 1003 16 976 16 c 2
 728 16 l 2
 715 16 704 5 704 -8 c 0
 704 -21 715 -32 728 -32 c 2
 912 -32 l 2
 939 -32 960 -53 960 -80 c 0
 960 -107 939 -128 912 -128 c 2
 560 -128 l 2
 493 -128 430 -106 380 -69 c 1
 383 -57 384 -45 384 -32 c 0
 384 44 331 108 260 124 c 1
 257 141 256 158 256 176 c 2
 256 192 l 2
 256 314 319 426 422 491 c 2
 542 566 l 2
 572 585 611 576 630 546 c 1
630 546 m 1024
EndSplineSet
Ligature2: "'liga' Standard Ligatures in Latin lookup 0 subtable" h a n d s hyphen w a s h
Ligature2: "'liga' Standard Ligatures in Latin lookup 0 subtable" h a n d s hyphen b u b b l e s
EndChar

StartChar: handshake-simple-slash
Encoding: 57439 57439 64
Width: 1280
Flags: HW
LayerCount: 2
Fore
SplineSet
78 886 m 2
 329 689 l 1
 400 736 l 2
 431 757 468 768 506 768 c 0
 531 768 556 763 579 753 c 1
 416 621 l 1
 467 580 l 1
 647 726 l 2
 681 753 723 768 767 768 c 0
 803 768 839 758 870 738 c 2
 1015 645 l 1
 1023 640 l 1
 1024 640 l 1
 1032 640 l 1
 1184 640 l 2
 1237 640 1280 597 1280 544 c 2
 1280 288 l 2
 1280 235 1237 192 1184 192 c 2
 1100 192 l 1
 746 518 l 1
 788 551 l 2
 802 562 804 582 793 596 c 0
 782 610 762 612 748 601 c 2
 594 481 l 1
 646 440 l 1
 693 477 l 1
 961 231 l 2
 979 214 990 192 992 169 c 1
 1262 -42 l 2
 1283 -58 1286 -89 1270 -110 c 0
 1254 -131 1223 -134 1202 -118 c 2
 18 810 l 2
 -3 826 -6 857 10 878 c 0
 26 899 57 902 78 886 c 2
-0 544 m 2
 0 592 35 632 82 639 c 1
 827 52 l 2
 826 50 825 49 823 47 c 0
 787 8 726 5 687 41 c 2
 653 73 l 1
 649 58 642 43 631 31 c 0
 595 -8 534 -11 495 25 c 2
 312 192 l 1
 96 192 l 2
 43 192 0 235 -0 288 c 2
 -0 544 l 2
EndSplineSet
Ligature2: "'liga' Standard Ligatures in Latin lookup 0 subtable" h a n d s h a k e hyphen a l t hyphen s l a s h
Ligature2: "'liga' Standard Ligatures in Latin lookup 0 subtable" h a n d s h a k e hyphen s i m p l e hyphen s l a s h
EndChar

StartChar: handshake-slash
Encoding: 57440 57440 65
Width: 1280
Flags: HW
LayerCount: 2
Fore
SplineSet
78 886 m 2
 329 689 l 1
 400 736 l 2
 431 757 468 768 506 768 c 0
 531 768 556 763 579 753 c 1
 416 621 l 1
 467 580 l 1
 647 726 l 2
 681 753 723 768 767 768 c 0
 803 768 839 758 870 738 c 2
 1015 645 l 1
 1023 640 l 1
 1024 640 l 1
 1024 262 l 1
 746 518 l 1
 788 551 l 2
 802 562 804 582 793 596 c 0
 782 610 762 612 748 601 c 2
 594 481 l 1
 646 440 l 1
 693 477 l 1
 961 231 l 2
 979 214 990 192 992 169 c 1
 1262 -42 l 2
 1283 -58 1286 -89 1270 -110 c 0
 1254 -131 1223 -134 1202 -118 c 2
 18 810 l 2
 -3 826 -6 857 10 878 c 0
 26 899 57 902 78 886 c 2
192 553 m 1
 192 192 l 2
 192 157 163 128 128 128 c 2
 64 128 l 2
 29 128 0 157 -0 192 c 2
 -0 640 l 1
 81 640 l 1
 192 553 l 1
827 52 m 1
 827 52 l 1
 826 50 825 49 823 47 c 0
 787 8 726 5 687 41 c 2
 653 73 l 1
 649 58 642 43 631 31 c 0
 595 -8 534 -11 495 25 c 2
 312 192 l 1
 256 192 l 1
 256 502 l 1
 827 52 l 1
96 256 m 0
 78 256 64 242 64 224 c 0
 64 206 78 192 96 192 c 0
 114 192 128 206 128 224 c 0
 128 242 114 256 96 256 c 0
1088 640 m 1
 1280 640 l 1
 1280 192 l 2
 1280 157 1251 128 1216 128 c 2
 1152 128 l 2
 1117 128 1088 157 1088 192 c 2
 1088 640 l 1
1152 224 m 0
 1152 206 1166 192 1184 192 c 0
 1202 192 1216 206 1216 224 c 0
 1216 242 1202 256 1184 256 c 0
 1166 256 1152 242 1152 224 c 0
EndSplineSet
Ligature2: "'liga' Standard Ligatures in Latin lookup 0 subtable" h a n d s h a k e hyphen s l a s h
EndChar

StartChar: head-side-cough
Encoding: 57441 57441 66
Width: 1280
Flags: HW
LayerCount: 2
Fore
SplineSet
0 448 m 0
 0 348 33 251 94 173 c 0
 114 146 128 114 128 81 c 2
 128 -64 l 2
 128 -99 157 -128 192 -128 c 2
 512 -128 l 1
 512 -128 l 1
 592 -128 l 2
 619 -128 640 -107 640 -80 c 2
 640 -64 l 1
 800 -64 l 2
 853 -64 896 -21 896 32 c 2
 896 64 l 1
 681 77 l 2
 658 78 640 98 640 121 c 0
 640 143 656 162 678 165 c 2
 896 192 l 1
 896 256 l 1
 896 256 l 1
 936 256 l 2
 984 256 1024 296 1024 344 c 0
 1024 364 1017 382 1005 398 c 2
 921 504 l 2
 904 525 896 550 891 576 c 0
 859 758 686 896 496 896 c 2
 448 896 l 2
 200 896 0 695 0 448 c 0
704 448 m 0
 669 448 640 477 640 512 c 0
 640 547 669 576 704 576 c 0
 739 576 768 547 768 512 c 0
 768 477 739 448 704 448 c 0
928 128 m 0
 928 101 949 80 976 80 c 0
 1003 80 1024 101 1024 128 c 0
 1024 155 1003 176 976 176 c 0
 949 176 928 155 928 128 c 0
1232 176 m 0
 1205 176 1184 155 1184 128 c 0
 1184 101 1205 80 1232 80 c 0
 1259 80 1280 101 1280 128 c 0
 1280 155 1259 176 1232 176 c 0
1184 -64 m 0
 1184 -91 1205 -112 1232 -112 c 0
 1259 -112 1280 -91 1280 -64 c 0
 1280 -37 1259 -16 1232 -16 c 0
 1205 -16 1184 -37 1184 -64 c 0
1104 272 m 0
 1077 272 1056 251 1056 224 c 0
 1056 197 1077 176 1104 176 c 0
 1131 176 1152 197 1152 224 c 0
 1152 251 1131 272 1104 272 c 0
1184 320 m 0
 1184 293 1205 272 1232 272 c 0
 1259 272 1280 293 1280 320 c 0
 1280 347 1259 368 1232 368 c 0
 1205 368 1184 347 1184 320 c 0
1104 80 m 0
 1077 80 1056 59 1056 32 c 0
 1056 5 1077 -16 1104 -16 c 0
 1131 -16 1152 5 1152 32 c 0
 1152 59 1131 80 1104 80 c 0
EndSplineSet
Ligature2: "'liga' Standard Ligatures in Latin lookup 0 subtable" h e a d hyphen s i d e hyphen c o u g h
EndChar

StartChar: head-side-cough-slash
Encoding: 57442 57442 67
Width: 1280
Flags: HW
LayerCount: 2
Fore
SplineSet
896 244 m 1
 896 256 l 1
 896 256 l 1
 936 256 l 2
 984 256 1024 296 1024 344 c 0
 1024 364 1017 382 1005 398 c 2
 921 504 l 2
 904 525 896 550 891 576 c 0
 859 758 686 896 496 896 c 2
 448 896 l 2
 347 896 254 862 179 806 c 1
 78 886 l 2
 57 902 26 899 10 878 c 0
 -6 857 -3 826 18 810 c 2
 1202 -118 l 2
 1223 -134 1254 -130 1270 -109 c 0
 1284 -92 1283 -68 1271 -51 c 1
 1278 -51 l 1
 1272 -30 1254 -16 1232 -16 c 0
 1231 -16 1229 -16 1228 -16 c 2
 1150 45 l 1
 1145 65 1127 79 1106 80 c 1
 1020 147 l 2
 1014 162 1000 172 984 175 c 2
 896 244 l 1
-0 448 m 0
 0 348 33 251 94 173 c 0
 114 146 128 114 128 81 c 2
 128 -64 l 2
 128 -99 157 -128 192 -128 c 2
 512 -128 l 1
 512 -128 l 1
 592 -128 l 2
 619 -128 640 -107 640 -80 c 2
 640 -64 l 1
 800 -64 l 2
 842 -64 878 -36 891 2 c 1
 805 70 l 1
 681 77 l 2
 658 78 640 98 640 121 c 0
 640 143 657 162 679 165 c 2
 684 165 l 1
 54 661 l 1
 19 597 0 525 -0 448 c 0
1232 176 m 0
 1205 176 1184 155 1184 128 c 0
 1184 101 1205 80 1232 80 c 0
 1259 80 1280 101 1280 128 c 0
 1280 155 1259 176 1232 176 c 0
1104 272 m 0
 1077 272 1056 251 1056 224 c 0
 1056 197 1077 176 1104 176 c 0
 1131 176 1152 197 1152 224 c 0
 1152 251 1131 272 1104 272 c 0
1184 320 m 0
 1184 293 1205 272 1232 272 c 0
 1259 272 1280 293 1280 320 c 0
 1280 347 1259 368 1232 368 c 0
 1205 368 1184 347 1184 320 c 0
EndSplineSet
Ligature2: "'liga' Standard Ligatures in Latin lookup 0 subtable" h e a d hyphen s i d e hyphen c o u g h hyphen s l a s h
EndChar

StartChar: head-side-mask
Encoding: 57443 57443 68
Width: 1152
Flags: HW
LayerCount: 2
Fore
SplineSet
64 448 m 0
 64 348 97 251 158 173 c 0
 178 146 192 114 192 81 c 2
 192 -64 l 2
 192 -99 221 -128 256 -128 c 2
 512 -128 l 1
 512 192 l 2
 512 214 516 235 524 254 c 1
 82 575 l 1
 70 534 64 492 64 448 c 0
561 307 m 1
 590 335 629 352 672 352 c 2
 1088 352 l 1
 1086 369 1080 385 1069 398 c 2
 985 504 l 2
 968 525 960 550 955 576 c 0
 923 758 750 896 560 896 c 2
 512 896 l 2
 332 896 177 790 106 637 c 1
 561 307 l 1
672 288 m 2
 647 288 624 279 607 263 c 1
 607 263 l 1
 588 246 576 220 576 192 c 2
 576 -128 l 1
 865 -128 l 2
 921 -128 971 -92 988 -38 c 2
 990 -32 l 1
 736 -32 l 2
 718 -32 704 -18 704 -0 c 0
 704 18 718 32 736 32 c 2
 1009 32 l 1
 1029 96 l 1
 736 96 l 2
 718 96 704 110 704 128 c 0
 704 146 718 160 736 160 c 2
 1049 160 l 1
 1088 288 l 1
 1068 288 l 1
 1068 288 l 1
 672 288 l 2
768 448 m 0
 733 448 704 477 704 512 c 0
 704 547 733 576 768 576 c 0
 803 576 832 547 832 512 c 0
 832 477 803 448 768 448 c 0
EndSplineSet
Ligature2: "'liga' Standard Ligatures in Latin lookup 0 subtable" h e a d hyphen s i d e hyphen m a s k
EndChar

StartChar: head-side-virus
Encoding: 57444 57444 69
Width: 1024
Flags: HW
LayerCount: 2
Fore
SplineSet
0 448 m 0
 0 348 33 251 94 173 c 0
 114 146 128 114 128 81 c 2
 128 -64 l 2
 128 -99 157 -128 192 -128 c 2
 576 -128 l 2
 611 -128 640 -99 640 -64 c 2
 640 0 l 1
 768 0 l 2
 839 0 896 57 896 128 c 2
 896 256 l 1
 936 256 l 2
 984 256 1024 296 1024 344 c 0
 1024 364 1017 382 1005 398 c 2
 921 504 l 2
 904 525 896 550 891 576 c 0
 859 758 686 896 496 896 c 2
 448 896 l 2
 200 896 0 695 0 448 c 0
448 768 m 0
 466 768 480 754 480 736 c 0
 480 670 559 637 606 684 c 0
 618 696 640 696 652 684 c 0
 664 672 664 650 652 638 c 0
 605 591 638 512 704 512 c 0
 722 512 736 498 736 480 c 0
 736 462 722 448 704 448 c 0
 638 448 605 369 652 322 c 0
 664 310 664 288 652 276 c 0
 640 264 618 264 606 276 c 0
 559 323 480 290 480 224 c 0
 480 206 466 192 448 192 c 0
 430 192 416 206 416 224 c 0
 416 290 337 323 290 276 c 0
 278 264 256 264 244 276 c 0
 232 288 232 310 244 322 c 0
 291 369 258 448 192 448 c 0
 174 448 160 462 160 480 c 0
 160 498 174 512 192 512 c 0
 258 512 291 591 244 638 c 0
 232 650 232 672 244 684 c 0
 256 696 278 696 290 684 c 0
 337 637 416 670 416 736 c 0
 416 754 430 768 448 768 c 0
400 576 m 0
 373 576 352 555 352 528 c 0
 352 501 373 480 400 480 c 0
 427 480 448 501 448 528 c 0
 448 555 427 576 400 576 c 0
480 416 m 0
 480 398 494 384 512 384 c 0
 530 384 544 398 544 416 c 0
 544 434 530 448 512 448 c 0
 494 448 480 434 480 416 c 0
EndSplineSet
Ligature2: "'liga' Standard Ligatures in Latin lookup 0 subtable" h e a d hyphen s i d e hyphen v i r u s
EndChar

StartChar: house-chimney-user
Encoding: 57445 57445 70
Width: 1152
Flags: HW
LayerCount: 2
Fore
SplineSet
1088 321 m 1
 1087 321 l 1
 1023 321 l 1
 1025 1 l 2
 1025 -70 968 -128 897 -128 c 2
 256 -128 l 2
 185 -128 128 -71 128 0 c 2
 128 321 l 1
 64 321 l 2
 28 321 0 349 0 385 c 0
 0 403 6 419 20 433 c 2
 533 880 l 2
 547 894 563 896 577 896 c 0
 591 896 607 892 619 882 c 2
 832 695 l 1
 832 768 l 2
 832 803 861 832 896 832 c 2
 960 832 l 2
 995 832 1024 803 1024 768 c 2
 1024 526 l 1
 1130 433 l 2
 1146 419 1154 403 1152 385 c 0
 1152 349 1122 321 1088 321 c 1
576 576 m 0
 530 576 488 552 465 512 c 0
 442 472 442 424 465 384 c 0
 488 344 530 320 576 320 c 0
 622 320 664 344 687 384 c 0
 710 424 710 472 687 512 c 0
 664 552 622 576 576 576 c 0
352 96 m 0
 352 78 366 64 384 64 c 2
 768 64 l 2
 786 64 800 78 800 96 c 0
 800 184 728 256 640 256 c 2
 512 256 l 2
 424 256 352 184 352 96 c 0
EndSplineSet
Ligature2: "'liga' Standard Ligatures in Latin lookup 0 subtable" h o u s e hyphen c h i m n e y hyphen u s e r
EndChar

StartChar: house-laptop
Encoding: 57446 57446 71
Width: 1280
Flags: HW
LayerCount: 2
Fore
SplineSet
437 879 m 2
 21 495 l 2
 2 477 -6 449 4 425 c 0
 14 401 38 384 64 384 c 2
 128 384 l 1
 128 160 l 2
 128 107 171 64 224 64 c 2
 544 64 l 1
 544 320 l 1
 416 320 l 2
 398 320 384 334 384 352 c 2
 384 480 l 2
 384 498 398 512 416 512 c 2
 544 512 l 2
 562 512 576 498 576 480 c 2
 576 405 l 1
 599 432 634 448 672 448 c 2
 960 448 l 1
 960 465 952 483 939 495 c 2
 523 879 l 2
 499 902 462 902 437 879 c 2
704 288 m 1
 1088 288 l 1
 1088 0 l 1
 704 0 l 1
 704 288 l 1
608 320 m 2
 608 0 l 1
 544 0 l 2
 526 0 512 -14 512 -32 c 0
 512 -85 555 -128 608 -128 c 2
 704 -128 l 1
 1088 -128 l 1
 1184 -128 l 2
 1237 -128 1280 -85 1280 -32 c 0
 1280 -14 1266 0 1248 0 c 2
 1184 0 l 1
 1184 320 l 2
 1184 355 1155 384 1120 384 c 2
 672 384 l 2
 637 384 608 355 608 320 c 2
EndSplineSet
Ligature2: "'liga' Standard Ligatures in Latin lookup 0 subtable" l a p t o p hyphen h o u s e
Ligature2: "'liga' Standard Ligatures in Latin lookup 0 subtable" h o u s e hyphen l a p t o p
EndChar

StartChar: lungs-virus
Encoding: 57447 57447 72
Width: 1280
Flags: HW
LayerCount: 2
Fore
SplineSet
640 896 m 0
 605 896 576 867 576 832 c 2
 576 584 l 1
 593 599 615 608 640 608 c 0
 665 608 687 599 704 584 c 1
 704 832 l 2
 704 867 675 896 640 896 c 0
889 505 m 1
 889 505 l 1
 926 467 926 406 889 369 c 0
 887 367 886 365 886 364 c 0
 886 363 885 360 886 358 c 0
 887 356 889 355 890 354 c 0
 891 353 893 352 896 352 c 0
 949 352 992 309 992 256 c 0
 992 203 949 160 896 160 c 0
 893 160 891 159 890 158 c 0
 889 157 887 156 886 154 c 0
 885 152 886 150 886 148 c 0
 886 147 887 145 889 143 c 0
 926 105 926 44 889 7 c 1
 843 52 l 1
 889 7 l 1
 868 -15 838 -23 810 -20 c 1
 836 -52 871 -76 913 -86 c 2
 1059 -123 l 2
 1073 -127 1087 -128 1102 -128 c 0
 1200 -128 1280 -48 1280 50 c 2
 1280 64 l 2
 1280 67 1279 69 1279 72 c 0
 1265 188 1213 311 1160 413 c 0
 1107 516 1049 602 1018 646 c 0
 992 683 950 704 907 704 c 0
 830 704 768 642 768 565 c 2
 768 517 l 1
 805 542 856 538 889 505 c 1
844 52 m 0
 856 64 856 86 844 98 c 0
 797 145 830 224 896 224 c 0
 914 224 928 238 928 256 c 0
 928 274 914 288 896 288 c 0
 830 288 797 367 844 414 c 0
 856 426 856 448 844 460 c 0
 832 472 810 472 798 460 c 0
 751 413 672 446 672 512 c 0
 672 530 658 544 640 544 c 0
 622 544 608 530 608 512 c 0
 608 446 529 413 482 460 c 0
 470 472 448 472 436 460 c 0
 424 448 424 426 436 414 c 0
 483 367 450 288 384 288 c 0
 366 288 352 274 352 256 c 0
 352 238 366 224 384 224 c 0
 450 224 483 145 436 98 c 0
 424 86 424 64 436 52 c 0
 448 40 470 40 482 52 c 0
 529 99 608 66 608 -0 c 0
 608 -18 622 -32 640 -32 c 0
 658 -32 672 -18 672 -0 c 0
 672 66 751 99 798 52 c 0
 810 40 832 40 844 52 c 0
367 -86 m 1
 366 -86 l 1
 408 -76 443 -52 469 -20 c 1
 441 -23 412 -14 391 7 c 0
 354 45 354 106 391 143 c 0
 393 145 394 147 394 148 c 0
 394 149 394 152 393 154 c 0
 392 156 391 158 390 159 c 0
 389 160 387 160 384 160 c 0
 331 160 288 203 288 256 c 0
 288 309 331 352 384 352 c 0
 387 352 389 353 390 354 c 0
 391 355 392 356 393 358 c 0
 394 360 394 362 394 364 c 0
 394 365 393 367 391 369 c 0
 354 407 354 468 391 505 c 0
 424 538 475 542 512 517 c 1
 512 565 l 2
 512 642 450 704 373 704 c 0
 329 704 288 683 262 646 c 0
 231 602 174 515 120 412 c 0
 67 310 14 188 0 72 c 0
 0 69 0 67 0 64 c 2
 0 50 l 2
 0 -48 80 -128 178 -128 c 0
 193 -128 207 -127 221 -123 c 2
 367 -86 l 1
592 256 m 0
 565 256 544 277 544 304 c 0
 544 331 565 352 592 352 c 0
 619 352 640 331 640 304 c 0
 640 277 619 256 592 256 c 0
736 192 m 0
 736 174 722 160 704 160 c 0
 686 160 672 174 672 192 c 0
 672 210 686 224 704 224 c 0
 722 224 736 210 736 192 c 0
EndSplineSet
Ligature2: "'liga' Standard Ligatures in Latin lookup 0 subtable" l u n g s hyphen v i r u s
EndChar

StartChar: people-arrows
Encoding: 57448 57448 73
Width: 1280
Flags: HW
LayerCount: 2
Fore
SplineSet
128 768 m 0
 128 722 152 680 192 657 c 0
 232 634 280 634 320 657 c 0
 360 680 384 722 384 768 c 0
 384 814 360 856 320 879 c 0
 280 902 232 902 192 879 c 0
 152 856 128 814 128 768 c 0
52 429 m 2
 44 331 l 2
 39 271 75 218 128 199 c 1
 128 -32 l 2
 128 -85 171 -128 224 -128 c 2
 288 -128 l 2
 341 -128 384 -85 384 -32 c 2
 384 114 l 1
 289 209 l 2
 245 253 245 323 289 367 c 2
 417 495 l 2
 422 500 427 504 432 508 c 0
 403 549 355 576 301 576 c 2
 211 576 l 2
 128 576 59 512 52 429 c 2
896 768 m 0
 896 722 920 680 960 657 c 0
 1000 634 1048 634 1088 657 c 0
 1128 680 1152 722 1152 768 c 0
 1152 814 1128 856 1088 879 c 0
 1048 902 1000 902 960 879 c 0
 920 856 896 814 896 768 c 0
863 495 m 2
 991 367 l 2
 1035 323 1035 253 991 209 c 2
 896 114 l 1
 896 -32 l 2
 896 -85 939 -128 992 -128 c 2
 1056 -128 l 2
 1109 -128 1152 -85 1152 -32 c 2
 1152 199 l 1
 1205 218 1241 271 1236 331 c 2
 1228 429 l 2
 1221 512 1152 576 1069 576 c 2
 979 576 l 2
 925 576 877 549 848 508 c 0
 853 504 858 500 863 495 c 2
544 416 m 2
 544 435 532 453 514 460 c 0
 496 467 476 464 462 450 c 2
 334 322 l 2
 315 303 315 273 334 254 c 2
 462 126 l 2
 476 112 496 109 514 116 c 0
 532 123 544 141 544 160 c 2
 544 224 l 1
 736 224 l 1
 736 160 l 2
 736 141 748 123 766 116 c 0
 784 109 804 112 818 126 c 2
 946 254 l 2
 965 273 965 303 946 322 c 2
 818 450 l 2
 804 464 784 467 766 460 c 0
 748 453 736 435 736 416 c 2
 736 352 l 1
 544 352 l 1
 544 416 l 2
EndSplineSet
Ligature2: "'liga' Standard Ligatures in Latin lookup 0 subtable" p e o p l e hyphen a r r o w s
Ligature2: "'liga' Standard Ligatures in Latin lookup 0 subtable" p e o p l e hyphen a r r o w s hyphen l e f t hyphen r i g h t
EndChar

StartChar: plane-slash
Encoding: 57449 57449 74
Width: 1280
Flags: HW
LayerCount: 2
Fore
SplineSet
1029 512 m 2
 795 512 l 1
 594 864 l 2
 583 884 562 896 539 896 c 2
 426 896 l 2
 405 896 390 875 396 855 c 2
 476 573 l 1
 78 886 l 2
 57 902 26 899 10 878 c 0
 -6 857 -3 826 18 810 c 2
 1202 -118 l 2
 1223 -134 1254 -131 1270 -110 c 0
 1286 -89 1283 -58 1262 -42 c 2
 881 256 l 1
 1029 256 l 2
 1097 256 1216 312 1216 384 c 0
 1216 454 1097 512 1029 512 c 2
83 639 m 1
 72 635 64 624 64 612 c 0
 64 609 64 607 65 604 c 2
 128 384 l 1
 65 164 l 2
 64 161 64 159 64 156 c 0
 64 141 76 128 92 128 c 2
 176 128 l 2
 186 128 196 133 202 141 c 2
 288 256 l 1
 494 256 l 1
 396 -87 l 2
 390 -107 405 -128 426 -128 c 2
 539 -128 l 2
 562 -128 583 -116 594 -96 c 2
 725 133 l 1
 83 639 l 1
EndSplineSet
Ligature2: "'liga' Standard Ligatures in Latin lookup 0 subtable" p l a n e hyphen s l a s h
EndChar

StartChar: pump-medical
Encoding: 57450 57450 75
Width: 896
Flags: HW
LayerCount: 2
Fore
SplineSet
256 832 m 2
 256 867 285 896 320 896 c 2
 448 896 l 2
 483 896 512 867 512 832 c 1
 632 832 l 2
 674 832 715 815 745 785 c 2
 813 717 l 2
 838 692 838 652 813 627 c 0
 788 602 748 602 723 627 c 2
 655 695 l 2
 649 701 640 704 632 704 c 2
 512 704 l 1
 512 640 l 1
 256 640 l 1
 256 832 l 2
235 576 m 2
 533 576 l 2
 600 576 655 525 661 459 c 2
 698 11 l 2
 704 -64 645 -128 570 -128 c 2
 198 -128 l 2
 123 -128 64 -64 70 11 c 2
 107 459 l 2
 113 525 168 576 235 576 c 2
432 336 m 2
 432 363 411 384 384 384 c 0
 357 384 336 363 336 336 c 2
 336 272 l 1
 272 272 l 2
 245 272 224 251 224 224 c 0
 224 197 245 176 272 176 c 2
 336 176 l 1
 336 112 l 2
 336 85 357 64 384 64 c 0
 411 64 432 85 432 112 c 2
 432 176 l 1
 496 176 l 2
 523 176 544 197 544 224 c 0
 544 251 523 272 496 272 c 2
 432 272 l 1
 432 336 l 2
EndSplineSet
Ligature2: "'liga' Standard Ligatures in Latin lookup 0 subtable" p u m p hyphen m e d i c a l
EndChar

StartChar: pump-soap
Encoding: 57451 57451 76
Width: 896
Flags: HW
LayerCount: 2
Fore
SplineSet
256 832 m 2
 256 867 285 896 320 896 c 2
 448 896 l 2
 483 896 512 867 512 832 c 1
 632 832 l 2
 674 832 715 815 745 785 c 2
 813 717 l 2
 838 692 838 652 813 627 c 0
 788 602 748 602 723 627 c 2
 655 695 l 2
 649 701 640 704 632 704 c 2
 512 704 l 1
 512 640 l 1
 256 640 l 1
 256 832 l 2
235 576 m 2
 533 576 l 2
 600 576 655 525 661 459 c 2
 698 11 l 2
 704 -64 645 -128 570 -128 c 2
 198 -128 l 2
 123 -128 64 -64 70 11 c 2
 107 459 l 2
 113 525 168 576 235 576 c 2
512 176 m 0
 512 241 438 338 410 372 c 0
 404 380 394 384 384 384 c 0
 374 384 364 380 358 372 c 0
 330 338 256 241 256 176 c 0
 256 105 313 64 384 64 c 0
 455 64 512 105 512 176 c 0
EndSplineSet
Ligature2: "'liga' Standard Ligatures in Latin lookup 0 subtable" p u m p hyphen s o a p
EndChar

StartChar: shield-virus
Encoding: 57452 57452 77
Width: 1024
Flags: HW
LayerCount: 2
Fore
SplineSet
539 890 m 2
 915 730 l 2
 959 711 992 668 992 616 c 0
 991 418 910 55 565 -110 c 0
 532 -126 492 -126 459 -110 c 0
 114 55 33 418 32 616 c 0
 32 668 65 711 109 730 c 2
 485 890 l 2
 493 894 503 896 512 896 c 0
 521 896 531 894 539 890 c 2
512 672 m 0
 494 672 480 658 480 640 c 0
 480 574 401 541 354 588 c 0
 342 600 320 600 308 588 c 0
 296 576 296 554 308 542 c 0
 355 495 322 416 256 416 c 0
 238 416 224 402 224 384 c 0
 224 366 238 352 256 352 c 0
 322 352 355 273 308 226 c 0
 296 214 296 192 308 180 c 0
 320 168 342 168 354 180 c 0
 401 227 480 194 480 128 c 0
 480 110 494 96 512 96 c 0
 530 96 544 110 544 128 c 0
 544 194 623 227 670 180 c 0
 682 168 704 168 716 180 c 0
 728 192 728 214 716 226 c 0
 669 273 702 352 768 352 c 0
 786 352 800 366 800 384 c 0
 800 402 786 416 768 416 c 0
 702 416 669 495 716 542 c 0
 728 554 728 576 716 588 c 0
 704 600 682 600 670 588 c 0
 623 541 544 574 544 640 c 0
 544 658 530 672 512 672 c 0
464 384 m 0
 437 384 416 405 416 432 c 0
 416 459 437 480 464 480 c 0
 491 480 512 459 512 432 c 0
 512 405 491 384 464 384 c 0
608 320 m 0
 608 302 594 288 576 288 c 0
 558 288 544 302 544 320 c 0
 544 338 558 352 576 352 c 0
 594 352 608 338 608 320 c 0
EndSplineSet
Ligature2: "'liga' Standard Ligatures in Latin lookup 0 subtable" s h i e l d hyphen v i r u s
EndChar

StartChar: sink
Encoding: 57453 57453 78
Width: 1024
Flags: HW
LayerCount: 2
Fore
SplineSet
576 704 m 2
 576 320 l 1
 704 320 l 1
 704 368 l 2
 704 430 754 480 816 480 c 2
 928 480 l 2
 955 480 976 459 976 432 c 0
 976 405 955 384 928 384 c 2
 816 384 l 2
 807 384 800 377 800 368 c 2
 800 320 l 1
 960 320 l 2
 995 320 1024 291 1024 256 c 0
 1024 221 995 192 960 192 c 2
 512 192 l 1
 64 192 l 2
 29 192 0 221 0 256 c 0
 0 291 29 320 64 320 c 2
 224 320 l 1
 224 368 l 2
 224 377 217 384 208 384 c 2
 112 384 l 2
 85 384 64 405 64 432 c 0
 64 459 85 480 112 480 c 2
 208 480 l 2
 270 480 320 430 320 368 c 2
 320 320 l 1
 448 320 l 1
 448 704 l 2
 448 810 534 896 640 896 c 0
 746 896 832 810 832 704 c 0
 832 669 803 640 768 640 c 0
 733 640 704 669 704 704 c 0
 704 739 675 768 640 768 c 0
 605 768 576 739 576 704 c 2
960 64 m 2
 960 -42 874 -128 768 -128 c 2
 256 -128 l 2
 150 -128 64 -42 64 64 c 2
 64 128 l 1
 960 128 l 1
 960 64 l 2
EndSplineSet
Ligature2: "'liga' Standard Ligatures in Latin lookup 0 subtable" s i n k
EndChar

StartChar: soap
Encoding: 129532 129532 79
AltUni2: 00e06e.ffffffff.0
Width: 1024
Flags: HW
LayerCount: 2
Fore
SplineSet
416 704 m 0
 382 704 350 722 333 752 c 0
 316 782 316 818 333 848 c 0
 350 878 382 896 416 896 c 0
 450 896 482 878 499 848 c 0
 516 818 516 782 499 752 c 0
 482 722 450 704 416 704 c 0
640 384 m 0
 594 384 552 408 529 448 c 0
 506 488 506 536 529 576 c 0
 552 616 594 640 640 640 c 0
 686 640 728 616 751 576 c 0
 774 536 774 488 751 448 c 0
 728 408 686 384 640 384 c 0
832 832 m 0
 832 797 803 768 768 768 c 0
 733 768 704 797 704 832 c 0
 704 867 733 896 768 896 c 0
 803 896 832 867 832 832 c 0
832 512 m 1
 938 512 1024 426 1024 320 c 2
 1024 64 l 2
 1024 -42 938 -128 832 -128 c 2
 192 -128 l 2
 86 -128 0 -42 0 64 c 2
 0 320 l 2
 0 426 86 512 192 512 c 2
 448 512 l 1
 448 463 467 418 497 384 c 1
 320 384 l 2
 214 384 128 298 128 192 c 0
 128 86 214 0 320 0 c 2
 704 0 l 2
 810 0 896 86 896 192 c 0
 896 274 844 345 771 372 c 1
 808 407 832 457 832 512 c 1
320 320 m 2
 640 320 l 1
 704 320 l 2
 775 320 832 263 832 192 c 0
 832 121 775 64 704 64 c 2
 320 64 l 2
 249 64 192 121 192 192 c 0
 192 263 249 320 320 320 c 2
EndSplineSet
Ligature2: "'liga' Standard Ligatures in Latin lookup 0 subtable" s o a p
EndChar

StartChar: stopwatch-20
Encoding: 57455 57455 80
Width: 896
Flags: HW
LayerCount: 2
Fore
SplineSet
352 896 m 2
 544 896 l 2
 579 896 608 867 608 832 c 0
 608 797 579 768 544 768 c 2
 512 768 l 1
 512 699 l 1
 587 687 655 656 711 610 c 1
 755 653 l 2
 780 678 820 678 845 653 c 0
 870 628 870 588 845 563 c 2
 797 514 l 1
 839 449 864 372 864 288 c 0
 864 58 678 -128 448 -128 c 0
 218 -128 32 58 32 288 c 0
 32 496 185 668 384 699 c 1
 384 768 l 1
 352 768 l 2
 317 768 288 797 288 832 c 0
 288 867 317 896 352 896 c 2
576 488 m 0
 519 488 472 441 472 384 c 2
 472 192 l 2
 472 135 519 88 576 88 c 0
 633 88 680 135 680 192 c 2
 680 384 l 2
 680 441 633 488 576 488 c 0
552 384 m 2
 552 397 563 408 576 408 c 0
 589 408 600 397 600 384 c 2
 600 192 l 2
 600 179 589 168 576 168 c 0
 563 168 552 179 552 192 c 2
 552 384 l 2
319 408 m 0
 333 408 344 397 344 383 c 2
 344 379 l 2
 344 372 342 364 337 359 c 2
 259 271 l 2
 232 240 216 201 216 160 c 2
 216 128 l 2
 216 106 234 88 256 88 c 2
 384 88 l 2
 406 88 424 106 424 128 c 0
 424 150 406 168 384 168 c 2
 297 168 l 1
 299 186 306 204 318 218 c 2
 396 306 l 2
 414 326 424 352 424 379 c 2
 424 383 l 2
 424 441 377 488 319 488 c 0
 274 488 233 459 219 416 c 2
 218 413 l 2
 211 392 222 369 243 362 c 0
 264 355 287 366 294 387 c 2
 295 391 l 2
 298 401 308 408 319 408 c 0
EndSplineSet
Ligature2: "'liga' Standard Ligatures in Latin lookup 0 subtable" s t o p w a t c h hyphen 2 0
EndChar

StartChar: shop-slash
Encoding: 57456 57456 81
Width: 1280
Flags: HW
LayerCount: 2
Fore
SplineSet
78 886 m 2
 148 830 l 1
 164 853 l 2
 182 880 211 896 243 896 c 2
 1037 896 l 2
 1069 896 1098 880 1116 853 c 2
 1267 626 l 2
 1275 614 1280 601 1280 586 c 0
 1280 545 1247 512 1206 512 c 2
 554 512 l 1
 640 445 l 1
 640 448 l 1
 768 448 l 1
 768 345 l 1
 1024 144 l 1
 1024 448 l 1
 1152 448 l 1
 1152 44 l 1
 1262 -42 l 2
 1283 -58 1286 -89 1270 -110 c 0
 1254 -131 1223 -134 1202 -118 c 2
 18 810 l 2
 -3 826 -6 857 10 878 c 0
 26 899 57 902 78 886 c 2
74 512 m 2
 33 512 0 545 0 586 c 0
 0 600 4 615 12 627 c 2
 42 671 l 1
 244 512 l 1
 74 512 l 2
640 128 m 1
 640 200 l 1
 768 99 l 1
 768 -32 l 2
 768 -85 725 -128 672 -128 c 2
 224 -128 l 2
 171 -128 128 -85 128 -32 c 2
 128 128 l 1
 128 448 l 1
 256 448 l 1
 256 128 l 1
 640 128 l 1
EndSplineSet
Ligature2: "'liga' Standard Ligatures in Latin lookup 0 subtable" s h o p hyphen s l a s h
Ligature2: "'liga' Standard Ligatures in Latin lookup 0 subtable" s t o r e hyphen a l t hyphen s l a s h
EndChar

StartChar: store-slash
Encoding: 57457 57457 82
Width: 1280
Flags: HW
LayerCount: 2
Fore
SplineSet
78 886 m 2
 190 798 l 1
 235 870 l 2
 245 886 264 896 283 896 c 2
 997 896 l 2
 1016 896 1035 886 1045 870 c 2
 1160 688 l 2
 1219 594 1166 465 1055 450 c 0
 1047 449 1039 448 1031 448 c 0
 979 448 933 471 901 506 c 1
 869 471 822 448 770 448 c 0
 718 448 672 471 640 506 c 1
 629 494 616 484 602 475 c 1
 960 194 l 1
 960 395 l 1
 982 388 1006 384 1031 384 c 0
 1042 384 1052 385 1063 386 c 0
 1063 386 l 2
 1072 387 1080 389 1088 391 c 1
 1088 128 l 1
 1088 94 l 1
 1262 -42 l 2
 1283 -58 1286 -89 1270 -110 c 0
 1254 -131 1223 -134 1202 -118 c 2
 18 810 l 2
 -3 826 -6 857 10 878 c 0
 26 899 57 902 78 886 c 2
224 450 m 0
 136 462 86 546 98 627 c 1
 311 459 l 1
 292 452 271 448 249 448 c 0
 241 448 232 449 224 450 c 0
320 128 m 1
 731 128 l 1
 1030 -107 l 1
 1010 -120 986 -128 960 -128 c 2
 320 -128 l 2
 249 -128 192 -71 192 0 c 2
 192 128 l 1
 192 391 l 1
 200 389 208 387 216 386 c 2
 216 386 l 2
 227 385 238 384 249 384 c 0
 274 384 298 388 320 395 c 1
 320 128 l 1
EndSplineSet
Ligature2: "'liga' Standard Ligatures in Latin lookup 0 subtable" s t o r e hyphen s l a s h
EndChar

StartChar: toilet-paper-slash
Encoding: 57458 57458 83
Width: 1280
Flags: HW
LayerCount: 2
Fore
SplineSet
78 886 m 2
 191 797 l 1
 225 859 270 896 320 896 c 2
 888 896 l 1
 794 797 768 643 768 512 c 0
 768 453 766 399 763 349 c 1
 881 256 l 1
 851 324 832 414 832 512 c 0
 832 724 918 896 1024 896 c 0
 1130 896 1216 724 1216 512 c 0
 1216 312 1140 148 1042 130 c 1
 1262 -42 l 2
 1283 -58 1286 -89 1270 -110 c 0
 1254 -131 1223 -134 1202 -118 c 2
 18 810 l 2
 -3 826 -6 857 10 878 c 0
 26 899 57 902 78 886 c 2
735 125 m 1
 735 125 l 1
 718 38 698 -21 683 -56 c 0
 663 -104 617 -128 572 -128 c 2
 96 -128 l 2
 73 -128 51 -116 40 -96 c 0
 29 -76 29 -51 41 -31 c 0
 61 5 72 45 82 84 c 0
 105 170 128 309 128 512 c 0
 128 542 130 571 133 599 c 1
 735 125 l 1
1088 512 m 0
 1088 583 1059 640 1024 640 c 0
 989 640 960 583 960 512 c 0
 960 441 989 384 1024 384 c 0
 1059 384 1088 441 1088 512 c 0
EndSplineSet
Ligature2: "'liga' Standard Ligatures in Latin lookup 0 subtable" t o i l e t hyphen p a p e r hyphen s l a s h
EndChar

StartChar: users-slash
Encoding: 57459 57459 84
Width: 1280
Flags: HW
LayerCount: 2
Fore
SplineSet
78 886 m 2
 155 825 l 1
 184 868 233 896 288 896 c 0
 376 896 448 824 448 736 c 0
 448 694 432 656 406 628 c 1
 487 565 l 1
 522 611 578 640 640 640 c 0
 746 640 832 554 832 448 c 0
 832 402 816 361 789 328 c 1
 840 288 l 1
 875 332 896 388 896 448 c 0
 896 463 895 479 892 493 c 1
 919 505 949 512 981 512 c 2
 1067 512 l 2
 1185 512 1280 417 1280 299 c 0
 1280 276 1261 256 1237 256 c 2
 881 256 l 1
 1262 -42 l 2
 1283 -58 1286 -89 1270 -110 c 0
 1254 -131 1223 -134 1202 -118 c 2
 18 810 l 2
 -3 826 -6 857 10 878 c 0
 26 899 57 902 78 886 c 2
213 512 m 1
 213 512 l 1
 244 512 l 1
 389 398 l 1
 400 342 430 292 471 256 c 1
 470 256 469 256 469 256 c 2
 43 256 l 2
 20 256 0 276 0 299 c 0
 0 417 95 512 213 512 c 1
523 192 m 2
 650 192 l 1
 1019 -98 l 1
 1010 -116 992 -128 971 -128 c 2
 309 -128 l 2
 279 -128 256 -104 256 -75 c 0
 256 72 376 192 523 192 c 2
1024 576 m 0
 967 576 914 606 885 656 c 0
 856 706 856 766 885 816 c 0
 914 866 967 896 1024 896 c 0
 1081 896 1134 866 1163 816 c 0
 1192 766 1192 706 1163 656 c 0
 1134 606 1081 576 1024 576 c 0
EndSplineSet
Ligature2: "'liga' Standard Ligatures in Latin lookup 0 subtable" u s e r s hyphen s l a s h
EndChar

StartChar: virus
Encoding: 57460 57460 85
Width: 1024
Flags: HW
LayerCount: 2
Fore
SplineSet
576 832 m 2
 576 809 l 2
 576 709 696 659 767 730 c 2
 784 746 l 2
 809 771 849 771 874 746 c 0
 899 721 899 681 874 656 c 2
 858 639 l 2
 787 568 837 448 937 448 c 2
 960 448 l 2
 995 448 1024 419 1024 384 c 0
 1024 349 995 320 960 320 c 2
 937 320 l 2
 837 320 787 200 858 129 c 2
 874 112 l 2
 899 87 899 47 874 22 c 0
 849 -3 809 -3 784 22 c 2
 767 38 l 2
 696 109 576 59 576 -41 c 2
 576 -64 l 2
 576 -99 547 -128 512 -128 c 0
 477 -128 448 -99 448 -64 c 2
 448 -41 l 2
 448 59 328 109 257 38 c 2
 241 22 l 2
 216 -3 175 -3 150 22 c 0
 125 47 125 87 150 112 c 2
 166 129 l 2
 237 200 187 320 87 320 c 2
 64 320 l 2
 29 320 0 349 0 384 c 0
 0 419 29 448 64 448 c 2
 87 448 l 2
 187 448 236 569 166 639 c 2
 150 655 l 2
 125 680 125 721 150 746 c 0
 175 771 215 771 240 746 c 2
 257 730 l 2
 328 659 448 709 448 809 c 2
 448 832 l 2
 448 867 477 896 512 896 c 0
 547 896 576 867 576 832 c 2
352 448 m 0
 352 414 370 382 400 365 c 0
 430 348 466 348 496 365 c 0
 526 382 544 414 544 448 c 0
 544 482 526 514 496 531 c 0
 466 548 430 548 400 531 c 0
 370 514 352 482 352 448 c 0
608 336 m 0
 581 336 560 315 560 288 c 0
 560 261 581 240 608 240 c 0
 635 240 656 261 656 288 c 0
 656 315 635 336 608 336 c 0
EndSplineSet
Ligature2: "'liga' Standard Ligatures in Latin lookup 0 subtable" v i r u s
EndChar

StartChar: virus-slash
Encoding: 57461 57461 86
Width: 1280
Flags: HW
LayerCount: 2
Fore
SplineSet
78 886 m 2
 269 735 l 1
 271 739 275 743 278 746 c 0
 303 771 343 771 368 746 c 2
 385 730 l 2
 456 659 576 709 576 809 c 2
 576 832 l 2
 576 867 605 896 640 896 c 0
 675 896 704 867 704 832 c 2
 704 809 l 2
 704 709 824 659 895 730 c 2
 912 746 l 2
 937 771 977 771 1002 746 c 0
 1027 721 1027 681 1002 656 c 2
 986 639 l 2
 915 568 965 448 1065 448 c 2
 1088 448 l 2
 1123 448 1152 419 1152 384 c 0
 1152 349 1123 320 1088 320 c 2
 1065 320 l 2
 995 320 949 260 953 200 c 1
 1262 -42 l 2
 1283 -58 1286 -89 1270 -110 c 0
 1254 -131 1223 -134 1202 -118 c 2
 18 810 l 2
 -3 826 -6 857 10 878 c 0
 26 899 57 902 78 886 c 2
529 532 m 1
 669 423 l 1
 671 431 672 439 672 448 c 0
 672 501 629 544 576 544 c 0
 559 544 543 540 529 532 c 1
804 71 m 1
 804 70 l 1
 751 64 704 21 704 -41 c 2
 704 -64 l 2
 704 -99 675 -128 640 -128 c 0
 605 -128 576 -99 576 -64 c 2
 576 -41 l 2
 576 59 456 109 385 38 c 2
 368 22 l 2
 343 -3 303 -3 278 22 c 0
 253 47 253 87 278 112 c 2
 294 129 l 2
 365 200 315 320 215 320 c 2
 192 320 l 2
 157 320 128 349 128 384 c 0
 128 419 157 448 192 448 c 2
 215 448 l 2
 245 448 270 459 289 476 c 1
 804 71 l 1
804 71 m 1024
EndSplineSet
Ligature2: "'liga' Standard Ligatures in Latin lookup 0 subtable" v i r u s hyphen s l a s h
EndChar

StartChar: viruses
Encoding: 57462 57462 87
Width: 1280
Flags: HW
LayerCount: 2
Fore
SplineSet
384 896 m 0
 357 896 336 875 336 848 c 2
 336 821 l 2
 336 750 249 714 199 764 c 2
 180 783 l 2
 161 802 132 802 113 783 c 0
 94 764 94 735 113 716 c 2
 132 697 l 2
 182 647 146 560 75 560 c 2
 48 560 l 2
 21 560 0 539 0 512 c 0
 0 485 21 464 48 464 c 2
 75 464 l 2
 146 464 182 377 132 327 c 2
 113 308 l 2
 94 289 94 260 113 241 c 0
 132 222 161 222 180 241 c 2
 199 260 l 2
 249 310 336 274 336 203 c 2
 336 176 l 2
 336 149 357 128 384 128 c 0
 411 128 432 149 432 176 c 2
 432 203 l 2
 432 274 519 310 569 260 c 2
 588 241 l 2
 607 222 636 222 655 241 c 0
 674 260 674 289 655 308 c 2
 636 327 l 2
 586 377 622 464 693 464 c 2
 720 464 l 2
 747 464 768 485 768 512 c 0
 768 539 747 560 720 560 c 2
 693 560 l 2
 622 560 586 647 636 697 c 2
 655 716 l 2
 674 735 674 764 655 783 c 0
 636 802 607 802 588 783 c 2
 569 764 l 2
 519 714 432 750 432 821 c 2
 432 848 l 2
 432 875 411 896 384 896 c 0
480 448 m 0
 462 448 448 462 448 480 c 0
 448 498 462 512 480 512 c 0
 498 512 512 498 512 480 c 0
 512 462 498 448 480 448 c 0
384 576 m 0
 384 541 355 512 320 512 c 0
 285 512 256 541 256 576 c 0
 256 611 285 640 320 640 c 0
 355 640 384 611 384 576 c 0
1024 416 m 0
 1024 434 1010 448 992 448 c 0
 974 448 960 434 960 416 c 0
 960 350 881 317 834 364 c 0
 822 376 800 376 788 364 c 0
 776 352 776 330 788 318 c 0
 835 271 802 192 736 192 c 0
 718 192 704 178 704 160 c 0
 704 142 718 128 736 128 c 0
 802 128 835 49 788 2 c 0
 776 -10 776 -32 788 -44 c 0
 800 -56 822 -56 834 -44 c 0
 881 3 960 -30 960 -96 c 0
 960 -114 974 -128 992 -128 c 0
 1010 -128 1024 -114 1024 -96 c 0
 1024 -30 1103 3 1150 -44 c 0
 1162 -56 1184 -56 1196 -44 c 0
 1208 -32 1208 -10 1196 2 c 0
 1149 49 1182 128 1248 128 c 0
 1266 128 1280 142 1280 160 c 0
 1280 178 1266 192 1248 192 c 0
 1182 192 1149 271 1196 318 c 0
 1208 330 1208 352 1196 364 c 0
 1184 376 1162 376 1150 364 c 0
 1103 317 1024 350 1024 416 c 0
1024 192 m 0
 1024 157 995 128 960 128 c 0
 925 128 896 157 896 192 c 0
 896 227 925 256 960 256 c 0
 995 256 1024 227 1024 192 c 0
EndSplineSet
Ligature2: "'liga' Standard Ligatures in Latin lookup 0 subtable" v i r u s e s
EndChar

StartChar: vest
Encoding: 57477 57477 88
Width: 896
Flags: HW
LayerCount: 2
Fore
SplineSet
414 421 m 1
 392 355 l 2
 387 339 384 321 384 304 c 2
 384 -32 l 2
 384 -61 391 -89 405 -112 c 1
 390 -122 372 -128 352 -128 c 2
 96 -128 l 2
 43 -128 0 -85 -0 -32 c 2
 -0 355 l 2
 0 374 5 392 16 408 c 2
 112 552 l 2
 123 568 128 586 128 605 c 2
 128 640 l 1
 128 787 l 1
 128 800 l 2
 128 853 171 896 224 896 c 2
 233 896 l 2
 234 896 l 0
 235 896 236 896 237 896 c 0
 274 896 305 876 325 858 c 0
 344 841 382 816 448 816 c 0
 514 816 552 841 571 858 c 0
 591 876 622 896 659 896 c 0
 660 896 661 896 662 896 c 0
 663 896 l 2
 672 896 l 2
 725 896 768 853 768 800 c 2
 768 787 l 1
 768 640 l 1
 768 605 l 2
 768 586 773 568 784 552 c 2
 880 408 l 2
 891 392 896 374 896 355 c 2
 896 -32 l 2
 896 -85 853 -128 800 -128 c 2
 544 -128 l 2
 491 -128 448 -85 448 -32 c 2
 448 304 l 2
 448 314 450 325 453 335 c 2
 594 757 l 1
 559 737 511 720 448 720 c 0
 385 720 337 737 302 757 c 1
 414 421 l 1
695 183 m 2
 683 195 661 195 649 183 c 0
 637 171 637 149 649 137 c 2
 745 41 l 2
 757 29 779 29 791 41 c 0
 803 53 803 75 791 87 c 2
 695 183 l 2
105 87 m 2
 93 75 93 53 105 41 c 0
 117 29 139 29 151 41 c 2
 247 137 l 2
 259 149 259 171 247 183 c 0
 235 195 213 195 201 183 c 2
 105 87 l 2
EndSplineSet
Ligature2: "'liga' Standard Ligatures in Latin lookup 0 subtable" v e s t
EndChar

StartChar: vest-patches
Encoding: 57478 57478 89
Width: 896
Flags: HW
LayerCount: 2
Fore
SplineSet
302 757 m 1
 337 737 385 720 448 720 c 0
 511 720 559 737 594 757 c 1
 453 335 l 2
 450 325 448 314 448 304 c 2
 448 -32 l 2
 448 -85 491 -128 544 -128 c 2
 800 -128 l 2
 853 -128 896 -85 896 -32 c 2
 896 355 l 2
 896 374 891 392 880 408 c 2
 784 552 l 2
 773 568 768 586 768 605 c 2
 768 640 l 1
 768 787 l 1
 768 800 l 2
 768 853 725 896 672 896 c 2
 663 896 l 2
 662 896 l 0
 661 896 660 896 659 896 c 0
 622 896 591 876 571 858 c 0
 552 841 514 816 448 816 c 0
 382 816 343 841 325 858 c 0
 305 876 275 896 237 896 c 0
 236 896 235 896 234 896 c 0
 233 896 l 2
 224 896 l 2
 171 896 128 853 128 800 c 2
 128 787 l 1
 128 640 l 1
 128 605 l 2
 128 586 123 568 112 552 c 2
 16 408 l 2
 5 392 0 374 0 355 c 2
 0 -32 l 2
 0 -85 43 -128 96 -128 c 2
 352 -128 l 2
 372 -128 390 -122 405 -112 c 1
 391 -89 384 -61 384 -32 c 2
 384 304 l 2
 384 321 387 339 392 355 c 2
 414 421 l 1
 302 757 l 1
192 -16 m 0
 163 -16 137 -1 123 24 c 0
 109 49 109 79 123 104 c 0
 137 129 163 144 192 144 c 0
 221 144 247 129 261 104 c 0
 275 79 275 49 261 24 c 0
 247 -1 221 -16 192 -16 c 0
127 385 m 0
 136 394 152 394 161 385 c 2
 192 354 l 1
 223 385 l 2
 232 394 248 394 257 385 c 0
 266 376 266 360 257 351 c 2
 226 320 l 1
 257 289 l 2
 266 280 266 264 257 255 c 0
 248 246 232 246 223 255 c 2
 192 286 l 1
 161 255 l 2
 152 246 136 246 127 255 c 0
 118 264 118 280 127 289 c 2
 158 320 l 1
 127 351 l 2
 118 360 118 376 127 385 c 0
608 336 m 2
 608 363 629 384 656 384 c 0
 683 384 704 363 704 336 c 2
 704 320 l 1
 720 320 l 2
 747 320 768 299 768 272 c 0
 768 245 747 224 720 224 c 2
 704 224 l 1
 640 224 l 2
 622 224 608 238 608 256 c 2
 608 320 l 1
 608 336 l 2
EndSplineSet
Ligature2: "'liga' Standard Ligatures in Latin lookup 0 subtable" v e s t hyphen p a t c h e s
EndChar

StartChar: arrow-trend-down
Encoding: 57495 57495 90
Width: 1152
Flags: HW
LayerCount: 2
Fore
SplineSet
768 192 m 2
 933 192 l 1
 640 485 l 1
 429 275 l 2
 404 250 364 250 339 275 c 2
 19 595 l 2
 -6 620 -6 660 19 685 c 0
 44 710 84 710 109 685 c 2
 384 411 l 1
 595 621 l 2
 620 646 660 646 685 621 c 2
 1024 283 l 1
 1024 448 l 2
 1024 483 1053 512 1088 512 c 0
 1123 512 1152 483 1152 448 c 2
 1152 128 l 2
 1152 93 1123 64 1088 64 c 2
 768 64 l 2
 733 64 704 93 704 128 c 0
 704 163 733 192 768 192 c 2
EndSplineSet
Ligature2: "'liga' Standard Ligatures in Latin lookup 0 subtable" a r r o w hyphen t r e n d hyphen d o w n
EndChar

StartChar: arrow-trend-up
Encoding: 57496 57496 91
Width: 1152
Flags: HW
LayerCount: 2
Fore
SplineSet
768 576 m 2
 933 576 l 1
 640 283 l 1
 429 493 l 2
 404 518 364 518 339 493 c 2
 19 173 l 2
 -6 148 -6 108 19 83 c 0
 44 58 84 58 109 83 c 2
 384 357 l 1
 595 147 l 2
 620 122 660 122 685 147 c 2
 1024 485 l 1
 1024 320 l 2
 1024 285 1053 256 1088 256 c 0
 1123 256 1152 285 1152 320 c 2
 1152 640 l 2
 1152 675 1123 704 1088 704 c 2
 768 704 l 2
 733 704 704 675 704 640 c 0
 704 605 733 576 768 576 c 2
EndSplineSet
Ligature2: "'liga' Standard Ligatures in Latin lookup 0 subtable" a r r o w hyphen t r e n d hyphen u p
EndChar

StartChar: arrow-up-from-bracket
Encoding: 57498 57498 92
Width: 896
Flags: HW
LayerCount: 2
Fore
SplineSet
493 877 m 1
 493 877 l 1
 749 621 l 2
 774 596 774 556 749 531 c 0
 724 506 684 506 659 531 c 2
 512 677 l 1
 512 256 l 2
 512 221 483 192 448 192 c 0
 413 192 384 221 384 256 c 2
 384 677 l 1
 237 531 l 2
 212 506 172 506 147 531 c 0
 122 556 122 596 147 621 c 2
 403 877 l 2
 428 902 468 902 493 877 c 1
128 192 m 2
 128 64 l 2
 128 29 157 0 192 0 c 2
 704 0 l 2
 739 0 768 29 768 64 c 2
 768 192 l 2
 768 227 797 256 832 256 c 0
 867 256 896 227 896 192 c 2
 896 64 l 2
 896 -42 810 -128 704 -128 c 2
 192 -128 l 2
 86 -128 0 -42 0 64 c 2
 0 192 l 2
 0 227 29 256 64 256 c 0
 99 256 128 227 128 192 c 2
EndSplineSet
Ligature2: "'liga' Standard Ligatures in Latin lookup 0 subtable" a r r o w hyphen u p hyphen f r o m hyphen b r a c k e t
EndChar

StartChar: austral-sign
Encoding: 57513 57513 93
Width: 896
Flags: HW
LayerCount: 2
Fore
SplineSet
507 793 m 2
 651 448 l 1
 832 448 l 2
 867 448 896 419 896 384 c 0
 896 349 867 320 832 320 c 2
 704 320 l 1
 731 256 l 1
 832 256 l 2
 867 256 896 227 896 192 c 0
 896 157 867 128 832 128 c 2
 784 128 l 1
 827 25 l 2
 841 -8 825 -45 792 -59 c 0
 759 -73 723 -58 709 -25 c 2
 645 128 l 1
 251 128 l 1
 187 -25 l 2
 173 -58 136 -73 103 -59 c 0
 70 -45 55 -8 69 25 c 2
 112 128 l 1
 64 128 l 2
 29 128 0 157 -0 192 c 0
 0 227 29 256 64 256 c 2
 165 256 l 1
 192 320 l 1
 64 320 l 2
 29 320 0 349 -0 384 c 0
 0 419 29 448 64 448 c 2
 245 448 l 1
 389 793 l 2
 399 817 422 832 448 832 c 0
 474 832 497 817 507 793 c 2
512 448 m 1
 448 602 l 1
 384 448 l 1
 512 448 l 1
331 320 m 1
 304 256 l 1
 592 256 l 1
 565 320 l 1
 331 320 l 1
EndSplineSet
Ligature2: "'liga' Standard Ligatures in Latin lookup 0 subtable" a u s t r a l hyphen s i g n
EndChar

StartChar: baht-sign
Encoding: 57516 57516 94
Width: 640
Flags: HW
LayerCount: 2
Fore
SplineSet
288 896 m 0
 323 896 352 867 352 832 c 2
 352 768 l 1
 476 768 576 668 576 544 c 0
 576 496 561 451 535 414 c 1
 598 374 640 304 640 224 c 0
 640 100 540 0 416 0 c 2
 352 0 l 1
 352 -64 l 2
 352 -99 323 -128 288 -128 c 0
 253 -128 224 -99 224 -64 c 2
 224 0 l 1
 83 0 l 2
 37 0 0 37 0 83 c 2
 0 320 l 1
 0 365 l 1
 0 448 l 1
 0 693 l 2
 0 735 33 768 75 768 c 2
 224 768 l 1
 224 832 l 2
 224 867 253 896 288 896 c 0
224 640 m 1
 128 640 l 1
 128 448 l 1
 224 448 l 1
 224 640 l 1
352 448 m 1
 405 448 448 491 448 544 c 0
 448 597 405 640 352 640 c 1
 352 448 l 1
224 320 m 1
 128 320 l 1
 128 128 l 1
 224 128 l 1
 224 320 l 1
352 128 m 1
 416 128 l 2
 469 128 512 171 512 224 c 0
 512 277 469 320 416 320 c 2
 352 320 l 1
 352 128 l 1
EndSplineSet
Ligature2: "'liga' Standard Ligatures in Latin lookup 0 subtable" b a h t hyphen s i g n
EndChar

StartChar: bitcoin-sign
Encoding: 57524 57524 95
Width: 640
Flags: HW
LayerCount: 2
Fore
SplineSet
96 832 m 2
 96 768 l 1
 75 768 l 2
 33 768 0 735 0 693 c 2
 0 448 l 1
 0 365 l 1
 0 320 l 1
 0 83 l 2
 0 37 37 0 83 -0 c 2
 96 -0 l 1
 96 -64 l 2
 96 -99 125 -128 160 -128 c 0
 195 -128 224 -99 224 -64 c 2
 224 -0 l 1
 288 -0 l 1
 288 -64 l 2
 288 -99 317 -128 352 -128 c 0
 387 -128 416 -99 416 -64 c 2
 416 -0 l 1
 540 0 640 100 640 224 c 0
 640 304 598 374 535 414 c 1
 561 451 576 496 576 544 c 0
 576 646 508 732 415 759 c 0
 415 762 416 765 416 768 c 2
 416 832 l 2
 416 867 387 896 352 896 c 0
 317 896 288 867 288 832 c 2
 288 768 l 1
 224 768 l 1
 224 832 l 2
 224 867 195 896 160 896 c 0
 125 896 96 867 96 832 c 2
128 448 m 1
 128 640 l 1
 352 640 l 2
 405 640 448 597 448 544 c 0
 448 491 405 448 352 448 c 2
 128 448 l 1
352 320 m 1
 416 320 l 2
 469 320 512 277 512 224 c 0
 512 171 469 128 416 128 c 2
 128 128 l 1
 128 320 l 1
 352 320 l 1
EndSplineSet
Ligature2: "'liga' Standard Ligatures in Latin lookup 0 subtable" b i t c o i n hyphen s i g n
EndChar

StartChar: bolt-lightning
Encoding: 57527 57527 96
Width: 768
Flags: HW
LayerCount: 2
Fore
SplineSet
0 384 m 2
 0 349 29 320 64 320 c 2
 352 320 l 1
 258 -57 l 2
 257 -62 256 -66 256 -71 c 0
 256 -102 282 -128 313 -128 c 2
 319 -128 l 2
 340 -128 359 -118 371 -101 c 2
 755 461 l 2
 763 473 768 488 768 503 c 0
 768 544 735 576 695 576 c 2
 416 576 l 1
 509 823 l 2
 511 829 512 836 512 842 c 0
 512 872 488 896 458 896 c 2
 121 896 l 2
 89 896 61 872 57 840 c 2
 0 384 l 2
EndSplineSet
Ligature2: "'liga' Standard Ligatures in Latin lookup 0 subtable" b o l t hyphen l i g h t n i n g
EndChar

StartChar: book-bookmark
Encoding: 57531 57531 97
Width: 896
Flags: HW
LayerCount: 2
Fore
SplineSet
0 704 m 2
 0 64 l 2
 0 -42 86 -128 192 -128 c 2
 768 -128 l 1
 832 -128 l 2
 867 -128 896 -99 896 -64 c 0
 896 -29 867 0 832 0 c 1
 832 128 l 1
 867 128 896 157 896 192 c 2
 896 832 l 2
 896 867 867 896 832 896 c 2
 768 896 l 1
 704 896 l 1
 704 515 l 2
 704 488 673 473 652 490 c 2
 544 576 l 1
 436 490 l 2
 415 473 384 488 384 515 c 2
 384 896 l 1
 192 896 l 2
 86 896 0 810 0 704 c 2
128 64 m 0
 128 99 157 128 192 128 c 2
 704 128 l 1
 704 0 l 1
 192 0 l 2
 157 0 128 29 128 64 c 0
EndSplineSet
Ligature2: "'liga' Standard Ligatures in Latin lookup 0 subtable" b o o k hyphen b o o k m a r k
EndChar

StartChar: camera-rotate
Encoding: 57560 57560 98
Width: 1280
Flags: HW
LayerCount: 2
Fore
SplineSet
426 766 m 2
 439 805 476 832 517 832 c 2
 763 832 l 2
 804 832 841 805 854 766 c 2
 875 704 l 1
 1024 704 l 2
 1095 704 1152 647 1152 576 c 2
 1152 64 l 2
 1152 -7 1095 -64 1024 -64 c 2
 256 -64 l 2
 185 -64 128 -7 128 64 c 2
 128 576 l 2
 128 647 185 704 256 704 c 2
 405 704 l 1
 426 766 l 2
896 384 m 2
 896 537 l 2
 896 549 885 560 873 560 c 0
 867 560 861 557 857 553 c 2
 810 506 l 1
 765 551 704 576 640 576 c 0
 576 576 515 550 470 505 c 2
 430 466 l 2
 411 447 411 417 430 398 c 0
 449 379 479 379 498 398 c 2
 537 437 l 2
 564 464 602 480 640 480 c 0
 678 480 715 465 742 438 c 1
 695 391 l 2
 691 387 688 381 688 375 c 0
 688 363 699 352 711 352 c 2
 864 352 l 2
 882 352 896 366 896 384 c 2
384 256 m 2
 384 103 l 2
 384 91 395 80 407 80 c 0
 413 80 419 83 423 87 c 2
 470 134 l 1
 515 89 576 64 640 64 c 0
 704 64 765 90 810 135 c 2
 850 174 l 2
 869 193 869 223 850 242 c 0
 831 261 801 261 782 242 c 2
 743 203 l 2
 716 176 678 160 640 160 c 0
 602 160 565 175 538 202 c 1
 585 249 l 2
 589 253 592 259 592 265 c 0
 592 277 581 288 569 288 c 2
 416 288 l 2
 398 288 384 274 384 256 c 2
EndSplineSet
Ligature2: "'liga' Standard Ligatures in Latin lookup 0 subtable" c a m e r a hyphen r o t a t e
EndChar

StartChar: cedi-sign
Encoding: 57567 57567 99
Width: 768
Flags: HW
LayerCount: 2
Fore
SplineSet
512 832 m 2
 512 763 l 1
 574 753 630 727 678 691 c 0
 706 670 712 630 691 602 c 0
 670 574 630 568 602 589 c 0
 576 609 545 624 512 632 c 1
 512 136 l 1
 545 145 576 159 602 179 c 0
 630 200 670 195 691 167 c 0
 712 139 706 98 678 77 c 0
 630 41 574 15 512 5 c 1
 512 -64 l 2
 512 -99 483 -128 448 -128 c 0
 413 -128 384 -99 384 -64 c 2
 384 5 l 1
 202 35 64 194 64 384 c 0
 64 574 202 733 384 763 c 1
 384 832 l 2
 384 867 413 896 448 896 c 0
 483 896 512 867 512 832 c 2
384 632 m 1
 274 604 192 503 192 384 c 0
 192 265 274 164 384 136 c 1
 384 632 l 1
EndSplineSet
Ligature2: "'liga' Standard Ligatures in Latin lookup 0 subtable" c e d i hyphen s i g n
EndChar

StartChar: chart-column
Encoding: 57571 57571 100
Width: 1024
Flags: HW
LayerCount: 2
Fore
SplineSet
64 832 m 0
 29 832 0 803 0 768 c 2
 0 96 l 2
 0 8 72 -64 160 -64 c 2
 960 -64 l 2
 995 -64 1024 -35 1024 0 c 0
 1024 35 995 64 960 64 c 2
 160 64 l 2
 142 64 128 78 128 96 c 2
 128 768 l 2
 128 803 99 832 64 832 c 0
320 448 m 0
 285 448 256 419 256 384 c 2
 256 256 l 2
 256 221 285 192 320 192 c 0
 355 192 384 221 384 256 c 2
 384 384 l 2
 384 419 355 448 320 448 c 0
576 576 m 2
 576 611 547 640 512 640 c 0
 477 640 448 611 448 576 c 2
 448 256 l 2
 448 221 477 192 512 192 c 0
 547 192 576 221 576 256 c 2
 576 576 l 2
704 512 m 0
 669 512 640 483 640 448 c 2
 640 256 l 2
 640 221 669 192 704 192 c 0
 739 192 768 221 768 256 c 2
 768 448 l 2
 768 483 739 512 704 512 c 0
960 704 m 2
 960 739 931 768 896 768 c 0
 861 768 832 739 832 704 c 2
 832 256 l 2
 832 221 861 192 896 192 c 0
 931 192 960 221 960 256 c 2
 960 704 l 2
EndSplineSet
Ligature2: "'liga' Standard Ligatures in Latin lookup 0 subtable" c h a r t hyphen c o l u m n
EndChar

StartChar: chart-gantt
Encoding: 57572 57572 101
Width: 1024
Flags: HW
LayerCount: 2
Fore
SplineSet
64 832 m 0
 29 832 0 803 0 768 c 2
 0 96 l 2
 0 8 72 -64 160 -64 c 2
 960 -64 l 2
 995 -64 1024 -35 1024 0 c 0
 1024 35 995 64 960 64 c 2
 160 64 l 2
 142 64 128 78 128 96 c 2
 128 768 l 2
 128 803 99 832 64 832 c 0
256 640 m 0
 256 605 285 576 320 576 c 2
 512 576 l 2
 547 576 576 605 576 640 c 0
 576 675 547 704 512 704 c 2
 320 704 l 2
 285 704 256 675 256 640 c 0
448 512 m 2
 413 512 384 483 384 448 c 0
 384 413 413 384 448 384 c 2
 704 384 l 2
 739 384 768 413 768 448 c 0
 768 483 739 512 704 512 c 2
 448 512 l 2
768 320 m 2
 733 320 704 291 704 256 c 0
 704 221 733 192 768 192 c 2
 896 192 l 2
 931 192 960 221 960 256 c 0
 960 291 931 320 896 320 c 2
 768 320 l 2
EndSplineSet
Ligature2: "'liga' Standard Ligatures in Latin lookup 0 subtable" c h a r t hyphen g a n t t
EndChar

StartChar: clapperboard
Encoding: 57649 57649 102
Width: 1024
Flags: HW
LayerCount: 2
Fore
SplineSet
896 832 m 2
 900 832 904 831 908 831 c 1
 654 578 l 1
 652 576 l 1
 468 576 l 1
 722 830 l 1
 724 832 l 1
 896 832 l 2
1024 576 m 1
 788 576 l 1
 996 784 l 1
 1013 762 1024 734 1024 704 c 2
 1024 576 l 1
588 832 m 1
 588 832 l 1
 334 578 l 1
 332 576 l 1
 148 576 l 1
 402 830 l 1
 404 832 l 1
 588 832 l 1
128 832 m 2
 268 832 l 1
 14 578 l 1
 12 576 l 1
 -0 576 l 1
 -0 704 l 2
 0 775 57 832 128 832 c 2
1024 512 m 1
 1024 64 l 2
 1024 -7 967 -64 896 -64 c 2
 128 -64 l 2
 57 -64 0 -7 -0 64 c 2
 -0 512 l 1
 1024 512 l 1
EndSplineSet
Ligature2: "'liga' Standard Ligatures in Latin lookup 0 subtable" c l a p p e r b o a r d
EndChar

StartChar: clover
Encoding: 57657 57657 103
Width: 896
Flags: HW
LayerCount: 2
Fore
SplineSet
433 796 m 2
 436 794 l 2
 443 787 453 787 460 794 c 2
 463 796 l 2
 486 819 517 832 549 832 c 0
 617 832 672 778 672 710 c 2
 672 700 l 2
 672 676 665 653 653 632 c 2
 616 569 l 2
 614 565 614 563 614 561 c 0
 614 559 616 556 618 554 c 0
 620 552 623 550 625 550 c 0
 627 550 629 550 633 552 c 2
 696 589 l 2
 717 601 740 608 764 608 c 2
 774 608 l 2
 842 608 896 553 896 485 c 0
 896 453 884 422 861 399 c 2
 858 396 l 2
 851 389 851 379 858 372 c 2
 861 369 l 2
 884 346 896 315 896 283 c 0
 896 215 842 160 774 160 c 2
 764 160 l 2
 740 160 717 167 696 179 c 2
 633 216 l 2
 629 218 627 218 625 218 c 0
 623 218 620 216 618 214 c 0
 616 212 614 209 614 207 c 0
 614 205 614 203 616 199 c 2
 653 136 l 2
 665 115 672 92 672 68 c 2
 672 58 l 2
 672 -10 618 -64 550 -64 c 0
 518 -64 486 -51 463 -28 c 2
 461 -26 l 2
 454 -19 443 -19 436 -26 c 2
 433 -28 l 2
 410 -51 379 -64 347 -64 c 0
 279 -64 224 -10 224 58 c 2
 224 68 l 2
 224 92 231 115 243 136 c 2
 281 199 l 2
 283 203 283 205 283 207 c 0
 283 209 281 212 279 214 c 0
 277 216 273 218 271 218 c 0
 269 218 267 218 263 216 c 2
 200 179 l 2
 179 167 156 160 132 160 c 2
 123 160 l 2
 55 160 0 215 -0 283 c 0
 0 315 13 346 36 369 c 2
 38 372 l 2
 45 379 45 389 38 396 c 2
 36 399 l 2
 13 422 0 453 -0 485 c 0
 0 553 54 608 122 608 c 2
 132 608 l 2
 156 608 179 601 200 589 c 2
 263 551 l 2
 267 549 269 549 271 549 c 0
 273 549 276 551 278 553 c 0
 280 555 282 559 282 561 c 0
 282 563 282 565 280 569 c 2
 243 632 l 2
 231 653 224 676 224 700 c 2
 224 709 l 2
 224 777 279 832 347 832 c 0
 379 832 410 819 433 796 c 2
433 796 m 1024
EndSplineSet
Ligature2: "'liga' Standard Ligatures in Latin lookup 0 subtable" c l o v e r
EndChar

StartChar: code-compare
Encoding: 57658 57658 104
Width: 1024
Flags: HW
LayerCount: 2
Fore
SplineSet
640 -80 m 2
 640 0 l 1
 672 0 l 2
 813 0 928 115 928 256 c 2
 928 589 l 1
 985 614 1024 670 1024 736 c 0
 1024 824 952 896 864 896 c 0
 776 896 704 824 704 736 c 0
 704 670 743 614 800 589 c 1
 800 256 l 2
 800 185 743 128 672 128 c 2
 640 128 l 1
 640 208 l 2
 640 227 629 244 612 252 c 0
 595 260 574 257 560 244 c 2
 400 100 l 2
 390 91 384 78 384 64 c 0
 384 50 390 37 400 28 c 2
 560 -116 l 2
 574 -129 595 -132 612 -124 c 0
 629 -116 640 -99 640 -80 c 2
912 736 m 0
 912 709 891 688 864 688 c 0
 837 688 816 709 816 736 c 0
 816 763 837 784 864 784 c 0
 891 784 912 763 912 736 c 0
384 848 m 2
 384 768 l 1
 352 768 l 2
 211 768 96 653 96 512 c 2
 96 179 l 1
 39 154 0 98 0 32 c 0
 0 -56 72 -128 160 -128 c 0
 248 -128 320 -56 320 32 c 0
 320 98 281 154 224 179 c 1
 224 512 l 2
 224 583 281 640 352 640 c 2
 384 640 l 1
 384 560 l 2
 384 541 395 524 412 516 c 0
 429 508 450 511 464 524 c 2
 624 668 l 2
 634 677 640 690 640 704 c 0
 640 718 634 731 624 740 c 2
 464 884 l 2
 450 897 429 900 412 892 c 0
 395 884 384 867 384 848 c 2
112 32 m 0
 112 59 133 80 160 80 c 0
 187 80 208 59 208 32 c 0
 208 5 187 -16 160 -16 c 0
 133 -16 112 5 112 32 c 0
EndSplineSet
Ligature2: "'liga' Standard Ligatures in Latin lookup 0 subtable" c o d e hyphen c o m p a r e
EndChar

StartChar: code-fork
Encoding: 57659 57659 105
Width: 896
Flags: HW
LayerCount: 2
Fore
SplineSet
160 688 m 0
 133 688 112 709 112 736 c 0
 112 763 133 784 160 784 c 0
 187 784 208 763 208 736 c 0
 208 709 187 688 160 688 c 0
320 736 m 0
 320 824 248 896 160 896 c 0
 72 896 0 824 0 736 c 0
 0 670 39 614 96 589 c 1
 96 512 l 2
 96 406 182 320 288 320 c 2
 384 320 l 1
 384 179 l 1
 327 154 288 98 288 32 c 0
 288 -56 360 -128 448 -128 c 0
 536 -128 608 -56 608 32 c 0
 608 98 569 154 512 179 c 1
 512 320 l 1
 608 320 l 2
 714 320 800 406 800 512 c 2
 800 589 l 1
 857 614 896 670 896 736 c 0
 896 824 824 896 736 896 c 0
 648 896 576 824 576 736 c 0
 576 670 615 614 672 589 c 1
 672 512 l 2
 672 477 643 448 608 448 c 2
 288 448 l 2
 253 448 224 477 224 512 c 2
 224 589 l 1
 281 614 320 670 320 736 c 0
736 688 m 0
 709 688 688 709 688 736 c 0
 688 763 709 784 736 784 c 0
 763 784 784 763 784 736 c 0
 784 709 763 688 736 688 c 0
496 32 m 0
 496 5 475 -16 448 -16 c 0
 421 -16 400 5 400 32 c 0
 400 59 421 80 448 80 c 0
 475 80 496 59 496 32 c 0
EndSplineSet
Ligature2: "'liga' Standard Ligatures in Latin lookup 0 subtable" c o d e hyphen f o r k
EndChar

StartChar: code-pull-request
Encoding: 57660 57660 106
Width: 1024
Flags: HW
LayerCount: 2
Fore
SplineSet
612 892 m 0
 595 900 574 897 560 884 c 2
 400 740 l 2
 390 731 384 718 384 704 c 0
 384 690 390 677 400 668 c 2
 560 524 l 2
 574 511 595 508 612 516 c 0
 629 524 640 541 640 560 c 2
 640 640 l 1
 672 640 l 2
 743 640 800 583 800 512 c 2
 800 179 l 1
 743 154 704 98 704 32 c 0
 704 -56 776 -128 864 -128 c 0
 952 -128 1024 -56 1024 32 c 0
 1024 98 985 154 928 179 c 1
 928 512 l 2
 928 653 813 768 672 768 c 2
 640 768 l 1
 640 848 l 2
 640 867 629 884 612 892 c 0
208 736 m 0
 208 709 187 688 160 688 c 0
 133 688 112 709 112 736 c 0
 112 763 133 784 160 784 c 0
 187 784 208 763 208 736 c 0
224 589 m 1
 281 614 320 670 320 736 c 0
 320 824 248 896 160 896 c 0
 72 896 0 824 0 736 c 0
 0 670 39 614 96 589 c 1
 96 179 l 1
 39 154 0 98 0 32 c 0
 0 -56 72 -128 160 -128 c 0
 248 -128 320 -56 320 32 c 0
 320 98 281 154 224 179 c 1
 224 589 l 1
208 32 m 0
 208 5 187 -16 160 -16 c 0
 133 -16 112 5 112 32 c 0
 112 59 133 80 160 80 c 0
 187 80 208 59 208 32 c 0
864 -16 m 0
 837 -16 816 5 816 32 c 0
 816 59 837 80 864 80 c 0
 891 80 912 59 912 32 c 0
 912 5 891 -16 864 -16 c 0
EndSplineSet
Ligature2: "'liga' Standard Ligatures in Latin lookup 0 subtable" c o d e hyphen p u l l hyphen r e q u e s t
EndChar

StartChar: colon-sign
Encoding: 57664 57664 107
Width: 768
Flags: HW
LayerCount: 2
Fore
SplineSet
510 816 m 2
 497 765 l 1
 517 762 535 758 554 753 c 1
 578 848 l 2
 586 882 621 903 655 894 c 0
 689 885 711 850 702 816 c 2
 672 696 l 2
 674 694 676 693 678 691 c 0
 706 670 712 630 691 602 c 0
 679 586 661 577 642 576 c 1
 534 143 l 1
 559 152 582 164 602 179 c 0
 630 200 670 194 691 166 c 0
 712 138 707 98 679 77 c 0
 628 38 566 12 499 3 c 1
 478 -79 l 2
 469 -113 435 -135 401 -126 c 0
 367 -117 345 -82 354 -48 c 2
 368 8 l 1
 349 12 330 18 312 25 c 1
 286 -79 l 2
 277 -113 243 -135 209 -126 c 0
 175 -117 153 -82 162 -48 c 2
 197 93 l 1
 115 163 64 268 64 384 c 0
 64 567 192 721 364 759 c 1
 386 848 l 2
 394 882 429 903 463 894 c 0
 497 885 519 850 510 816 c 2
326 609 m 1
 246 566 192 481 192 384 c 0
 192 332 208 283 235 242 c 1
 326 609 l 1
344 150 m 1
 362 142 380 137 399 133 c 1
 523 629 l 1
 505 635 486 639 466 640 c 1
 344 150 l 1
EndSplineSet
Ligature2: "'liga' Standard Ligatures in Latin lookup 0 subtable" c o l o n hyphen s i g n
EndChar

StartChar: cruzeiro-sign
Encoding: 57682 57682 108
Width: 896
Flags: HW
LayerCount: 2
Fore
SplineSet
192 384 m 0
 192 253 271 140 384 91 c 1
 384 256 l 1
 384 274 l 1
 384 384 l 2
 384 419 413 448 448 448 c 0
 463 448 478 443 489 434 c 1
 510 443 534 448 559 448 c 0
 593 448 626 438 655 419 c 2
 676 405 l 2
 705 385 713 346 693 317 c 0
 673 288 634 279 605 299 c 2
 584 312 l 2
 576 317 568 320 559 320 c 0
 533 320 512 299 512 273 c 2
 512 256 l 1
 512 64 l 1
 594 64 668 94 725 145 c 0
 751 169 792 166 816 140 c 0
 840 114 837 74 811 50 c 0
 732 -21 627 -64 512 -64 c 0
 265 -64 64 137 64 384 c 0
 64 631 264 832 512 832 c 0
 627 832 732 789 811 718 c 0
 837 694 840 654 816 628 c 0
 792 602 751 599 725 623 c 0
 668 674 594 704 512 704 c 0
 335 704 192 561 192 384 c 0
EndSplineSet
Ligature2: "'liga' Standard Ligatures in Latin lookup 0 subtable" c r u z e i r o hyphen s i g n
EndChar

StartChar: display
Encoding: 57699 57699 109
Width: 1152
Flags: HW
LayerCount: 2
Fore
SplineSet
128 896 m 2
 1024 896 l 2
 1095 896 1152 839 1152 768 c 2
 1152 192 l 2
 1152 121 1095 64 1024 64 c 2
 672 64 l 1
 693 0 l 1
 832 0 l 2
 867 0 896 -29 896 -64 c 0
 896 -99 867 -128 832 -128 c 2
 320 -128 l 2
 285 -128 256 -99 256 -64 c 0
 256 -29 285 0 320 0 c 2
 459 0 l 1
 480 64 l 1
 128 64 l 2
 57 64 0 121 0 192 c 2
 0 768 l 2
 0 839 57 896 128 896 c 2
1024 768 m 1
 128 768 l 1
 128 192 l 1
 1024 192 l 1
 1024 768 l 1
EndSplineSet
Ligature2: "'liga' Standard Ligatures in Latin lookup 0 subtable" d i s p l a y
EndChar

StartChar: dong-sign
Encoding: 57705 57705 110
Width: 768
Flags: HW
LayerCount: 2
Fore
SplineSet
576 832 m 0
 611 832 640 803 640 768 c 1
 675 768 704 739 704 704 c 0
 704 669 675 640 640 640 c 1
 640 320 l 1
 640 128 l 2
 640 93 611 64 576 64 c 0
 550 64 528 80 518 102 c 1
 479 78 433 64 384 64 c 0
 243 64 128 179 128 320 c 0
 128 461 243 576 384 576 c 0
 431 576 474 564 512 542 c 1
 512 640 l 1
 448 640 l 2
 413 640 384 669 384 704 c 0
 384 739 413 768 448 768 c 2
 512 768 l 1
 512 803 541 832 576 832 c 0
256 320 m 0
 256 274 280 232 320 209 c 0
 360 186 408 186 448 209 c 0
 488 232 512 274 512 320 c 0
 512 366 488 408 448 431 c 0
 408 454 360 454 320 431 c 0
 280 408 256 366 256 320 c 0
64 0 m 2
 704 0 l 2
 739 0 768 -29 768 -64 c 0
 768 -99 739 -128 704 -128 c 2
 64 -128 l 2
 29 -128 0 -99 0 -64 c 0
 0 -29 29 0 64 0 c 2
EndSplineSet
Ligature2: "'liga' Standard Ligatures in Latin lookup 0 subtable" d o n g hyphen s i g n
EndChar

StartChar: elevator
Encoding: 57709 57709 111
Width: 1024
Flags: HW
LayerCount: 2
Fore
SplineSet
265 887 m 2
 277 899 299 899 311 887 c 2
 439 759 l 2
 448 750 451 736 446 724 c 0
 441 712 429 704 416 704 c 2
 160 704 l 2
 147 704 135 712 130 724 c 0
 125 736 128 750 137 759 c 2
 265 887 l 2
128 640 m 2
 896 640 l 2
 967 640 1024 583 1024 512 c 2
 1024 0 l 2
 1024 -71 967 -128 896 -128 c 2
 128 -128 l 2
 57 -128 0 -71 0 0 c 2
 0 512 l 2
 0 583 57 640 128 640 c 2
320 448 m 0
 286 448 254 430 237 400 c 0
 220 370 220 334 237 304 c 0
 254 274 286 256 320 256 c 0
 354 256 386 274 403 304 c 0
 420 334 420 370 403 400 c 0
 386 430 354 448 320 448 c 0
160 96 m 2
 160 64 l 2
 160 29 189 0 224 0 c 2
 416 0 l 2
 451 0 480 29 480 64 c 2
 480 96 l 2
 480 149 437 192 384 192 c 2
 256 192 l 2
 203 192 160 149 160 96 c 2
544 96 m 2
 544 64 l 2
 544 29 573 0 608 0 c 2
 800 0 l 2
 835 0 864 29 864 64 c 2
 864 96 l 2
 864 149 821 192 768 192 c 2
 640 192 l 2
 587 192 544 149 544 96 c 2
608 352 m 0
 608 318 626 286 656 269 c 0
 686 252 722 252 752 269 c 0
 782 286 800 318 800 352 c 0
 800 386 782 418 752 435 c 0
 722 452 686 452 656 435 c 0
 626 418 608 386 608 352 c 0
713 713 m 2
 585 841 l 2
 576 850 573 864 578 876 c 0
 583 888 595 896 608 896 c 2
 864 896 l 2
 877 896 889 888 894 876 c 0
 899 864 896 850 887 841 c 2
 759 713 l 2
 747 701 725 701 713 713 c 2
EndSplineSet
Ligature2: "'liga' Standard Ligatures in Latin lookup 0 subtable" e l e v a t o r
EndChar

StartChar: filter-circle-xmark
Encoding: 57723 57723 112
Width: 1152
Flags: HW
LayerCount: 2
Fore
SplineSet
8 850 m 0
 -5 822 -1 789 18 765 c 2
 384 318 l 1
 384 160 l 2
 384 140 394 121 410 109 c 2
 538 13 l 2
 541 11 544 9 547 7 c 1
 525 53 512 105 512 160 c 0
 512 330 633 472 793 505 c 1
 1006 765 l 2
 1026 789 1029 822 1016 850 c 0
 1003 878 975 896 944 896 c 2
 80 896 l 2
 49 896 21 878 8 850 c 0
864 448 m 0
 761 448 666 393 615 304 c 0
 564 215 564 105 615 16 c 0
 666 -73 761 -128 864 -128 c 0
 967 -128 1062 -73 1113 16 c 0
 1164 105 1164 215 1113 304 c 0
 1062 393 967 448 864 448 c 0
983 233 m 2
 909 160 l 1
 983 87 l 2
 995 75 995 53 983 41 c 0
 971 29 949 29 937 41 c 2
 864 115 l 1
 791 41 l 2
 779 29 757 29 745 41 c 0
 733 53 733 75 745 87 c 2
 819 160 l 1
 745 233 l 2
 733 245 733 267 745 279 c 0
 757 291 779 291 791 279 c 2
 864 205 l 1
 937 279 l 2
 949 291 971 291 983 279 c 0
 995 267 995 245 983 233 c 2
983 233 m 1024
EndSplineSet
Ligature2: "'liga' Standard Ligatures in Latin lookup 0 subtable" f i l t e r hyphen c i r c l e hyphen x m a r k
EndChar

StartChar: florin-sign
Encoding: 57732 57732 113
Width: 768
Flags: HW
LayerCount: 2
Fore
SplineSet
629 832 m 2
 704 832 l 2
 739 832 768 803 768 768 c 0
 768 733 739 704 704 704 c 2
 629 704 l 2
 603 704 580 689 570 665 c 2
 480 448 l 1
 640 448 l 2
 675 448 704 419 704 384 c 0
 704 349 675 320 640 320 c 2
 427 320 l 1
 316 54 l 2
 286 -18 217 -64 139 -64 c 2
 64 -64 l 2
 29 -64 0 -35 -0 0 c 0
 0 35 29 64 64 64 c 2
 139 64 l 2
 165 64 188 79 198 103 c 2
 288 320 l 1
 128 320 l 2
 93 320 64 349 64 384 c 0
 64 419 93 448 128 448 c 2
 341 448 l 1
 452 714 l 2
 482 786 551 832 629 832 c 2
EndSplineSet
Ligature2: "'liga' Standard Ligatures in Latin lookup 0 subtable" f l o r i n hyphen s i g n
EndChar

StartChar: folder-closed
Encoding: 57733 57733 114
Width: 1024
Flags: HW
LayerCount: 2
Fore
SplineSet
896 -64 m 2
 967 -64 1024 -7 1024 64 c 2
 1024 512 l 1
 0 512 l 1
 0 64 l 2
 0 -7 57 -64 128 -64 c 2
 896 -64 l 2
1024 576 m 1
 1024 647 967 704 896 704 c 2
 576 704 l 2
 556 704 537 714 525 730 c 2
 486 781 l 2
 462 813 424 832 384 832 c 2
 128 832 l 2
 57 832 0 775 0 704 c 2
 0 576 l 1
 1024 576 l 1
EndSplineSet
Ligature2: "'liga' Standard Ligatures in Latin lookup 0 subtable" f o l d e r hyphen c l o s e d
EndChar

StartChar: franc-sign
Encoding: 57743 57743 115
Width: 640
Flags: HW
LayerCount: 2
Fore
SplineSet
160 832 m 2
 576 832 l 2
 611 832 640 803 640 768 c 0
 640 733 611 704 576 704 c 2
 224 704 l 1
 224 512 l 1
 512 512 l 2
 547 512 576 483 576 448 c 0
 576 413 547 384 512 384 c 2
 224 384 l 1
 224 256 l 1
 384 256 l 2
 419 256 448 227 448 192 c 0
 448 157 419 128 384 128 c 2
 224 128 l 1
 224 0 l 2
 224 -35 195 -64 160 -64 c 0
 125 -64 96 -35 96 0 c 2
 96 128 l 1
 64 128 l 2
 29 128 0 157 0 192 c 0
 0 227 29 256 64 256 c 2
 96 256 l 1
 96 448 l 1
 96 768 l 2
 96 803 125 832 160 832 c 2
EndSplineSet
Ligature2: "'liga' Standard Ligatures in Latin lookup 0 subtable" f r a n c hyphen s i g n
EndChar

StartChar: guarani-sign
Encoding: 57754 57754 116
Width: 768
Flags: HW
LayerCount: 2
Fore
SplineSet
384 896 m 0
 419 896 448 867 448 832 c 2
 448 763 l 1
 527 750 598 712 653 658 c 0
 678 633 679 593 654 568 c 0
 629 543 588 542 563 567 c 0
 531 598 492 621 448 632 c 1
 448 448 l 1
 704 448 l 2
 739 448 768 419 768 384 c 0
 768 194 630 35 448 5 c 1
 448 -64 l 2
 448 -99 419 -128 384 -128 c 0
 349 -128 320 -99 320 -64 c 2
 320 5 l 1
 138 35 0 194 0 384 c 0
 0 574 138 733 320 763 c 1
 320 832 l 2
 320 867 349 896 384 896 c 0
320 632 m 1
 210 604 128 503 128 384 c 0
 128 265 210 164 320 136 c 1
 320 632 l 1
448 136 m 1
 538 159 609 230 632 320 c 1
 448 320 l 1
 448 136 l 1
EndSplineSet
Ligature2: "'liga' Standard Ligatures in Latin lookup 0 subtable" g u a r a n i hyphen s i g n
EndChar

StartChar: gun
Encoding: 57755 57755 117
Width: 1152
Flags: HW
LayerCount: 2
Fore
SplineSet
1056 784 m 2
 1056 768 l 1
 1088 768 l 2
 1123 768 1152 739 1152 704 c 2
 1152 544 l 2
 1152 509 1123 480 1088 480 c 2
 955 480 l 1
 909 435 l 2
 897 423 881 416 864 416 c 2
 802 416 l 1
 748 266 l 2
 732 221 690 192 643 192 c 2
 434 192 l 1
 382 -16 l 2
 375 -44 349 -64 320 -64 c 2
 128 -64 l 2
 108 -64 90 -55 78 -39 c 0
 66 -23 61 -3 66 16 c 2
 146 336 l 2
 156 376 126 416 84 416 c 2
 64 416 l 2
 29 416 0 445 0 480 c 2
 0 704 l 2
 0 739 29 768 64 768 c 2
 960 768 l 1
 960 784 l 2
 960 811 981 832 1008 832 c 0
 1035 832 1056 811 1056 784 c 2
643 288 m 1
 643 288 l 2
 650 288 656 293 658 299 c 2
 700 416 l 1
 490 416 l 1
 458 288 l 1
 643 288 l 1
160 640 m 2
 142 640 128 626 128 608 c 0
 128 590 142 576 160 576 c 2
 928 576 l 2
 946 576 960 590 960 608 c 0
 960 626 946 640 928 640 c 2
 160 640 l 2
EndSplineSet
Ligature2: "'liga' Standard Ligatures in Latin lookup 0 subtable" g u n
EndChar

StartChar: hands-clapping
Encoding: 57768 57768 118
Width: 1024
Flags: HW
LayerCount: 2
Fore
SplineSet
672 864 m 2
 672 882 658 896 640 896 c 0
 622 896 608 882 608 864 c 2
 608 736 l 2
 608 718 622 704 640 704 c 0
 658 704 672 718 672 736 c 2
 672 864 l 2
475 850 m 2
 465 865 445 869 430 859 c 0
 415 849 411 829 421 814 c 2
 485 718 l 2
 495 703 515 699 530 709 c 0
 545 719 549 739 539 754 c 2
 475 850 l 2
270 658 m 1
 270 658 l 1
 251 639 251 609 270 590 c 2
 456 404 l 2
 468 392 468 372 456 360 c 0
 444 348 424 348 412 360 c 2
 178 594 l 2
 159 613 129 613 110 594 c 0
 91 575 91 545 110 526 c 2
 344 292 l 2
 356 280 356 260 344 248 c 0
 332 236 312 236 300 248 c 2
 114 434 l 2
 95 453 65 453 46 434 c 0
 27 415 27 385 46 366 c 2
 232 180 l 2
 244 168 244 148 232 136 c 0
 220 124 200 124 188 136 c 2
 82 242 l 2
 63 261 33 261 14 242 c 0
 -5 223 -5 193 14 174 c 2
 213 -25 l 2
 318 -130 482 -151 610 -74 c 0
 708 -15 768 91 768 205 c 2
 768 512 l 2
 768 547 739 576 704 576 c 0
 669 576 640 547 640 512 c 2
 640 433 l 2
 640 405 605 391 585 411 c 2
 338 658 l 2
 319 677 289 677 270 658 c 1
866 -74 m 1
 866 -74 l 1
 964 -15 1024 91 1024 205 c 2
 1024 512 l 2
 1024 547 995 576 960 576 c 0
 925 576 896 547 896 512 c 2
 896 433 l 2
 896 414 880 401 864 401 c 1
 864 205 l 2
 864 78 807 -41 711 -120 c 1
 765 -118 818 -103 866 -74 c 1
850 859 m 0
 835 869 815 865 805 850 c 2
 741 754 l 2
 731 739 735 719 750 709 c 0
 765 699 785 703 795 718 c 2
 859 814 l 2
 869 829 865 849 850 859 c 0
850 859 m 1024
EndSplineSet
Ligature2: "'liga' Standard Ligatures in Latin lookup 0 subtable" h a n d s hyphen c l a p p i n g
EndChar

StartChar: house-user
Encoding: 57776 57776 119
Width: 1152
Flags: HW
LayerCount: 2
Fore
SplineSet
1152 385 m 0
 1154 403 1146 419 1130 433 c 2
 619 882 l 2
 607 892 591 896 577 896 c 0
 563 896 547 894 533 880 c 2
 20 433 l 2
 6 419 0 403 0 385 c 0
 0 349 28 321 64 321 c 2
 128 321 l 1
 128 -0 l 2
 128 -71 185 -128 256 -128 c 2
 897 -128 l 2
 968 -128 1025 -71 1025 0 c 2
 1024 321 l 1
 1088 321 l 2
 1122 321 1152 349 1152 385 c 0
704 448 m 0
 704 402 680 360 640 337 c 0
 600 314 552 314 512 337 c 0
 472 360 448 402 448 448 c 0
 448 494 472 536 512 559 c 0
 552 582 600 582 640 559 c 0
 680 536 704 494 704 448 c 0
512 256 m 2
 640 256 l 2
 728 256 800 184 800 96 c 0
 800 78 786 64 768 64 c 2
 384 64 l 2
 366 64 352 78 352 96 c 0
 352 184 424 256 512 256 c 2
EndSplineSet
Ligature2: "'liga' Standard Ligatures in Latin lookup 0 subtable" h o m e hyphen u s e r
Ligature2: "'liga' Standard Ligatures in Latin lookup 0 subtable" h o u s e hyphen u s e r
EndChar

StartChar: indian-rupee-sign
Encoding: 57788 57788 120
Width: 640
Flags: HW
LayerCount: 2
Fore
SplineSet
0 768 m 0
 0 733 29 704 64 704 c 2
 192 704 l 1
 224 704 l 2
 290 704 346 665 371 608 c 1
 64 608 l 2
 29 608 0 579 0 544 c 0
 0 509 29 480 64 480 c 2
 371 480 l 1
 346 423 290 384 224 384 c 2
 64 384 l 2
 36 384 11 367 3 340 c 0
 -5 313 4 284 27 268 c 2
 475 -52 l 2
 504 -73 543 -66 564 -37 c 0
 585 -8 578 31 549 52 c 2
 261 258 l 1
 382 273 479 363 505 480 c 1
 576 480 l 2
 611 480 640 509 640 544 c 0
 640 579 611 608 576 608 c 2
 505 608 l 1
 497 643 483 675 464 704 c 1
 576 704 l 2
 611 704 640 733 640 768 c 0
 640 803 611 832 576 832 c 2
 224 832 l 1
 192 832 l 1
 64 832 l 2
 29 832 0 803 0 768 c 0
EndSplineSet
Ligature2: "'liga' Standard Ligatures in Latin lookup 0 subtable" i n r
Ligature2: "'liga' Standard Ligatures in Latin lookup 0 subtable" i n d i a n hyphen r u p e e
Ligature2: "'liga' Standard Ligatures in Latin lookup 0 subtable" i n d i a n hyphen r u p e e hyphen s i g n
EndChar

StartChar: kip-sign
Encoding: 57796 57796 121
Width: 768
Flags: HW
LayerCount: 2
Fore
SplineSet
682 719 m 2
 365 448 l 1
 704 448 l 2
 739 448 768 419 768 384 c 0
 768 349 739 320 704 320 c 2
 365 320 l 1
 682 49 l 2
 709 26 712 -15 689 -42 c 0
 666 -69 625 -72 598 -49 c 2
 256 245 l 1
 256 0 l 2
 256 -35 227 -64 192 -64 c 0
 157 -64 128 -35 128 0 c 2
 128 320 l 1
 64 320 l 2
 29 320 0 349 -0 384 c 0
 0 419 29 448 64 448 c 2
 128 448 l 1
 128 768 l 2
 128 803 157 832 192 832 c 0
 227 832 256 803 256 768 c 2
 256 523 l 1
 598 817 l 2
 625 840 666 837 689 810 c 0
 712 783 709 742 682 719 c 2
EndSplineSet
Ligature2: "'liga' Standard Ligatures in Latin lookup 0 subtable" k i p hyphen s i g n
EndChar

StartChar: lari-sign
Encoding: 57800 57800 122
Width: 768
Flags: HW
LayerCount: 2
Fore
SplineSet
288 832 m 0
 253 832 224 803 224 768 c 2
 224 669 l 1
 92 608 0 475 -0 320 c 0
 0 222 37 132 98 64 c 1
 64 64 l 2
 29 64 0 35 -0 0 c 0
 0 -35 29 -64 64 -64 c 2
 384 -64 l 1
 704 -64 l 2
 739 -64 768 -35 768 0 c 0
 768 35 739 64 704 64 c 2
 384 64 l 2
 243 64 128 179 128 320 c 0
 128 401 165 473 224 520 c 1
 224 384 l 2
 224 349 253 320 288 320 c 0
 323 320 352 349 352 384 c 2
 352 574 l 1
 362 575 373 576 384 576 c 0
 395 576 406 575 416 574 c 1
 416 384 l 2
 416 349 445 320 480 320 c 0
 515 320 544 349 544 384 c 2
 544 520 l 1
 590 483 623 431 635 371 c 0
 642 336 675 314 710 321 c 0
 745 328 767 362 760 397 c 0
 735 518 654 619 544 669 c 1
 544 768 l 2
 544 803 515 832 480 832 c 0
 445 832 416 803 416 768 c 2
 416 703 l 1
 405 704 395 704 384 704 c 0
 373 704 363 704 352 703 c 1
 352 768 l 2
 352 803 323 832 288 832 c 0
EndSplineSet
Ligature2: "'liga' Standard Ligatures in Latin lookup 0 subtable" l a r i hyphen s i g n
EndChar

StartChar: litecoin-sign
Encoding: 57811 57811 123
Width: 768
Flags: HW
LayerCount: 2
Fore
SplineSet
256 768 m 2
 256 505 l 1
 494 574 l 2
 528 584 564 564 574 530 c 0
 584 496 564 460 530 450 c 2
 256 372 l 1
 256 64 l 1
 704 64 l 2
 739 64 768 35 768 0 c 0
 768 -35 739 -64 704 -64 c 2
 192 -64 l 2
 157 -64 128 -35 128 0 c 2
 128 336 l 1
 82 322 l 2
 48 312 12 332 2 366 c 0
 -8 400 12 436 46 446 c 2
 128 469 l 1
 128 768 l 2
 128 803 157 832 192 832 c 0
 227 832 256 803 256 768 c 2
EndSplineSet
Ligature2: "'liga' Standard Ligatures in Latin lookup 0 subtable" l i t e c o i n hyphen s i g n
EndChar

StartChar: manat-sign
Encoding: 57813 57813 124
Width: 768
Flags: HW
LayerCount: 2
Fore
SplineSet
384 832 m 0
 419 832 448 803 448 768 c 2
 448 699 l 1
 630 669 768 510 768 320 c 2
 768 0 l 2
 768 -35 739 -64 704 -64 c 0
 669 -64 640 -35 640 0 c 2
 640 320 l 2
 640 439 558 540 448 568 c 1
 448 0 l 2
 448 -35 419 -64 384 -64 c 0
 349 -64 320 -35 320 0 c 2
 320 568 l 1
 210 540 128 439 128 320 c 2
 128 0 l 2
 128 -35 99 -64 64 -64 c 0
 29 -64 0 -35 0 0 c 2
 0 320 l 2
 0 510 138 669 320 699 c 1
 320 768 l 2
 320 803 349 832 384 832 c 0
EndSplineSet
Ligature2: "'liga' Standard Ligatures in Latin lookup 0 subtable" m a n a t hyphen s i g n
EndChar

StartChar: mask-face
Encoding: 57815 57815 125
Width: 1280
Flags: HW
LayerCount: 2
Fore
SplineSet
640 768 m 0
 694 768 748 752 793 722 c 2
 867 672 l 2
 899 651 936 640 974 640 c 2
 992 640 l 1
 1024 640 l 1
 1168 640 l 2
 1230 640 1280 590 1280 528 c 2
 1280 358 l 2
 1280 248 1205 152 1098 125 c 2
 882 71 l 1
 812 26 729 0 640 0 c 0
 551 0 468 26 398 71 c 1
 182 125 l 2
 75 152 0 248 0 358 c 2
 0 528 l 2
 0 590 50 640 112 640 c 2
 256 640 l 1
 288 640 l 1
 306 640 l 2
 344 640 381 651 413 672 c 2
 487 722 l 2
 532 752 586 768 640 768 c 0
265 203 m 1
 219 273 192 358 192 448 c 2
 192 544 l 1
 112 544 l 2
 103 544 96 537 96 528 c 2
 96 358 l 2
 96 292 141 234 205 218 c 2
 265 203 l 1
1075 218 m 2
 1139 234 1184 292 1184 358 c 2
 1184 528 l 2
 1184 537 1177 544 1168 544 c 2
 1088 544 l 1
 1088 448 l 2
 1088 358 1061 273 1015 203 c 1
 1075 218 l 2
384 480 m 0
 384 462 398 448 416 448 c 2
 864 448 l 2
 882 448 896 462 896 480 c 0
 896 498 882 512 864 512 c 2
 416 512 l 2
 398 512 384 498 384 480 c 0
416 384 m 2
 398 384 384 370 384 352 c 0
 384 334 398 320 416 320 c 2
 864 320 l 2
 882 320 896 334 896 352 c 0
 896 370 882 384 864 384 c 2
 416 384 l 2
448 224 m 0
 448 206 462 192 480 192 c 2
 800 192 l 2
 818 192 832 206 832 224 c 0
 832 242 818 256 800 256 c 2
 480 256 l 2
 462 256 448 242 448 224 c 0
EndSplineSet
Ligature2: "'liga' Standard Ligatures in Latin lookup 0 subtable" m a s k hyphen f a c e
EndChar

StartChar: mill-sign
Encoding: 57837 57837 126
Width: 768
Flags: HW
LayerCount: 2
Fore
SplineSet
604 810 m 1
 604 811 l 1
 566 703 l 1
 680 692 768 596 768 480 c 2
 768 64 l 2
 768 29 739 0 704 0 c 0
 669 0 640 29 640 64 c 2
 640 480 l 2
 640 533 597 576 544 576 c 0
 536 576 527 575 519 573 c 2
 448 373 l 1
 448 64 l 2
 448 29 419 0 384 0 c 0
 359 0 338 14 327 35 c 1
 284 -85 l 2
 272 -118 236 -136 203 -124 c 0
 170 -112 152 -75 164 -42 c 2
 320 395 l 1
 320 480 l 2
 320 533 277 576 224 576 c 0
 171 576 128 533 128 480 c 2
 128 64 l 2
 128 29 99 0 64 0 c 0
 29 0 0 29 -0 64 c 2
 -0 480 l 1
 -0 640 l 2
 0 675 29 704 64 704 c 0
 86 704 105 694 117 677 c 1
 149 694 185 704 224 704 c 0
 287 704 343 678 384 637 c 1
 394 647 405 656 416 664 c 1
 484 853 l 2
 496 886 532 904 565 892 c 0
 598 880 616 843 604 810 c 1
604 810 m 1024
EndSplineSet
Ligature2: "'liga' Standard Ligatures in Latin lookup 0 subtable" m i l l hyphen s i g n
EndChar

StartChar: money-bills
Encoding: 57843 57843 127
Width: 1280
Flags: HW
LayerCount: 2
Fore
SplineSet
192 704 m 2
 192 775 249 832 320 832 c 2
 1152 832 l 2
 1223 832 1280 775 1280 704 c 2
 1280 256 l 2
 1280 185 1223 128 1152 128 c 2
 320 128 l 2
 249 128 192 185 192 256 c 2
 192 704 l 2
320 384 m 1
 320 256 l 1
 448 256 l 1
 448 327 391 384 320 384 c 1
448 704 m 1
 320 704 l 1
 320 576 l 1
 391 576 448 633 448 704 c 1
1152 384 m 1
 1081 384 1024 327 1024 256 c 1
 1152 256 l 1
 1152 384 l 1
1024 704 m 1
 1024 633 1081 576 1152 576 c 1
 1152 704 l 1
 1024 704 l 1
576 480 m 0
 576 423 606 370 656 341 c 0
 706 312 766 312 816 341 c 0
 866 370 896 423 896 480 c 0
 896 537 866 590 816 619 c 0
 766 648 706 648 656 619 c 0
 606 590 576 537 576 480 c 0
96 656 m 2
 96 176 l 2
 96 96 160 32 240 32 c 2
 1040 32 l 2
 1067 32 1088 11 1088 -16 c 0
 1088 -43 1067 -64 1040 -64 c 2
 240 -64 l 2
 107 -64 0 43 0 176 c 2
 0 656 l 2
 0 683 21 704 48 704 c 0
 75 704 96 683 96 656 c 2
EndSplineSet
Ligature2: "'liga' Standard Ligatures in Latin lookup 0 subtable" m o n e y hyphen b i l l s
EndChar

StartChar: naira-sign
Encoding: 57846 57846 128
Width: 896
Flags: HW
LayerCount: 2
Fore
SplineSet
245 803 m 2
 525 384 l 1
 640 384 l 1
 640 768 l 2
 640 803 669 832 704 832 c 0
 739 832 768 803 768 768 c 2
 768 384 l 1
 832 384 l 2
 867 384 896 355 896 320 c 0
 896 285 867 256 832 256 c 2
 768 256 l 1
 768 -0 l 2
 768 -28 750 -53 723 -61 c 0
 696 -69 667 -59 651 -36 c 2
 456 256 l 1
 256 256 l 1
 256 0 l 2
 256 -35 227 -64 192 -64 c 0
 157 -64 128 -35 128 0 c 2
 128 256 l 1
 64 256 l 2
 29 256 0 285 0 320 c 0
 0 355 29 384 64 384 c 2
 128 384 l 1
 128 768 l 2
 128 796 146 821 173 829 c 0
 200 837 229 826 245 803 c 2
610 256 m 1
 640 211 l 1
 640 256 l 1
 610 256 l 1
371 384 m 1
 256 557 l 1
 256 384 l 1
 371 384 l 1
EndSplineSet
Ligature2: "'liga' Standard Ligatures in Latin lookup 0 subtable" n a i r a hyphen s i g n
EndChar

StartChar: notdef
Encoding: 57854 57854 129
Width: 768
Flags: HW
LayerCount: 2
Fore
SplineSet
128 115 m 1
 128 653 l 1
 307 384 l 1
 128 115 l 1
205 0 m 1
 384 269 l 1
 563 0 l 1
 205 0 l 1
461 384 m 1
 640 653 l 1
 640 115 l 1
 461 384 l 1
563 768 m 1
 384 499 l 1
 205 768 l 1
 563 768 l 1
0 800 m 2
 0 -32 l 2
 0 -85 43 -128 96 -128 c 2
 672 -128 l 2
 725 -128 768 -85 768 -32 c 2
 768 800 l 2
 768 853 725 896 672 896 c 2
 96 896 l 2
 43 896 0 853 0 800 c 2
EndSplineSet
Ligature2: "'liga' Standard Ligatures in Latin lookup 0 subtable" n o t d e f
EndChar

StartChar: panorama
Encoding: 57865 57865 130
Width: 1280
Flags: HW
LayerCount: 2
Fore
SplineSet
91 832 m 0
 101 832 111 830 121 827 c 0
 149 817 355 752 640 752 c 0
 925 752 1130 817 1159 827 c 0
 1168 830 1179 832 1189 832 c 0
 1239 832 1280 792 1280 741 c 2
 1280 27 l 2
 1280 -23 1239 -64 1189 -64 c 0
 1179 -64 1168 -62 1159 -59 c 0
 1131 -49 925 16 640 16 c 0
 355 16 150 -49 121 -59 c 0
 112 -62 101 -64 91 -64 c 0
 41 -64 0 -23 -0 27 c 2
 -0 741 l 2
 0 791 41 832 91 832 c 0
192 576 m 0
 192 541 221 512 256 512 c 0
 291 512 320 541 320 576 c 0
 320 611 291 640 256 640 c 0
 221 640 192 611 192 576 c 0
736 576 m 2
 736 576 l 2
 720 576 705 568 696 555 c 2
 522 300 l 1
 469 366 l 2
 460 377 447 384 432 384 c 0
 417 384 404 377 395 366 c 2
 256 193 l 2
 244 177 242 155 252 138 c 0
 262 121 281 112 301 115 c 0
 393 131 509 144 640 144 c 0
 770 144 885 132 977 116 c 0
 996 113 1015 121 1025 137 c 0
 1035 153 1036 174 1025 190 c 2
 776 555 l 2
 767 568 752 576 736 576 c 2
736 576 m 1024
EndSplineSet
Ligature2: "'liga' Standard Ligatures in Latin lookup 0 subtable" p a n o r a m a
EndChar

StartChar: peseta-sign
Encoding: 57889 57889 131
Width: 768
Flags: HW
LayerCount: 2
Fore
SplineSet
128 832 m 2
 384 832 l 2
 539 832 668 722 698 576 c 1
 704 576 l 2
 739 576 768 547 768 512 c 0
 768 477 739 448 704 448 c 2
 698 448 l 1
 668 302 539 192 384 192 c 2
 192 192 l 1
 192 0 l 2
 192 -35 163 -64 128 -64 c 0
 93 -64 64 -35 64 0 c 2
 64 256 l 1
 64 448 l 1
 29 448 0 477 0 512 c 0
 0 547 29 576 64 576 c 1
 64 768 l 2
 64 803 93 832 128 832 c 2
565 576 m 1
 539 651 468 704 384 704 c 2
 192 704 l 1
 192 576 l 1
 565 576 l 1
192 448 m 1
 192 320 l 1
 384 320 l 2
 468 320 539 373 565 448 c 1
 192 448 l 1
EndSplineSet
Ligature2: "'liga' Standard Ligatures in Latin lookup 0 subtable" p e s e t a hyphen s i g n
EndChar

StartChar: peso-sign
Encoding: 57890 57890 132
Width: 768
Flags: HW
LayerCount: 2
Fore
SplineSet
128 832 m 2
 352 832 l 2
 489 832 608 754 666 640 c 1
 704 640 l 2
 739 640 768 611 768 576 c 0
 768 541 739 512 704 512 c 2
 703 512 l 1
 704 501 704 491 704 480 c 0
 704 469 704 459 703 448 c 1
 704 448 l 2
 739 448 768 419 768 384 c 0
 768 349 739 320 704 320 c 2
 666 320 l 1
 608 206 489 128 352 128 c 2
 192 128 l 1
 192 0 l 2
 192 -35 163 -64 128 -64 c 0
 93 -64 64 -35 64 0 c 2
 64 192 l 1
 64 320 l 1
 29 320 0 349 0 384 c 0
 0 419 29 448 64 448 c 1
 64 512 l 1
 29 512 0 541 0 576 c 0
 0 611 29 640 64 640 c 1
 64 768 l 2
 64 803 93 832 128 832 c 2
509 640 m 1
 469 680 413 704 352 704 c 2
 192 704 l 1
 192 640 l 1
 509 640 l 1
192 512 m 1
 192 448 l 1
 574 448 l 1
 575 458 576 469 576 480 c 0
 576 491 575 502 574 512 c 1
 192 512 l 1
509 320 m 1
 192 320 l 1
 192 256 l 1
 352 256 l 2
 413 256 469 280 509 320 c 1
EndSplineSet
Ligature2: "'liga' Standard Ligatures in Latin lookup 0 subtable" p e s o hyphen s i g n
EndChar

StartChar: plane-up
Encoding: 57901 57901 133
Width: 1024
Flags: HW
LayerCount: 2
Fore
SplineSet
384 709 m 2
 384 576 l 1
 28 339 l 2
 10 327 0 307 0 286 c 2
 0 172 l 2
 0 150 21 135 42 142 c 2
 384 256 l 1
 384 96 l 1
 269 10 l 2
 261 4 256 -6 256 -16 c 2
 256 -100 l 2
 256 -115 268 -128 284 -128 c 0
 287 -128 289 -128 292 -127 c 2
 512 -64 l 1
 732 -127 l 2
 735 -128 737 -128 740 -128 c 0
 755 -128 768 -116 768 -100 c 2
 768 -16 l 2
 768 -6 763 4 755 10 c 2
 640 96 l 1
 640 256 l 1
 982 142 l 2
 1003 135 1024 150 1024 172 c 2
 1024 286 l 2
 1024 307 1014 327 996 339 c 2
 640 576 l 1
 640 709 l 2
 640 777 584 896 512 896 c 0
 442 896 384 777 384 709 c 2
EndSplineSet
Ligature2: "'liga' Standard Ligatures in Latin lookup 0 subtable" p l a n e hyphen u p
EndChar

StartChar: rupiah-sign
Encoding: 57917 57917 134
Width: 1024
Flags: HW
LayerCount: 2
Fore
SplineSet
0 768 m 2
 0 320 l 1
 0 0 l 2
 0 -35 29 -64 64 -64 c 0
 99 -64 128 -35 128 0 c 2
 128 256 l 1
 213 256 l 1
 325 -24 l 2
 338 -57 375 -72 408 -59 c 0
 441 -46 456 -9 443 24 c 2
 341 281 l 1
 442 326 512 426 512 544 c 0
 512 703 383 832 224 832 c 2
 64 832 l 2
 29 832 0 803 0 768 c 2
128 384 m 1
 128 704 l 1
 224 704 l 2
 312 704 384 632 384 544 c 0
 384 456 312 384 224 384 c 2
 128 384 l 1
640 576 m 2
 605 576 576 547 576 512 c 2
 576 192 l 1
 576 -64 l 2
 576 -99 605 -128 640 -128 c 0
 675 -128 704 -99 704 -64 c 2
 704 128 l 1
 800 128 l 2
 924 128 1024 228 1024 352 c 0
 1024 476 924 576 800 576 c 2
 640 576 l 2
800 256 m 2
 704 256 l 1
 704 448 l 1
 800 448 l 2
 853 448 896 405 896 352 c 0
 896 299 853 256 800 256 c 2
EndSplineSet
Ligature2: "'liga' Standard Ligatures in Latin lookup 0 subtable" r u p i a h hyphen s i g n
EndChar

StartChar: stairs
Encoding: 57993 57993 135
Width: 1152
Flags: HW
LayerCount: 2
Fore
SplineSet
768 768 m 2
 768 576 l 1
 576 576 l 2
 541 576 512 547 512 512 c 2
 512 320 l 1
 320 320 l 2
 285 320 256 291 256 256 c 2
 256 64 l 1
 64 64 l 2
 29 64 0 35 0 0 c 0
 0 -35 29 -64 64 -64 c 2
 320 -64 l 2
 355 -64 384 -35 384 0 c 2
 384 192 l 1
 576 192 l 2
 611 192 640 221 640 256 c 2
 640 448 l 1
 832 448 l 2
 867 448 896 477 896 512 c 2
 896 704 l 1
 1088 704 l 2
 1123 704 1152 733 1152 768 c 0
 1152 803 1123 832 1088 832 c 2
 832 832 l 2
 797 832 768 803 768 768 c 2
EndSplineSet
Ligature2: "'liga' Standard Ligatures in Latin lookup 0 subtable" s t a i r s
EndChar

StartChar: timeline
Encoding: 58012 58012 136
Width: 1280
Flags: HW
LayerCount: 2
Fore
SplineSet
256 752 m 0
 229 752 208 731 208 704 c 0
 208 677 229 656 256 656 c 0
 283 656 304 677 304 704 c 0
 304 731 283 752 256 752 c 0
320 557 m 1
 320 448 l 1
 960 448 l 1
 960 557 l 1
 903 582 864 638 864 704 c 0
 864 792 936 864 1024 864 c 0
 1112 864 1184 792 1184 704 c 0
 1184 638 1145 582 1088 557 c 1
 1088 448 l 1
 1216 448 l 2
 1251 448 1280 419 1280 384 c 0
 1280 349 1251 320 1216 320 c 2
 704 320 l 1
 704 211 l 1
 761 186 800 130 800 64 c 0
 800 -24 728 -96 640 -96 c 0
 552 -96 480 -24 480 64 c 0
 480 130 519 186 576 211 c 1
 576 320 l 1
 64 320 l 2
 29 320 0 349 0 384 c 0
 0 419 29 448 64 448 c 2
 192 448 l 1
 192 557 l 1
 135 582 96 638 96 704 c 0
 96 792 168 864 256 864 c 0
 344 864 416 792 416 704 c 0
 416 638 377 582 320 557 c 1
976 704 m 0
 976 677 997 656 1024 656 c 0
 1051 656 1072 677 1072 704 c 0
 1072 731 1051 752 1024 752 c 0
 997 752 976 731 976 704 c 0
640 112 m 0
 613 112 592 91 592 64 c 0
 592 37 613 16 640 16 c 0
 667 16 688 37 688 64 c 0
 688 91 667 112 640 112 c 0
EndSplineSet
Ligature2: "'liga' Standard Ligatures in Latin lookup 0 subtable" t i m e l i n e
EndChar

StartChar: truck-front
Encoding: 58039 58039 137
Width: 1024
Flags: HW
LayerCount: 2
Fore
SplineSet
0 736 m 2
 0 160 l 2
 0 108 25 61 64 32 c 1
 64 -64 l 2
 64 -99 93 -128 128 -128 c 2
 192 -128 l 2
 227 -128 256 -99 256 -64 c 2
 256 0 l 1
 768 0 l 1
 768 -64 l 2
 768 -99 797 -128 832 -128 c 2
 896 -128 l 2
 931 -128 960 -99 960 -64 c 2
 960 32 l 1
 999 61 1024 108 1024 160 c 2
 1024 736 l 2
 1024 824 952 896 864 896 c 2
 160 896 l 2
 72 896 0 824 0 736 c 2
260 592 m 1
 260 592 l 1
 267 620 293 640 322 640 c 2
 702 640 l 2
 731 640 757 620 764 592 c 2
 800 448 l 1
 224 448 l 1
 260 592 l 1
256 256 m 0
 256 221 227 192 192 192 c 0
 157 192 128 221 128 256 c 0
 128 291 157 320 192 320 c 0
 227 320 256 291 256 256 c 0
832 192 m 0
 797 192 768 221 768 256 c 0
 768 291 797 320 832 320 c 0
 867 320 896 291 896 256 c 0
 896 221 867 192 832 192 c 0
EndSplineSet
Ligature2: "'liga' Standard Ligatures in Latin lookup 0 subtable" t r u c k hyphen f r o n t
EndChar

StartChar: turkish-lira-sign
Encoding: 58043 58043 138
Width: 768
Flags: HW
LayerCount: 2
Fore
SplineSet
192 832 m 0
 157 832 128 803 128 768 c 2
 128 661 l 1
 46 638 l 2
 12 628 -8 592 2 558 c 0
 12 524 48 504 82 514 c 2
 128 528 l 1
 128 469 l 1
 46 446 l 2
 12 436 -8 401 2 367 c 0
 12 333 48 313 82 323 c 2
 128 336 l 1
 128 -0 l 2
 128 -35 157 -64 192 -64 c 2
 384 -64 l 2
 589 -64 757 97 767 301 c 2
 768 317 l 2
 770 352 742 382 707 384 c 0
 672 386 642 358 640 323 c 2
 639 307 l 2
 632 171 520 64 384 64 c 2
 256 64 l 1
 256 372 l 1
 530 450 l 2
 564 460 584 496 574 530 c 0
 564 564 528 584 494 574 c 2
 256 505 l 1
 256 564 l 1
 530 642 l 2
 564 652 584 688 574 722 c 0
 564 756 528 776 494 766 c 2
 256 697 l 1
 256 768 l 2
 256 803 227 832 192 832 c 0
EndSplineSet
Ligature2: "'liga' Standard Ligatures in Latin lookup 0 subtable" t r y
Ligature2: "'liga' Standard Ligatures in Latin lookup 0 subtable" t u r k i s h hyphen l i r a
Ligature2: "'liga' Standard Ligatures in Latin lookup 0 subtable" t u r k i s h hyphen l i r a hyphen s i g n
EndChar

StartChar: vault
Encoding: 58053 58053 139
Width: 1152
Flags: HW
LayerCount: 2
Fore
SplineSet
128 896 m 2
 1024 896 l 2
 1095 896 1152 839 1152 768 c 2
 1152 64 l 2
 1152 -7 1095 -64 1024 -64 c 2
 992 -64 l 1
 960 -128 l 1
 832 -128 l 1
 800 -64 l 1
 352 -64 l 1
 320 -128 l 1
 192 -128 l 1
 160 -64 l 1
 128 -64 l 2
 57 -64 0 -7 0 64 c 2
 0 768 l 2
 0 839 57 896 128 896 c 2
448 256 m 0
 391 256 338 286 309 336 c 0
 280 386 280 446 309 496 c 0
 338 546 391 576 448 576 c 0
 505 576 558 546 587 496 c 0
 616 446 616 386 587 336 c 0
 558 286 505 256 448 256 c 0
448 736 m 0
 334 736 228 675 171 576 c 0
 114 477 114 355 171 256 c 0
 228 157 334 96 448 96 c 0
 562 96 668 157 725 256 c 0
 782 355 782 477 725 576 c 0
 668 675 562 736 448 736 c 0
960 453 m 1
 997 466 1024 502 1024 544 c 0
 1024 597 981 640 928 640 c 0
 875 640 832 597 832 544 c 0
 832 502 859 466 896 453 c 1
 896 224 l 2
 896 206 910 192 928 192 c 0
 946 192 960 206 960 224 c 2
 960 453 l 1
EndSplineSet
Ligature2: "'liga' Standard Ligatures in Latin lookup 0 subtable" v a u l t
EndChar

StartChar: wand-magic-sparkles
Encoding: 58058 58058 140
Width: 1152
Flags: HW
LayerCount: 2
Fore
SplineSet
469 811 m 1
 498 886 l 2
 500 892 506 896 512 896 c 0
 518 896 524 892 526 886 c 2
 555 811 l 1
 630 782 l 2
 636 780 640 774 640 768 c 0
 640 762 636 756 630 754 c 2
 555 725 l 1
 526 650 l 2
 524 644 518 640 512 640 c 0
 506 640 500 644 498 650 c 2
 469 725 l 1
 394 754 l 2
 388 756 384 762 384 768 c 0
 384 774 388 780 394 782 c 2
 469 811 l 1
92 105 m 2
 855 868 l 2
 893 905 954 905 991 868 c 2
 1060 799 l 2
 1097 761 1097 700 1060 663 c 2
 297 -100 l 2
 259 -137 198 -137 161 -100 c 2
 92 -31 l 2
 55 7 55 68 92 105 c 2
969 731 m 1
 923 777 l 1
 713 567 l 1
 759 521 l 1
 969 731 l 1
15 662 m 2
 128 704 l 1
 170 817 l 2
 173 826 182 832 192 832 c 0
 202 832 211 826 214 817 c 2
 256 704 l 1
 369 662 l 2
 378 659 384 650 384 640 c 0
 384 630 378 621 369 618 c 2
 256 576 l 1
 214 463 l 2
 211 454 202 448 192 448 c 0
 182 448 173 454 170 463 c 2
 128 576 l 1
 15 618 l 2
 6 621 0 630 0 640 c 0
 0 650 6 659 15 662 c 2
719 150 m 2
 832 192 l 1
 874 305 l 2
 877 314 886 320 896 320 c 0
 906 320 915 314 918 305 c 2
 960 192 l 1
 1073 150 l 2
 1082 147 1088 138 1088 128 c 0
 1088 118 1082 109 1073 106 c 2
 960 64 l 1
 918 -49 l 2
 915 -58 906 -64 896 -64 c 0
 886 -64 877 -58 874 -49 c 2
 832 64 l 1
 719 106 l 2
 710 109 704 118 704 128 c 0
 704 138 710 147 719 150 c 2
EndSplineSet
Ligature2: "'liga' Standard Ligatures in Latin lookup 0 subtable" w a n d hyphen m a g i c hyphen s p a r k l e s
Ligature2: "'liga' Standard Ligatures in Latin lookup 0 subtable" m a g i c hyphen w a n d hyphen s p a r k l e s
EndChar

StartChar: wheat-awn
Encoding: 58061 58061 141
Width: 1024
Flags: HW
LayerCount: 2
Fore
SplineSet
1010 814 m 1
 1010 814 l 1
 834 638 l 2
 815 619 785 619 766 638 c 0
 747 657 747 687 766 706 c 2
 942 882 l 2
 961 901 991 901 1010 882 c 0
 1029 863 1029 833 1010 814 c 1
611 841 m 2
 633 819 l 2
 642 810 651 800 658 790 c 1
 750 882 l 2
 769 901 799 901 818 882 c 0
 837 863 837 833 818 814 c 2
 702 697 l 1
 712 654 711 610 699 567 c 1
 740 579 782 580 823 571 c 1
 942 690 l 2
 961 709 991 709 1010 690 c 0
 1029 671 1029 641 1010 622 c 2
 918 530 l 1
 930 522 940 512 950 502 c 2
 973 479 l 2
 985 467 985 446 973 434 c 2
 950 411 l 2
 875 336 754 336 679 411 c 2
 654 436 l 1
 591 372 l 1
 648 366 703 342 747 298 c 2
 769 275 l 2
 781 263 781 242 769 230 c 2
 747 208 l 2
 672 133 550 133 475 208 c 2
 451 232 l 1
 387 168 l 1
 444 162 499 138 543 94 c 2
 566 72 l 2
 578 60 578 39 566 27 c 2
 543 4 l 2
 468 -71 347 -71 272 4 c 2
 247 28 l 1
 109 -109 l 2
 84 -134 44 -134 19 -109 c 0
 -6 -84 -6 -44 19 -19 c 2
 157 119 l 1
 136 140 l 2
 61 215 61 336 136 411 c 2
 158 434 l 2
 170 446 192 446 204 434 c 2
 226 411 l 2
 268 369 292 317 299 262 c 1
 360 323 l 1
 339 343 l 2
 264 418 264 540 339 615 c 2
 362 638 l 2
 374 650 395 650 407 638 c 2
 430 615 l 2
 472 573 496 520 503 465 c 1
 564 526 l 1
 543 547 l 2
 468 622 468 744 543 819 c 2
 566 841 l 2
 578 853 599 853 611 841 c 2
EndSplineSet
Ligature2: "'liga' Standard Ligatures in Latin lookup 0 subtable" w h e a t hyphen a l t
Ligature2: "'liga' Standard Ligatures in Latin lookup 0 subtable" w h e a t hyphen a w n
EndChar

StartChar: wheelchair-move
Encoding: 58062 58062 142
Width: 896
Flags: HW
LayerCount: 2
Fore
SplineSet
640 800 m 0
 640 766 658 734 688 717 c 0
 718 700 754 700 784 717 c 0
 814 734 832 766 832 800 c 0
 832 834 814 866 784 883 c 0
 754 900 718 900 688 883 c 0
 658 866 640 834 640 800 c 0
409 653 m 2
 493 614 l 1
 385 505 l 1
 364 509 342 512 320 512 c 0
 143 512 0 369 0 192 c 0
 0 15 143 -128 320 -128 c 0
 497 -128 640 15 640 192 c 0
 640 238 630 281 613 320 c 1
 754 320 l 1
 705 77 l 2
 698 42 720 8 755 1 c 0
 790 -6 824 16 831 51 c 2
 887 333 l 2
 899 392 854 448 793 448 c 2
 598 448 l 1
 675 533 l 2
 718 581 702 657 644 684 c 2
 464 769 l 2
 410 794 346 788 299 752 c 2
 218 691 l 2
 190 670 184 629 205 601 c 0
 226 573 266 568 294 589 c 2
 376 650 l 2
 385 657 398 658 409 653 c 2
320 0 m 0
 251 0 188 37 154 96 c 0
 120 155 120 229 154 288 c 0
 188 347 251 384 320 384 c 0
 389 384 452 347 486 288 c 0
 520 229 520 155 486 96 c 0
 452 37 389 0 320 0 c 0
EndSplineSet
Ligature2: "'liga' Standard Ligatures in Latin lookup 0 subtable" w h e e l c h a i r hyphen a l t
Ligature2: "'liga' Standard Ligatures in Latin lookup 0 subtable" w h e e l c h a i r hyphen m o v e
EndChar

StartChar: bangladeshi-taka-sign
Encoding: 58086 58086 143
Width: 768
Flags: HW
LayerCount: 2
Fore
SplineSet
72 831 m 1
 72 832 l 1
 88 830 l 2
 184 818 256 736 256 639 c 2
 256 576 l 1
 320 576 l 2
 355 576 384 547 384 512 c 0
 384 477 355 448 320 448 c 2
 256 448 l 1
 256 128 l 2
 256 93 285 64 320 64 c 2
 384 64 l 2
 525 64 640 179 640 320 c 2
 640 384 l 2
 640 419 611 448 576 448 c 2
 544 448 l 2
 509 448 480 477 480 512 c 0
 480 547 509 576 544 576 c 2
 576 576 l 2
 682 576 768 490 768 384 c 2
 768 320 l 2
 768 108 596 -64 384 -64 c 2
 320 -64 l 2
 214 -64 128 22 128 128 c 2
 128 448 l 1
 64 448 l 2
 29 448 0 477 0 512 c 0
 0 547 29 576 64 576 c 2
 128 576 l 1
 128 639 l 2
 128 671 104 698 72 702 c 2
 56 704 l 2
 21 708 -4 741 0 776 c 0
 4 811 37 835 72 831 c 1
72 831 m 1024
EndSplineSet
Ligature2: "'liga' Standard Ligatures in Latin lookup 0 subtable" b a n g l a d e s h i hyphen t a k a hyphen s i g n
EndChar

StartChar: bowl-rice
Encoding: 58091 58091 144
Width: 1024
Flags: HW
LayerCount: 2
Fore
SplineSet
352 784 m 0
 352 757 373 736 400 736 c 2
 432 736 l 2
 459 736 480 757 480 784 c 0
 480 811 459 832 432 832 c 2
 400 832 l 2
 373 832 352 811 352 784 c 0
400 688 m 2
 373 688 352 667 352 640 c 0
 352 613 373 592 400 592 c 2
 432 592 l 2
 459 592 480 613 480 640 c 0
 480 667 459 688 432 688 c 2
 400 688 l 2
112 544 m 2
 85 544 64 523 64 496 c 0
 64 469 85 448 112 448 c 2
 144 448 l 2
 171 448 192 469 192 496 c 0
 192 523 171 544 144 544 c 2
 112 544 l 2
0 329 m 0
 0 188 89 68 213 21 c 1
 217 -8 l 2
 221 -40 248 -64 280 -64 c 2
 743 -64 l 2
 775 -64 803 -40 807 -8 c 2
 810 21 l 1
 935 68 1024 188 1024 329 c 0
 1024 359 999 384 969 384 c 2
 55 384 l 2
 25 384 0 359 0 329 c 0
448 496 m 0
 448 469 469 448 496 448 c 2
 528 448 l 2
 555 448 576 469 576 496 c 0
 576 523 555 544 528 544 c 2
 496 544 l 2
 469 544 448 523 448 496 c 0
256 496 m 0
 256 469 277 448 304 448 c 2
 336 448 l 2
 363 448 384 469 384 496 c 0
 384 523 363 544 336 544 c 2
 304 544 l 2
 277 544 256 523 256 496 c 0
208 688 m 2
 181 688 160 667 160 640 c 0
 160 613 181 592 208 592 c 2
 240 592 l 2
 267 592 288 613 288 640 c 0
 288 667 267 688 240 688 c 2
 208 688 l 2
640 496 m 0
 640 469 661 448 688 448 c 2
 720 448 l 2
 747 448 768 469 768 496 c 0
 768 523 747 544 720 544 c 2
 688 544 l 2
 661 544 640 523 640 496 c 0
592 688 m 2
 565 688 544 667 544 640 c 0
 544 613 565 592 592 592 c 2
 624 592 l 2
 651 592 672 613 672 640 c 0
 672 667 651 688 624 688 c 2
 592 688 l 2
832 496 m 0
 832 469 853 448 880 448 c 2
 912 448 l 2
 939 448 960 469 960 496 c 0
 960 523 939 544 912 544 c 2
 880 544 l 2
 853 544 832 523 832 496 c 0
784 688 m 2
 757 688 736 667 736 640 c 0
 736 613 757 592 784 592 c 2
 816 592 l 2
 843 592 864 613 864 640 c 0
 864 667 843 688 816 688 c 2
 784 688 l 2
592 832 m 2
 565 832 544 811 544 784 c 0
 544 757 565 736 592 736 c 2
 624 736 l 2
 651 736 672 757 672 784 c 0
 672 811 651 832 624 832 c 2
 592 832 l 2
EndSplineSet
Ligature2: "'liga' Standard Ligatures in Latin lookup 0 subtable" b o w l hyphen r i c e
EndChar

StartChar: person-pregnant
Encoding: 58142 58142 145
Width: 768
Flags: HW
LayerCount: 2
Fore
SplineSet
384 896 m 0
 350 896 318 878 301 848 c 0
 284 818 284 782 301 752 c 0
 318 722 350 704 384 704 c 0
 418 704 450 722 467 752 c 0
 484 782 484 818 467 848 c 0
 450 878 418 896 384 896 c 0
240 130 m 1
 240 130 l 1
 240 -64 l 2
 240 -99 269 -128 304 -128 c 0
 339 -128 368 -99 368 -64 c 2
 368 128 l 1
 384 128 l 1
 400 128 l 1
 400 -64 l 2
 400 -99 429 -128 464 -128 c 0
 499 -128 528 -99 528 -64 c 2
 528 128 l 1
 608 128 l 1
 640 128 l 2
 675 128 704 157 704 192 c 2
 704 256 l 2
 704 350 638 428 549 445 c 1
 537 510 l 2
 524 581 463 634 392 640 c 0
 389 640 387 640 384 640 c 2
 379 640 l 1
 354 640 l 1
 352 640 l 2
 343 640 335 639 327 638 c 0
 270 630 220 597 190 547 c 2
 73 353 l 2
 55 323 65 283 95 265 c 0
 125 247 165 257 183 287 c 2
 192 302 l 1
 192 192 l 2
 192 162 212 137 240 130 c 1
240 130 m 1024
EndSplineSet
Ligature2: "'liga' Standard Ligatures in Latin lookup 0 subtable" p e r s o n hyphen p r e g n a n t
EndChar

StartChar: house-chimney
Encoding: 63499 63499 146
AltUni2: 00e3af.ffffffff.0
Width: 1152
Flags: HW
LayerCount: 2
Fore
SplineSet
1088 321 m 2
 1087 321 l 1
 1023 321 l 1
 1025 0 l 2
 1025 -6 1025 -11 1024 -16 c 2
 1024 -48 l 2
 1024 -92 988 -128 944 -128 c 2
 912 -128 l 2
 910 -128 907 -128 905 -128 c 0
 902 -128 900 -128 897 -128 c 2
 832 -128 l 1
 784 -128 l 2
 740 -128 704 -92 704 -48 c 2
 704 -0 l 1
 704 128 l 2
 704 163 675 192 640 192 c 2
 512 192 l 2
 477 192 448 163 448 128 c 2
 448 -0 l 1
 448 -48 l 2
 448 -92 412 -128 368 -128 c 2
 320 -128 l 1
 256 -128 l 2
 253 -128 250 -128 247 -128 c 0
 245 -128 242 -128 240 -128 c 2
 208 -128 l 2
 164 -128 128 -92 128 -48 c 2
 128 176 l 2
 128 178 128 179 128 181 c 2
 128 321 l 1
 64 321 l 2
 28 321 0 349 0 385 c 0
 0 403 6 419 20 433 c 2
 533 880 l 2
 547 894 563 896 577 896 c 0
 591 896 607 892 619 882 c 2
 832 695 l 1
 832 768 l 2
 832 803 861 832 896 832 c 2
 960 832 l 2
 995 832 1024 803 1024 768 c 2
 1024 526 l 1
 1130 433 l 2
 1146 419 1154 403 1152 385 c 0
 1152 349 1122 321 1088 321 c 2
1088 321 m 1024
EndSplineSet
Ligature2: "'liga' Standard Ligatures in Latin lookup 0 subtable" h o m e hyphen l g
Ligature2: "'liga' Standard Ligatures in Latin lookup 0 subtable" h o u s e hyphen c h i m n e y
EndChar

StartChar: house-crack
Encoding: 58289 58289 147
Width: 1152
Flags: HW
LayerCount: 2
Fore
SplineSet
1088 321 m 1
 1088 321 l 1
 1024 321 l 1
 1025 1 l 2
 1025 -70 968 -128 897 -128 c 2
 653 -128 l 1
 576 0 l 1
 738 135 l 2
 754 148 753 171 737 184 c 2
 501 370 l 2
 472 393 434 356 456 326 c 2
 576 160 l 1
 405 17 l 2
 393 7 390 -10 398 -24 c 2
 461 -128 l 1
 256 -128 l 2
 185 -128 128 -71 128 0 c 2
 128 321 l 1
 64 321 l 2
 28 321 0 349 0 385 c 0
 0 403 6 419 20 433 c 2
 533 880 l 2
 547 894 563 896 577 896 c 0
 591 896 607 892 619 882 c 2
 1130 433 l 2
 1146 419 1154 403 1152 385 c 0
 1152 349 1122 321 1088 321 c 1
1088 321 m 1024
EndSplineSet
Ligature2: "'liga' Standard Ligatures in Latin lookup 0 subtable" h o u s e hyphen c r a c k
EndChar

StartChar: house-medical
Encoding: 58290 58290 148
Width: 1152
Flags: HW
LayerCount: 2
Fore
SplineSet
1088 321 m 1
 1087 321 l 1
 1023 321 l 1
 1025 1 l 2
 1025 -70 968 -128 897 -128 c 2
 256 -128 l 2
 185 -128 128 -71 128 0 c 2
 128 321 l 1
 64 321 l 2
 28 321 0 349 0 385 c 0
 0 403 6 419 20 433 c 2
 533 880 l 2
 547 894 563 896 577 896 c 0
 591 896 607 892 619 882 c 2
 1130 433 l 2
 1146 419 1154 403 1152 385 c 0
 1152 349 1122 321 1088 321 c 1
512 480 m 2
 512 384 l 1
 416 384 l 2
 398 384 384 370 384 352 c 2
 384 288 l 2
 384 270 398 256 416 256 c 2
 512 256 l 1
 512 160 l 2
 512 142 526 128 544 128 c 2
 608 128 l 2
 626 128 640 142 640 160 c 2
 640 256 l 1
 736 256 l 2
 754 256 768 270 768 288 c 2
 768 352 l 2
 768 370 754 384 736 384 c 2
 640 384 l 1
 640 480 l 2
 640 498 626 512 608 512 c 2
 544 512 l 2
 526 512 512 498 512 480 c 2
EndSplineSet
Ligature2: "'liga' Standard Ligatures in Latin lookup 0 subtable" h o u s e hyphen m e d i c a l
EndChar

StartChar: cent-sign
Encoding: 58357 58357 149
Width: 768
Flags: HW
LayerCount: 2
Fore
SplineSet
448 896 m 0
 413 896 384 867 384 832 c 2
 384 763 l 1
 202 733 64 574 64 384 c 0
 64 194 202 36 384 5 c 1
 384 -64 l 2
 384 -99 413 -128 448 -128 c 0
 483 -128 512 -99 512 -64 c 2
 512 5 l 1
 574 15 630 41 678 77 c 0
 706 98 712 138 691 166 c 0
 670 194 630 200 602 179 c 0
 559 147 506 128 448 128 c 0
 307 128 192 243 192 384 c 0
 192 525 307 640 448 640 c 0
 506 640 559 621 602 589 c 0
 630 568 670 573 691 601 c 0
 712 629 706 670 678 691 c 0
 630 727 574 753 512 763 c 1
 512 832 l 2
 512 867 483 896 448 896 c 0
EndSplineSet
Ligature2: "'liga' Standard Ligatures in Latin lookup 0 subtable" c e n t hyphen s i g n
EndChar

StartChar: plus-minus
Encoding: 58428 58428 150
Width: 768
Flags: HW
LayerCount: 2
Fore
SplineSet
448 832 m 2
 448 608 l 1
 672 608 l 2
 707 608 736 579 736 544 c 0
 736 509 707 480 672 480 c 2
 448 480 l 1
 448 256 l 2
 448 221 419 192 384 192 c 0
 349 192 320 221 320 256 c 2
 320 480 l 1
 96 480 l 2
 61 480 32 509 32 544 c 0
 32 579 61 608 96 608 c 2
 320 608 l 1
 320 832 l 2
 320 867 349 896 384 896 c 0
 419 896 448 867 448 832 c 2
0 -64 m 0
 0 -29 29 0 64 0 c 2
 704 0 l 2
 739 0 768 -29 768 -64 c 0
 768 -99 739 -128 704 -128 c 2
 64 -128 l 2
 29 -128 0 -99 0 -64 c 0
EndSplineSet
Ligature2: "'liga' Standard Ligatures in Latin lookup 0 subtable" p l u s hyphen m i n u s
EndChar

StartChar: sailboat
Encoding: 58437 58437 151
Width: 1152
Flags: HW
LayerCount: 2
Fore
SplineSet
512 864 m 2
 512 224 l 2
 512 206 526 192 544 192 c 2
 992 192 l 2
 1004 192 1015 198 1020 209 c 0
 1025 220 1025 232 1018 242 c 2
 570 882 l 2
 562 893 547 899 534 895 c 0
 521 891 512 878 512 864 c 2
424 703 m 0
 410 707 395 701 388 688 c 2
 132 240 l 2
 126 230 126 218 132 208 c 0
 138 198 149 192 160 192 c 2
 416 192 l 2
 434 192 448 206 448 224 c 2
 448 672 l 2
 448 687 438 699 424 703 c 0
11 87 m 1
 11 87 l 1
 19 59 l 2
 50 -51 151 -128 266 -128 c 2
 886 -128 l 2
 1001 -128 1102 -52 1133 59 c 2
 1141 87 l 2
 1147 107 1131 128 1110 128 c 2
 42 128 l 2
 21 128 5 107 11 87 c 1
11 87 m 1024
EndSplineSet
Ligature2: "'liga' Standard Ligatures in Latin lookup 0 subtable" s a i l b o a t
EndChar

StartChar: section
Encoding: 58439 58439 152
Width: 512
Flags: HW
LayerCount: 2
Fore
SplineSet
130 704 m 1
 130 704 l 1
 128 686 131 674 135 667 c 0
 139 659 145 651 157 642 c 0
 184 623 225 609 280 592 c 2
 283 591 l 2
 331 576 393 556 439 521 c 0
 464 502 486 477 499 443 c 0
 512 409 515 373 509 333 c 0
 501 283 476 245 443 217 c 1
 465 199 486 176 499 146 c 0
 513 113 516 77 509 38 c 0
 497 -32 451 -80 392 -105 c 0
 335 -129 266 -133 197 -122 c 1
 197 -122 l 1
 197 -122 l 1
 159 -116 99 -96 62 -83 c 0
 55 -81 49 -79 44 -77 c 0
 10 -66 -8 -29 3 4 c 0
 14 37 51 56 84 45 c 0
 92 42 100 39 109 36 c 1
 109 36 l 1
 147 23 191 8 217 4 c 0
 270 -4 313 1 341 13 c 0
 367 24 379 40 382 60 c 0
 385 79 383 90 380 96 c 0
 377 103 372 110 361 118 c 0
 336 136 297 149 243 165 c 2
 235 168 l 1
 235 168 l 1
 188 182 129 200 84 230 c 0
 59 247 36 270 20 301 c 0
 4 333 -2 368 3 407 c 0
 3 408 3 409 3 410 c 0
 13 466 45 508 87 535 c 1
 86 536 84 537 83 538 c 0
 58 556 34 580 19 612 c 0
 3 644 -1 681 3 720 c 0
 3 721 3 722 3 723 c 0
 15 794 59 844 119 871 c 0
 176 897 246 901 315 890 c 0
 335 887 395 875 417 869 c 0
 451 859 472 824 462 790 c 0
 452 756 417 735 383 745 c 0
 367 749 312 761 294 764 c 0
 241 773 200 767 172 755 c 0
 147 744 134 727 130 704 c 1
283 287 m 1
 283 287 l 1
 308 291 l 2
 357 300 377 324 382 353 c 0
 385 374 383 387 380 395 c 0
 377 403 371 412 360 420 c 0
 351 427 341 433 328 439 c 2
 295 444 l 2
 242 452 199 447 171 435 c 0
 146 424 134 409 130 390 c 0
 128 374 131 364 134 358 c 0
 137 351 144 344 156 336 c 0
 184 317 224 304 279 288 c 2
 282 287 l 1
 283 287 l 1
283 287 m 1024
EndSplineSet
Ligature2: "'liga' Standard Ligatures in Latin lookup 0 subtable" s e c t i o n
EndChar

StartChar: shrimp
Encoding: 129424 129424 153
AltUni2: 00e448.ffffffff.0
Width: 1024
Flags: HW
LayerCount: 2
Fore
SplineSet
128 832 m 2
 928 832 l 2
 946 832 960 818 960 800 c 0
 960 782 946 768 928 768 c 2
 128 768 l 2
 93 768 64 739 64 704 c 0
 64 669 93 640 128 640 c 2
 178 640 l 1
 528 640 l 1
 576 640 l 1
 576 256 l 1
 464 256 l 2
 284 256 137 398 130 576 c 1
 128 576 l 2
 57 576 0 633 0 704 c 0
 0 775 57 832 128 832 c 2
448 -16 m 0
 448 8 466 28 489 31 c 1
 480 35 l 2
 455 44 442 71 451 96 c 0
 460 121 487 134 512 125 c 2
 640 80 l 1
 640 -64 l 1
 496 -64 l 2
 469 -64 448 -43 448 -16 c 0
704 -63 m 1
 704 77 l 2
 711 79 717 82 723 86 c 2
 896 17 l 1
 843 -27 777 -56 704 -63 c 1
945 66 m 1
 764 138 l 1
 766 146 768 156 768 165 c 0
 768 172 768 179 766 186 c 2
 1017 360 l 1
 1022 337 1024 313 1024 288 c 0
 1024 204 994 127 945 66 c 1
672 640 m 2
 818 640 944 551 997 424 c 1
 730 239 l 1
 715 250 697 256 677 256 c 2
 640 256 l 1
 640 640 l 1
 672 640 l 2
336 512 m 0
 336 485 357 464 384 464 c 0
 411 464 432 485 432 512 c 0
 432 539 411 560 384 560 c 0
 357 560 336 539 336 512 c 0
EndSplineSet
Ligature2: "'liga' Standard Ligatures in Latin lookup 0 subtable" s h r i m p
EndChar

StartChar: brazilian-real-sign
Encoding: 58476 58476 154
Width: 1024
Flags: HW
LayerCount: 2
Fore
SplineSet
800 896 m 0
 765 896 736 867 736 832 c 2
 736 788 l 1
 643 756 576 668 576 564 c 0
 576 468 634 381 724 345 c 2
 828 304 l 2
 869 288 896 248 896 204 c 2
 896 197 l 2
 896 141 851 96 795 96 c 0
 769 96 744 104 722 118 c 2
 675 149 l 2
 646 169 607 160 587 131 c 0
 567 102 575 63 604 43 c 2
 651 11 l 2
 677 -6 706 -18 736 -25 c 1
 736 -64 l 2
 736 -99 765 -128 800 -128 c 0
 835 -128 864 -99 864 -64 c 2
 864 -21 l 1
 957 8 1024 95 1024 197 c 2
 1024 204 l 2
 1024 300 965 387 876 423 c 2
 772 464 l 2
 731 480 704 520 704 564 c 0
 704 624 752 672 812 672 c 2
 815 672 l 2
 837 672 859 667 879 657 c 2
 899 647 l 2
 931 631 969 643 985 675 c 0
 1001 707 989 745 957 761 c 2
 936 771 l 2
 913 782 889 791 864 796 c 1
 864 832 l 2
 864 867 835 896 800 896 c 0
-0 768 m 2
 -0 320 l 1
 -0 0 l 2
 0 -35 29 -64 64 -64 c 0
 99 -64 128 -35 128 0 c 2
 128 256 l 1
 213 256 l 1
 325 -24 l 2
 338 -57 375 -72 408 -59 c 0
 441 -46 456 -9 443 24 c 2
 341 281 l 1
 442 326 512 426 512 544 c 0
 512 703 383 832 224 832 c 2
 64 832 l 2
 29 832 0 803 -0 768 c 2
128 384 m 1
 128 704 l 1
 224 704 l 2
 312 704 384 632 384 544 c 0
 384 456 312 384 224 384 c 2
 128 384 l 1
EndSplineSet
Ligature2: "'liga' Standard Ligatures in Latin lookup 0 subtable" b r a z i l i a n hyphen r e a l hyphen s i g n
EndChar

StartChar: chart-simple
Encoding: 58483 58483 155
Width: 896
Flags: HW
LayerCount: 2
Fore
SplineSet
320 736 m 2
 320 32 l 2
 320 -21 363 -64 416 -64 c 2
 480 -64 l 2
 533 -64 576 -21 576 32 c 2
 576 736 l 2
 576 789 533 832 480 832 c 2
 416 832 l 2
 363 832 320 789 320 736 c 2
0 352 m 2
 0 32 l 2
 0 -21 43 -64 96 -64 c 2
 160 -64 l 2
 213 -64 256 -21 256 32 c 2
 256 352 l 2
 256 405 213 448 160 448 c 2
 96 448 l 2
 43 448 0 405 0 352 c 2
736 704 m 2
 683 704 640 661 640 608 c 2
 640 32 l 2
 640 -21 683 -64 736 -64 c 2
 800 -64 l 2
 853 -64 896 -21 896 32 c 2
 896 608 l 2
 896 661 853 704 800 704 c 2
 736 704 l 2
EndSplineSet
Ligature2: "'liga' Standard Ligatures in Latin lookup 0 subtable" c h a r t hyphen s i m p l e
EndChar

StartChar: diagram-next
Encoding: 58486 58486 156
Width: 1024
Flags: HW
LayerCount: 2
Fore
SplineSet
1024 576 m 2
 1024 704 l 2
 1024 775 967 832 896 832 c 2
 128 832 l 2
 57 832 0 775 0 704 c 2
 0 576 l 2
 0 505 57 448 128 448 c 2
 464 448 l 1
 464 320 l 1
 372 320 l 2
 329 320 308 268 338 238 c 2
 478 98 l 2
 497 79 527 79 546 98 c 2
 686 238 l 2
 716 268 695 320 652 320 c 2
 560 320 l 1
 560 448 l 1
 896 448 l 2
 967 448 1024 505 1024 576 c 2
896 64 m 1
 603 64 l 1
 591 53 l 2
 547 9 477 9 433 53 c 2
 421 64 l 1
 128 64 l 1
 128 192 l 1
 293 192 l 1
 293 193 l 2
 256 230 252 280 271 320 c 1
 128 320 l 2
 57 320 0 263 0 192 c 2
 0 64 l 2
 0 -7 57 -64 128 -64 c 2
 896 -64 l 2
 967 -64 1024 -7 1024 64 c 2
 1024 192 l 2
 1024 263 967 320 896 320 c 2
 753 320 l 1
 772 280 768 230 731 193 c 2
 731 192 l 1
 896 192 l 1
 896 64 l 1
EndSplineSet
Ligature2: "'liga' Standard Ligatures in Latin lookup 0 subtable" d i a g r a m hyphen n e x t
EndChar

StartChar: diagram-predecessor
Encoding: 58487 58487 157
Width: 1024
Flags: HW
LayerCount: 2
Fore
SplineSet
896 64 m 1
 128 64 l 1
 128 192 l 1
 896 192 l 1
 896 64 l 1
896 -64 m 2
 967 -64 1024 -7 1024 64 c 2
 1024 192 l 2
 1024 263 967 320 896 320 c 2
 128 320 l 2
 57 320 0 263 0 192 c 2
 0 64 l 2
 0 -7 57 -64 128 -64 c 2
 896 -64 l 2
576 576 m 1
 576 576 l 1
 576 704 l 1
 736 704 l 2
 754 704 768 690 768 672 c 2
 768 640 l 1
 692 640 l 2
 649 640 628 588 658 558 c 2
 798 418 l 2
 817 399 847 399 866 418 c 2
 1006 558 l 2
 1036 588 1015 640 972 640 c 2
 896 640 l 1
 896 672 l 2
 896 760 824 832 736 832 c 2
 448 832 l 1
 416 832 l 1
 128 832 l 2
 57 832 0 775 0 704 c 2
 0 576 l 2
 0 505 57 448 128 448 c 2
 448 448 l 2
 519 448 576 505 576 576 c 1
576 576 m 1024
EndSplineSet
Ligature2: "'liga' Standard Ligatures in Latin lookup 0 subtable" d i a g r a m hyphen p r e d e c e s s o r
EndChar

StartChar: diagram-successor
Encoding: 58490 58490 158
Width: 1024
Flags: HW
LayerCount: 2
Fore
SplineSet
1024 64 m 2
 1024 -7 967 -64 896 -64 c 2
 128 -64 l 2
 57 -64 0 -7 0 64 c 2
 0 192 l 2
 0 263 57 320 128 320 c 2
 896 320 l 2
 967 320 1024 263 1024 192 c 2
 1024 64 l 2
128 576 m 1
 448 576 l 1
 448 704 l 1
 416 704 l 1
 128 704 l 1
 128 576 l 1
576 576 m 2
 576 505 519 448 448 448 c 2
 128 448 l 2
 57 448 0 505 -0 576 c 2
 -0 704 l 2
 0 775 57 832 128 832 c 2
 416 832 l 1
 448 832 l 1
 736 832 l 2
 824 832 896 760 896 672 c 2
 896 640 l 1
 972 640 l 2
 1015 640 1036 588 1006 558 c 2
 866 418 l 2
 847 399 817 399 798 418 c 2
 658 558 l 2
 628 588 649 640 692 640 c 2
 768 640 l 1
 768 672 l 2
 768 690 754 704 736 704 c 2
 576 704 l 1
 576 576 l 2
EndSplineSet
Ligature2: "'liga' Standard Ligatures in Latin lookup 0 subtable" d i a g r a m hyphen s u c c e s s o r
EndChar

StartChar: earth-oceania
Encoding: 58491 58491 159
Width: 1024
Flags: HW
LayerCount: 2
Fore
SplineSet
512 -128 m 0
 329 -128 160 -30 69 128 c 0
 -22 286 -22 482 69 640 c 0
 160 798 329 896 512 896 c 0
 695 896 864 798 955 640 c 0
 1046 482 1046 286 955 128 c 0
 864 -30 695 -128 512 -128 c 0
417 181 m 1
 417 182 l 1
 422 180 427 178 431 175 c 2
 482 142 l 2
 496 133 512 128 529 128 c 0
 556 128 581 141 598 162 c 2
 622 192 l 2
 634 207 640 225 640 244 c 0
 640 263 634 281 622 296 c 2
 586 342 l 2
 576 354 569 368 563 382 c 2
 543 434 l 2
 540 442 532 448 523 448 c 0
 516 448 510 445 506 439 c 2
 485 411 l 2
 476 398 460 392 444 395 c 0
 438 396 432 400 428 405 c 2
 419 417 l 2
 405 436 381 448 357 448 c 0
 333 448 310 436 296 417 c 2
 286 403 l 2
 283 399 279 396 274 394 c 2
 203 360 l 2
 162 341 146 291 167 251 c 2
 173 238 l 2
 191 204 231 187 268 199 c 2
 299 209 l 2
 312 213 326 212 339 208 c 2
 417 181 l 1
548 611 m 2
 529 630 501 638 475 633 c 2
 398 617 l 2
 367 611 363 570 392 557 c 2
 477 519 l 2
 487 515 499 512 510 512 c 2
 569 512 l 2
 597 512 612 547 592 567 c 2
 548 611 l 2
496 32 m 0
 496 14 510 0 528 -0 c 2
 560 -0 l 2
 578 0 592 14 592 32 c 0
 592 50 578 64 560 64 c 2
 528 64 l 2
 510 64 496 50 496 32 c 0
862 298 m 2
 856 315 839 324 822 318 c 0
 805 312 796 295 802 278 c 2
 818 230 l 2
 824 213 841 204 858 210 c 0
 875 216 884 233 878 250 c 2
 862 298 l 2
823 137 m 2
 835 149 835 171 823 183 c 0
 811 195 789 195 777 183 c 2
 713 119 l 2
 701 107 701 85 713 73 c 0
 725 61 747 61 759 73 c 2
 823 137 l 2
EndSplineSet
Ligature2: "'liga' Standard Ligatures in Latin lookup 0 subtable" g l o b e hyphen o c e a n i a
Ligature2: "'liga' Standard Ligatures in Latin lookup 0 subtable" e a r t h hyphen o c e a n i a
EndChar

StartChar: bug-slash
Encoding: 58512 58512 160
Width: 1280
Flags: HW
LayerCount: 2
Fore
SplineSet
78 886 m 2
 480 570 l 1
 495 574 511 576 528 576 c 2
 752 576 l 2
 786 576 818 568 847 553 c 0
 848 554 850 556 851 557 c 2
 979 685 l 2
 1004 710 1044 710 1069 685 c 0
 1094 660 1094 620 1069 595 c 2
 941 467 l 2
 940 466 938 464 937 463 c 0
 949 439 957 412 959 384 c 1
 1088 384 l 2
 1123 384 1152 355 1152 320 c 0
 1152 285 1123 256 1088 256 c 2
 960 256 l 1
 960 236 958 217 955 198 c 1
 1262 -42 l 2
 1283 -58 1286 -89 1270 -110 c 0
 1254 -131 1223 -134 1202 -118 c 2
 18 810 l 2
 -3 826 -6 857 10 878 c 0
 26 899 57 902 78 886 c 2
640 896 m 1
 640 896 l 1
 746 896 832 810 832 704 c 2
 832 697 l 2
 832 666 806 640 775 640 c 2
 505 640 l 2
 474 640 448 666 448 697 c 2
 448 704 l 2
 448 810 534 896 640 896 c 1
321 384 m 1
 323 404 326 423 333 441 c 1
 608 225 l 1
 608 -62 l 1
 539 -55 477 -27 428 17 c 1
 301 -109 l 2
 276 -134 236 -134 211 -109 c 0
 186 -84 186 -44 211 -19 c 2
 339 109 l 2
 343 113 347 116 351 119 c 0
 331 161 320 207 320 256 c 1
 192 256 l 2
 157 256 128 285 128 320 c 0
 128 355 157 384 192 384 c 2
 321 384 l 1
672 -62 m 1
 672 175 l 1
 862 25 l 1
 812 -23 745 -55 672 -62 c 1
EndSplineSet
Ligature2: "'liga' Standard Ligatures in Latin lookup 0 subtable" b u g hyphen s l a s h
EndChar

StartChar: file-circle-plus
Encoding: 58606 58606 161
AltUni2: 00e494.ffffffff.0
Width: 1152
Flags: HW
LayerCount: 2
Fore
SplineSet
0 768 m 2
 -0 0 l 2
 0 -71 57 -128 128 -128 c 2
 640 -128 l 2
 647 -128 653 -128 659 -127 c 1
 570 -63 512 42 512 160 c 0
 512 321 620 457 768 499 c 1
 768 576 l 1
 512 576 l 2
 477 576 448 605 448 640 c 2
 448 896 l 1
 128 896 l 2
 57 896 0 839 0 768 c 2
768 640 m 1
 512 896 l 1
 512 640 l 1
 768 640 l 1
864 448 m 0
 761 448 666 393 615 304 c 0
 564 215 564 105 615 16 c 0
 666 -73 761 -128 864 -128 c 0
 967 -128 1062 -73 1113 16 c 0
 1164 105 1164 215 1113 304 c 0
 1062 393 967 448 864 448 c 0
896 288 m 2
 896 192 l 1
 992 192 l 2
 1010 192 1024 178 1024 160 c 0
 1024 142 1010 128 992 128 c 2
 896 128 l 1
 896 32 l 2
 896 14 882 0 864 0 c 0
 846 0 832 14 832 32 c 2
 832 128 l 1
 736 128 l 2
 718 128 704 142 704 160 c 0
 704 178 718 192 736 192 c 2
 832 192 l 1
 832 288 l 2
 832 306 846 320 864 320 c 0
 882 320 896 306 896 288 c 2
EndSplineSet
Ligature2: "'liga' Standard Ligatures in Latin lookup 0 subtable" f i l e hyphen c i r c l e hyphen p l u s
EndChar

StartChar: shop-lock
Encoding: 58533 58533 162
Width: 1280
Flags: HW
LayerCount: 2
Fore
SplineSet
74 512 m 2
 33 512 0 545 0 586 c 0
 0 600 4 615 12 627 c 2
 164 853 l 2
 182 880 211 896 243 896 c 2
 1037 896 l 2
 1069 896 1098 880 1116 853 c 2
 1268 626 l 2
 1276 614 1280 601 1280 586 c 0
 1280 547 1251 515 1213 512 c 1
 1173 551 1117 576 1056 576 c 0
 995 576 939 552 899 512 c 1
 74 512 l 2
768 448 m 1
 768 192 l 1
 768 128 l 1
 768 -32 l 2
 768 -85 725 -128 672 -128 c 2
 224 -128 l 2
 171 -128 128 -85 128 -32 c 2
 128 128 l 1
 128 448 l 1
 256 448 l 1
 256 128 l 1
 640 128 l 1
 640 448 l 1
 768 448 l 1
1056 416 m 0
 1021 416 992 387 992 352 c 2
 992 256 l 1
 1120 256 l 1
 1120 352 l 2
 1120 387 1091 416 1056 416 c 0
896 352 m 2
 896 440 968 512 1056 512 c 0
 1144 512 1216 440 1216 352 c 2
 1216 256 l 1
 1251 256 1280 227 1280 192 c 2
 1280 -64 l 2
 1280 -99 1251 -128 1216 -128 c 2
 896 -128 l 2
 861 -128 832 -99 832 -64 c 2
 832 192 l 2
 832 227 861 256 896 256 c 1
 896 352 l 2
EndSplineSet
Ligature2: "'liga' Standard Ligatures in Latin lookup 0 subtable" s h o p hyphen l o c k
EndChar

StartChar: virus-covid
Encoding: 58536 58536 163
Width: 1024
Flags: HW
LayerCount: 2
Fore
SplineSet
384 848 m 0
 384 821 405 800 432 800 c 2
 464 800 l 1
 464 733 l 1
 403 725 346 700 299 664 c 1
 252 712 l 1
 274 735 l 2
 293 754 293 784 274 803 c 0
 255 822 226 822 207 803 c 2
 93 689 l 2
 74 670 74 641 93 622 c 0
 112 603 142 603 161 622 c 2
 184 644 l 1
 231 597 l 1
 195 550 171 493 163 432 c 1
 96 432 l 1
 96 464 l 2
 96 491 75 512 48 512 c 0
 21 512 0 491 0 464 c 2
 0 304 l 2
 0 277 21 256 48 256 c 0
 75 256 96 277 96 304 c 2
 96 336 l 1
 163 336 l 1
 171 275 196 218 232 171 c 1
 184 124 l 1
 161 146 l 2
 142 165 112 165 93 146 c 0
 74 127 74 98 93 79 c 2
 207 -34 l 2
 226 -53 255 -53 274 -34 c 0
 293 -15 293 14 274 33 c 2
 252 56 l 1
 299 104 l 1
 346 68 403 43 464 35 c 1
 464 -32 l 1
 432 -32 l 2
 405 -32 384 -53 384 -80 c 0
 384 -107 405 -128 432 -128 c 2
 592 -128 l 2
 619 -128 640 -107 640 -80 c 0
 640 -53 619 -32 592 -32 c 2
 560 -32 l 1
 560 35 l 1
 621 43 678 68 725 104 c 1
 772 56 l 1
 749 33 l 2
 730 14 730 -16 749 -35 c 0
 768 -54 798 -54 817 -35 c 2
 930 79 l 2
 949 98 949 127 930 146 c 0
 911 165 882 165 863 146 c 2
 840 124 l 1
 792 171 l 1
 828 218 853 275 861 336 c 1
 928 336 l 1
 928 304 l 2
 928 277 949 256 976 256 c 0
 1003 256 1024 277 1024 304 c 2
 1024 464 l 2
 1024 491 1003 512 976 512 c 0
 949 512 928 491 928 464 c 2
 928 432 l 1
 861 432 l 1
 853 493 828 550 792 597 c 1
 840 644 l 1
 863 622 l 2
 882 603 912 603 931 622 c 0
 950 641 950 670 931 689 c 2
 817 803 l 2
 798 822 769 822 750 803 c 0
 731 784 731 754 750 735 c 2
 772 712 l 1
 725 665 l 1
 678 701 621 725 560 733 c 1
 560 800 l 1
 592 800 l 2
 619 800 640 821 640 848 c 0
 640 875 619 896 592 896 c 2
 432 896 l 2
 405 896 384 875 384 848 c 0
480 448 m 0
 480 414 462 382 432 365 c 0
 402 348 366 348 336 365 c 0
 306 382 288 414 288 448 c 0
 288 482 306 514 336 531 c 0
 366 548 402 548 432 531 c 0
 462 514 480 482 480 448 c 0
608 240 m 0
 581 240 560 261 560 288 c 0
 560 315 581 336 608 336 c 0
 635 336 656 315 656 288 c 0
 656 261 635 240 608 240 c 0
EndSplineSet
Ligature2: "'liga' Standard Ligatures in Latin lookup 0 subtable" v i r u s hyphen c o v i d
EndChar

StartChar: virus-covid-slash
Encoding: 58537 58537 164
Width: 1280
Flags: HW
LayerCount: 2
Fore
SplineSet
78 886 m 2
 268 736 l 1
 335 802 l 2
 354 821 383 821 402 802 c 0
 421 783 421 754 402 735 c 2
 380 712 l 1
 427 665 l 1
 474 701 531 725 592 733 c 1
 592 800 l 1
 560 800 l 2
 533 800 512 821 512 848 c 0
 512 875 533 896 560 896 c 2
 720 896 l 2
 747 896 768 875 768 848 c 0
 768 821 747 800 720 800 c 2
 688 800 l 1
 688 733 l 1
 749 725 806 700 853 664 c 1
 900 712 l 1
 878 735 l 2
 859 754 859 784 878 803 c 0
 897 822 926 822 945 803 c 2
 1058 689 l 2
 1077 670 1077 641 1058 622 c 0
 1039 603 1010 603 991 622 c 2
 968 644 l 1
 921 597 l 1
 957 550 981 493 989 432 c 1
 1056 432 l 1
 1056 464 l 2
 1056 491 1077 512 1104 512 c 0
 1131 512 1152 491 1152 464 c 2
 1152 304 l 2
 1152 277 1131 256 1104 256 c 0
 1077 256 1056 277 1056 304 c 2
 1056 336 l 1
 989 336 l 1
 983 289 967 246 944 207 c 1
 1262 -42 l 2
 1283 -58 1286 -89 1270 -110 c 0
 1254 -131 1223 -134 1202 -118 c 2
 18 810 l 2
 -3 826 -6 857 10 878 c 0
 26 899 57 902 78 886 c 2
298 469 m 1
 803 72 l 1
 768 54 729 41 688 35 c 1
 688 -32 l 1
 720 -32 l 2
 747 -32 768 -53 768 -80 c 0
 768 -107 747 -128 720 -128 c 2
 560 -128 l 2
 533 -128 512 -107 512 -80 c 0
 512 -53 533 -32 560 -32 c 2
 592 -32 l 1
 592 35 l 1
 531 43 474 68 427 104 c 1
 380 56 l 1
 403 33 l 2
 422 14 422 -16 403 -35 c 0
 384 -54 354 -54 335 -35 c 2
 222 79 l 2
 203 98 203 127 222 146 c 0
 241 165 270 165 289 146 c 2
 312 124 l 1
 359 171 l 1
 323 218 299 275 291 336 c 1
 224 336 l 1
 224 304 l 2
 224 277 203 256 176 256 c 0
 149 256 128 277 128 304 c 2
 128 464 l 2
 128 491 149 512 176 512 c 0
 203 512 224 491 224 464 c 2
 224 432 l 1
 291 432 l 1
 293 445 295 457 298 469 c 1
EndSplineSet
Ligature2: "'liga' Standard Ligatures in Latin lookup 0 subtable" v i r u s hyphen c o v i d hyphen s l a s h
EndChar

StartChar: anchor-circle-check
Encoding: 58538 58538 165
Width: 1280
Flags: HW
LayerCount: 2
Fore
SplineSet
640 704 m 0
 640 739 611 768 576 768 c 0
 541 768 512 739 512 704 c 0
 512 669 541 640 576 640 c 0
 611 640 640 669 640 704 c 0
682 544 m 1
 704 544 l 2
 739 544 768 515 768 480 c 0
 768 445 739 416 704 416 c 2
 640 416 l 1
 640 160 l 1
 640 0 l 1
 678 0 l 1
 703 -49 740 -92 784 -124 c 1
 768 -126 752 -128 736 -128 c 2
 576 -128 l 1
 416 -128 l 2
 239 -128 96 15 96 192 c 2
 96 204 l 1
 82 190 l 2
 63 171 33 171 14 190 c 0
 -5 209 -5 239 14 258 c 2
 126 370 l 2
 145 389 175 389 194 370 c 2
 306 258 l 2
 325 239 325 209 306 190 c 0
 287 171 257 171 238 190 c 2
 224 204 l 1
 224 192 l 2
 224 86 310 0 416 0 c 2
 512 0 l 1
 512 416 l 1
 448 416 l 2
 413 416 384 445 384 480 c 0
 384 515 413 544 448 544 c 2
 470 544 l 1
 418 578 384 637 384 704 c 0
 384 810 470 896 576 896 c 0
 682 896 768 810 768 704 c 0
 768 637 734 578 682 544 c 1
1280 160 m 0
 1280 57 1225 -38 1136 -89 c 0
 1047 -140 937 -140 848 -89 c 0
 759 -38 704 57 704 160 c 0
 704 263 759 358 848 409 c 0
 937 460 1047 460 1136 409 c 0
 1225 358 1280 263 1280 160 c 0
1127 247 m 0
 1115 259 1093 259 1081 247 c 2
 960 125 l 1
 903 183 l 2
 891 195 869 195 857 183 c 0
 845 171 845 149 857 137 c 2
 937 57 l 2
 949 45 971 45 983 57 c 2
 1127 201 l 2
 1139 213 1139 235 1127 247 c 0
1127 247 m 1024
EndSplineSet
Ligature2: "'liga' Standard Ligatures in Latin lookup 0 subtable" a n c h o r hyphen c i r c l e hyphen c h e c k
EndChar

StartChar: anchor-circle-exclamation
Encoding: 58539 58539 166
Width: 1280
Flags: HW
LayerCount: 2
Fore
SplineSet
640 704 m 0
 640 739 611 768 576 768 c 0
 541 768 512 739 512 704 c 0
 512 669 541 640 576 640 c 0
 611 640 640 669 640 704 c 0
682 544 m 1
 704 544 l 2
 739 544 768 515 768 480 c 0
 768 445 739 416 704 416 c 2
 640 416 l 1
 640 160 l 1
 640 0 l 1
 678 0 l 1
 703 -49 740 -92 784 -124 c 1
 768 -126 752 -128 736 -128 c 2
 576 -128 l 1
 416 -128 l 2
 239 -128 96 15 96 192 c 2
 96 204 l 1
 82 190 l 2
 63 171 33 171 14 190 c 0
 -5 209 -5 239 14 258 c 2
 126 370 l 2
 145 389 175 389 194 370 c 2
 306 258 l 2
 325 239 325 209 306 190 c 0
 287 171 257 171 238 190 c 2
 224 204 l 1
 224 192 l 2
 224 86 310 0 416 0 c 2
 512 0 l 1
 512 416 l 1
 448 416 l 2
 413 416 384 445 384 480 c 0
 384 515 413 544 448 544 c 2
 470 544 l 1
 418 578 384 637 384 704 c 0
 384 810 470 896 576 896 c 0
 682 896 768 810 768 704 c 0
 768 637 734 578 682 544 c 1
992 -128 m 0
 889 -128 794 -73 743 16 c 0
 692 105 692 215 743 304 c 0
 794 393 889 448 992 448 c 0
 1095 448 1190 393 1241 304 c 0
 1292 215 1292 105 1241 16 c 0
 1190 -73 1095 -128 992 -128 c 0
992 64 m 0
 965 64 944 43 944 16 c 0
 944 -11 965 -32 992 -32 c 0
 1019 -32 1040 -11 1040 16 c 0
 1040 43 1019 64 992 64 c 0
992 352 m 0
 974 352 960 338 960 320 c 2
 960 160 l 2
 960 142 974 128 992 128 c 0
 1010 128 1024 142 1024 160 c 2
 1024 320 l 2
 1024 338 1010 352 992 352 c 0
EndSplineSet
Ligature2: "'liga' Standard Ligatures in Latin lookup 0 subtable" a n c h o r hyphen c i r c l e hyphen e x c l a m a t i o n
EndChar

StartChar: anchor-circle-xmark
Encoding: 58540 58540 167
Width: 1280
Flags: HW
LayerCount: 2
Fore
SplineSet
640 704 m 0
 640 739 611 768 576 768 c 0
 541 768 512 739 512 704 c 0
 512 669 541 640 576 640 c 0
 611 640 640 669 640 704 c 0
682 544 m 1
 704 544 l 2
 739 544 768 515 768 480 c 0
 768 445 739 416 704 416 c 2
 640 416 l 1
 640 160 l 1
 640 0 l 1
 678 0 l 1
 703 -49 740 -92 784 -124 c 1
 768 -126 752 -128 736 -128 c 2
 576 -128 l 1
 416 -128 l 2
 239 -128 96 15 96 192 c 2
 96 204 l 1
 82 190 l 2
 63 171 33 171 14 190 c 0
 -5 209 -5 239 14 258 c 2
 126 370 l 2
 145 389 175 389 194 370 c 2
 306 258 l 2
 325 239 325 209 306 190 c 0
 287 171 257 171 238 190 c 2
 224 204 l 1
 224 192 l 2
 224 86 310 0 416 0 c 2
 512 0 l 1
 512 416 l 1
 448 416 l 2
 413 416 384 445 384 480 c 0
 384 515 413 544 448 544 c 2
 470 544 l 1
 418 578 384 637 384 704 c 0
 384 810 470 896 576 896 c 0
 682 896 768 810 768 704 c 0
 768 637 734 578 682 544 c 1
992 -128 m 0
 889 -128 794 -73 743 16 c 0
 692 105 692 215 743 304 c 0
 794 393 889 448 992 448 c 0
 1095 448 1190 393 1241 304 c 0
 1292 215 1292 105 1241 16 c 0
 1190 -73 1095 -128 992 -128 c 0
1111 233 m 2
 1123 245 1123 267 1111 279 c 0
 1099 291 1077 291 1065 279 c 2
 992 205 l 1
 919 279 l 2
 907 291 885 291 873 279 c 0
 861 267 861 245 873 233 c 2
 947 160 l 1
 873 87 l 2
 861 75 861 53 873 41 c 0
 885 29 907 29 919 41 c 2
 992 115 l 1
 1065 41 l 2
 1077 29 1099 29 1111 41 c 0
 1123 53 1123 75 1111 87 c 2
 1037 160 l 1
 1111 233 l 2
EndSplineSet
Ligature2: "'liga' Standard Ligatures in Latin lookup 0 subtable" a n c h o r hyphen c i r c l e hyphen x m a r k
EndChar

StartChar: anchor-lock
Encoding: 58541 58541 168
Width: 1280
Flags: HW
LayerCount: 2
Fore
SplineSet
640 704 m 0
 640 739 611 768 576 768 c 0
 541 768 512 739 512 704 c 0
 512 669 541 640 576 640 c 0
 611 640 640 669 640 704 c 0
682 544 m 1
 682 544 l 1
 704 544 l 2
 739 544 768 515 768 480 c 0
 768 445 739 416 704 416 c 2
 640 416 l 1
 640 -0 l 1
 736 -0 l 2
 747 0 758 1 768 3 c 1
 768 -64 l 2
 768 -86 773 -107 783 -125 c 1
 768 -127 752 -128 736 -128 c 2
 576 -128 l 1
 416 -128 l 2
 239 -128 96 15 96 192 c 2
 96 204 l 1
 82 190 l 2
 63 171 33 171 14 190 c 0
 -5 209 -5 239 14 258 c 2
 126 370 l 2
 145 389 175 389 194 370 c 2
 306 258 l 2
 325 239 325 209 306 190 c 0
 287 171 257 171 238 190 c 2
 224 204 l 1
 224 192 l 2
 224 86 310 0 416 0 c 2
 512 0 l 1
 512 416 l 1
 448 416 l 2
 413 416 384 445 384 480 c 0
 384 515 413 544 448 544 c 2
 470 544 l 1
 418 578 384 637 384 704 c 0
 384 810 470 896 576 896 c 0
 682 896 768 810 768 704 c 0
 768 637 734 578 682 544 c 1
1056 416 m 0
 1021 416 992 387 992 352 c 2
 992 256 l 1
 1120 256 l 1
 1120 352 l 2
 1120 387 1091 416 1056 416 c 0
896 352 m 2
 896 440 968 512 1056 512 c 0
 1144 512 1216 440 1216 352 c 2
 1216 256 l 1
 1251 256 1280 227 1280 192 c 2
 1280 -64 l 2
 1280 -99 1251 -128 1216 -128 c 2
 896 -128 l 2
 861 -128 832 -99 832 -64 c 2
 832 192 l 2
 832 227 861 256 896 256 c 1
 896 352 l 2
EndSplineSet
Ligature2: "'liga' Standard Ligatures in Latin lookup 0 subtable" a n c h o r hyphen l o c k
EndChar

StartChar: arrow-down-up-across-line
Encoding: 58543 58543 169
Width: 1152
Flags: HW
LayerCount: 2
Fore
SplineSet
275 -109 m 1
 275 -109 l 1
 83 83 l 2
 58 108 58 148 83 173 c 0
 108 198 148 198 173 173 c 2
 256 91 l 1
 256 320 l 1
 64 320 l 2
 29 320 0 349 0 384 c 0
 0 419 29 448 64 448 c 2
 256 448 l 1
 384 448 l 1
 768 448 l 1
 768 677 l 1
 685 595 l 2
 660 570 620 570 595 595 c 0
 570 620 570 660 595 685 c 2
 787 877 l 2
 812 902 852 902 877 877 c 2
 1069 685 l 2
 1094 660 1094 620 1069 595 c 0
 1044 570 1004 570 979 595 c 2
 896 677 l 1
 896 448 l 1
 1088 448 l 2
 1123 448 1152 419 1152 384 c 0
 1152 349 1123 320 1088 320 c 2
 384 320 l 1
 384 91 l 1
 467 173 l 2
 492 198 532 198 557 173 c 0
 582 148 582 108 557 83 c 2
 365 -109 l 2
 340 -134 300 -134 275 -109 c 1
256 512 m 1
 256 768 l 2
 256 803 285 832 320 832 c 0
 355 832 384 803 384 768 c 2
 384 512 l 1
 256 512 l 1
896 256 m 1
 896 -0 l 2
 896 -35 867 -64 832 -64 c 0
 797 -64 768 -35 768 -0 c 2
 768 256 l 1
 896 256 l 1
EndSplineSet
Ligature2: "'liga' Standard Ligatures in Latin lookup 0 subtable" a r r o w hyphen d o w n hyphen u p hyphen a c r o s s hyphen l i n e
EndChar

StartChar: arrow-down-up-lock
Encoding: 58544 58544 170
Width: 1280
Flags: HW
LayerCount: 2
Fore
SplineSet
301 -109 m 1
 301 -109 l 1
 276 -134 236 -134 211 -109 c 2
 19 83 l 2
 -6 108 -6 148 19 173 c 0
 44 198 84 198 109 173 c 2
 192 91 l 1
 192 320 l 1
 64 320 l 2
 29 320 0 349 0 384 c 0
 0 419 29 448 64 448 c 2
 192 448 l 1
 320 448 l 1
 576 448 l 1
 576 677 l 1
 494 595 l 2
 469 570 428 570 403 595 c 0
 378 620 378 660 403 685 c 2
 595 877 l 2
 607 889 623 896 640 896 c 0
 657 896 673 889 685 877 c 2
 877 685 l 2
 902 660 902 620 877 595 c 0
 852 570 812 570 787 595 c 2
 704 677 l 1
 704 448 l 1
 854 448 l 1
 840 419 832 386 832 352 c 2
 832 320 l 1
 320 320 l 1
 320 91 l 1
 403 173 l 2
 428 198 468 198 493 173 c 0
 518 148 518 108 493 83 c 2
 301 -109 l 1
320 512 m 1
 192 512 l 1
 192 768 l 2
 192 803 221 832 256 832 c 0
 291 832 320 803 320 768 c 2
 320 512 l 1
576 256 m 1
 704 256 l 1
 704 -0 l 2
 704 -35 675 -64 640 -64 c 0
 605 -64 576 -35 576 -0 c 2
 576 256 l 1
1056 416 m 0
 1021 416 992 387 992 352 c 2
 992 256 l 1
 1120 256 l 1
 1120 352 l 2
 1120 387 1091 416 1056 416 c 0
896 352 m 2
 896 440 968 512 1056 512 c 0
 1144 512 1216 440 1216 352 c 2
 1216 256 l 1
 1251 256 1280 227 1280 192 c 2
 1280 -64 l 2
 1280 -99 1251 -128 1216 -128 c 2
 896 -128 l 2
 861 -128 832 -99 832 -64 c 2
 832 192 l 2
 832 227 861 256 896 256 c 1
 896 352 l 2
EndSplineSet
Ligature2: "'liga' Standard Ligatures in Latin lookup 0 subtable" a r r o w hyphen d o w n hyphen u p hyphen l o c k
EndChar

StartChar: arrow-right-to-city
Encoding: 58547 58547 171
Width: 1280
Flags: HW
LayerCount: 2
Fore
SplineSet
576 800 m 2
 576 -32 l 2
 576 -85 619 -128 672 -128 c 2
 864 -128 l 1
 1184 -128 l 2
 1237 -128 1280 -85 1280 -32 c 2
 1280 416 l 2
 1280 469 1237 512 1184 512 c 2
 1136 512 l 1
 1136 656 l 2
 1136 683 1115 704 1088 704 c 0
 1061 704 1040 683 1040 656 c 2
 1040 512 l 1
 960 512 l 1
 960 800 l 2
 960 853 917 896 864 896 c 2
 672 896 l 2
 619 896 576 853 576 800 c 2
704 736 m 2
 704 754 718 768 736 768 c 2
 800 768 l 2
 818 768 832 754 832 736 c 2
 832 672 l 2
 832 654 818 640 800 640 c 2
 736 640 l 2
 718 640 704 654 704 672 c 2
 704 736 l 2
736 576 m 2
 800 576 l 2
 818 576 832 562 832 544 c 2
 832 480 l 2
 832 462 818 448 800 448 c 2
 736 448 l 2
 718 448 704 462 704 480 c 2
 704 544 l 2
 704 562 718 576 736 576 c 2
704 352 m 2
 704 370 718 384 736 384 c 2
 800 384 l 2
 818 384 832 370 832 352 c 2
 832 288 l 2
 832 270 818 256 800 256 c 2
 736 256 l 2
 718 256 704 270 704 288 c 2
 704 352 l 2
1056 384 m 2
 1120 384 l 2
 1138 384 1152 370 1152 352 c 2
 1152 288 l 2
 1152 270 1138 256 1120 256 c 2
 1056 256 l 2
 1038 256 1024 270 1024 288 c 2
 1024 352 l 2
 1024 370 1038 384 1056 384 c 2
1024 160 m 2
 1024 178 1038 192 1056 192 c 2
 1120 192 l 2
 1138 192 1152 178 1152 160 c 2
 1152 96 l 2
 1152 78 1138 64 1120 64 c 2
 1056 64 l 2
 1038 64 1024 78 1024 96 c 2
 1024 160 l 2
333 589 m 1
 333 589 l 1
 308 614 268 614 243 589 c 0
 218 564 218 524 243 499 c 2
 293 448 l 1
 64 448 l 2
 29 448 0 419 0 384 c 0
 0 349 29 320 64 320 c 2
 293 320 l 1
 243 269 l 2
 218 244 218 204 243 179 c 0
 268 154 308 154 333 179 c 2
 493 339 l 2
 518 364 518 404 493 429 c 2
 333 589 l 1
333 589 m 1024
EndSplineSet
Ligature2: "'liga' Standard Ligatures in Latin lookup 0 subtable" a r r o w hyphen r i g h t hyphen t o hyphen c i t y
EndChar

StartChar: arrow-up-from-ground-water
Encoding: 58549 58549 172
Width: 1152
Flags: HW
LayerCount: 2
Fore
SplineSet
576 192 m 0
 541 192 512 221 512 256 c 2
 512 677 l 1
 461 627 l 2
 436 602 396 602 371 627 c 0
 346 652 346 692 371 717 c 2
 531 877 l 2
 556 902 596 902 621 877 c 2
 781 717 l 2
 806 692 806 652 781 627 c 0
 756 602 716 602 691 627 c 2
 640 677 l 1
 640 256 l 2
 640 221 611 192 576 192 c 0
539 52 m 0
 561 68 591 68 613 52 c 0
 658 21 713 0 768 -0 c 0
 822 0 879 22 923 52 c 1
 923 52 l 1
 947 69 979 68 1001 49 c 0
 1030 25 1066 6 1102 -2 c 0
 1136 -10 1158 -45 1150 -79 c 0
 1142 -113 1107 -134 1073 -126 c 0
 1024 -115 984 -93 957 -76 c 1
 899 -107 834 -128 768 -128 c 0
 704 -128 647 -108 607 -90 c 0
 595 -85 585 -80 576 -75 c 1
 567 -80 557 -85 545 -90 c 0
 505 -108 448 -128 384 -128 c 0
 318 -128 253 -107 195 -76 c 1
 168 -93 128 -115 79 -126 c 0
 45 -134 10 -112 2 -78 c 0
 -6 -44 16 -10 50 -2 c 0
 86 6 122 25 151 49 c 0
 173 68 205 69 229 52 c 1
 229 52 l 1
 273 21 330 0 384 0 c 0
 439 0 494 21 539 52 c 0
384 512 m 1
 384 63 l 1
 346 63 302 79 266 104 c 0
 218 137 154 134 110 97 c 0
 89 79 61 66 35 60 c 0
 22 57 11 52 0 46 c 1
 0 416 l 2
 0 469 43 512 96 512 c 2
 384 512 l 1
1152 416 m 1
 1152 416 l 1
 1152 46 l 1
 1141 52 1130 57 1117 60 c 0
 1091 66 1064 79 1043 97 c 0
 998 135 934 137 886 104 c 0
 850 79 806 63 768 63 c 1
 768 63 l 1
 768 512 l 1
 1056 512 l 2
 1109 512 1152 469 1152 416 c 1
1152 416 m 1024
EndSplineSet
Ligature2: "'liga' Standard Ligatures in Latin lookup 0 subtable" a r r o w hyphen u p hyphen f r o m hyphen g r o u n d hyphen w a t e r
EndChar

StartChar: arrow-up-from-water-pump
Encoding: 58550 58550 173
Width: 1152
Flags: HW
LayerCount: 2
Fore
SplineSet
224 896 m 2
 480 896 l 2
 533 896 576 853 576 800 c 2
 576 384 l 1
 832 384 l 1
 832 677 l 1
 781 627 l 2
 756 602 716 602 691 627 c 0
 666 652 666 692 691 717 c 2
 851 877 l 2
 876 902 916 902 941 877 c 2
 1101 717 l 2
 1126 692 1126 652 1101 627 c 0
 1076 602 1036 602 1011 627 c 2
 960 677 l 1
 960 384 l 1
 1056 384 l 2
 1109 384 1152 341 1152 288 c 2
 1152 96 l 2
 1152 80 1148 65 1141 52 c 1
 1133 55 1125 58 1117 60 c 0
 1091 66 1064 79 1043 97 c 0
 998 134 935 137 887 104 c 0
 851 79 806 63 768 63 c 0
 729 63 687 79 650 104 c 0
 606 135 546 135 502 104 c 0
 468 80 426 63 384 63 c 0
 346 63 302 79 266 104 c 0
 218 137 153 134 109 97 c 0
 88 79 61 66 35 60 c 0
 27 58 19 55 11 52 c 1
 4 65 0 80 0 96 c 2
 0 288 l 2
 0 341 43 384 96 384 c 2
 128 384 l 1
 128 800 l 2
 128 853 171 896 224 896 c 2
613 52 m 0
 658 21 713 0 768 -0 c 0
 822 0 879 22 923 52 c 1
 923 52 l 1
 947 69 979 68 1001 49 c 0
 1030 25 1066 6 1102 -2 c 0
 1136 -10 1158 -45 1150 -79 c 0
 1142 -113 1107 -134 1073 -126 c 0
 1024 -115 984 -93 957 -76 c 1
 899 -107 834 -128 768 -128 c 0
 704 -128 647 -108 607 -90 c 0
 595 -85 585 -80 576 -75 c 1
 567 -80 557 -85 545 -90 c 0
 505 -108 448 -128 384 -128 c 0
 318 -128 253 -107 195 -76 c 1
 168 -93 128 -115 79 -126 c 0
 45 -134 10 -112 2 -78 c 0
 -6 -44 16 -10 50 -2 c 0
 86 6 122 25 151 49 c 0
 173 68 205 69 229 52 c 1
 229 52 l 1
 273 21 330 0 384 0 c 0
 439 0 494 21 539 52 c 0
 561 68 591 68 613 52 c 0
EndSplineSet
Ligature2: "'liga' Standard Ligatures in Latin lookup 0 subtable" a r r o w hyphen u p hyphen f r o m hyphen w a t e r hyphen p u m p
EndChar

StartChar: arrow-up-right-dots
Encoding: 58551 58551 174
Width: 1152
Flags: HW
LayerCount: 2
Fore
SplineSet
320 896 m 2
 576 896 l 2
 611 896 640 867 640 832 c 2
 640 576 l 2
 640 541 611 512 576 512 c 0
 541 512 512 541 512 576 c 2
 512 677 l 1
 109 275 l 2
 84 250 44 250 19 275 c 0
 -6 300 -6 340 19 365 c 2
 421 768 l 1
 320 768 l 2
 285 768 256 797 256 832 c 0
 256 867 285 896 320 896 c 2
1152 736 m 0
 1152 702 1134 670 1104 653 c 0
 1074 636 1038 636 1008 653 c 0
 978 670 960 702 960 736 c 0
 960 770 978 802 1008 819 c 0
 1038 836 1074 836 1104 819 c 0
 1134 802 1152 770 1152 736 c 0
896 480 m 0
 896 446 878 414 848 397 c 0
 818 380 782 380 752 397 c 0
 722 414 704 446 704 480 c 0
 704 514 722 546 752 563 c 0
 782 580 818 580 848 563 c 0
 878 546 896 514 896 480 c 0
800 128 m 0
 766 128 734 146 717 176 c 0
 700 206 700 242 717 272 c 0
 734 302 766 320 800 320 c 0
 834 320 866 302 883 272 c 0
 900 242 900 206 883 176 c 0
 866 146 834 128 800 128 c 0
896 -32 m 0
 896 -66 878 -98 848 -115 c 0
 818 -132 782 -132 752 -115 c 0
 722 -98 704 -66 704 -32 c 0
 704 2 722 34 752 51 c 0
 782 68 818 68 848 51 c 0
 878 34 896 2 896 -32 c 0
1152 -32 m 0
 1152 -66 1134 -98 1104 -115 c 0
 1074 -132 1038 -132 1008 -115 c 0
 978 -98 960 -66 960 -32 c 0
 960 2 978 34 1008 51 c 0
 1038 68 1074 68 1104 51 c 0
 1134 34 1152 2 1152 -32 c 0
544 128 m 0
 510 128 478 146 461 176 c 0
 444 206 444 242 461 272 c 0
 478 302 510 320 544 320 c 0
 578 320 610 302 627 272 c 0
 644 242 644 206 627 176 c 0
 610 146 578 128 544 128 c 0
640 -32 m 0
 640 -66 622 -98 592 -115 c 0
 562 -132 526 -132 496 -115 c 0
 466 -98 448 -66 448 -32 c 0
 448 2 466 34 496 51 c 0
 526 68 562 68 592 51 c 0
 622 34 640 2 640 -32 c 0
288 -128 m 0
 254 -128 222 -110 205 -80 c 0
 188 -50 188 -14 205 16 c 0
 222 46 254 64 288 64 c 0
 322 64 354 46 371 16 c 0
 388 -14 388 -50 371 -80 c 0
 354 -110 322 -128 288 -128 c 0
1152 224 m 0
 1152 190 1134 158 1104 141 c 0
 1074 124 1038 124 1008 141 c 0
 978 158 960 190 960 224 c 0
 960 258 978 290 1008 307 c 0
 1038 324 1074 324 1104 307 c 0
 1134 290 1152 258 1152 224 c 0
1056 384 m 0
 1022 384 990 402 973 432 c 0
 956 462 956 498 973 528 c 0
 990 558 1022 576 1056 576 c 0
 1090 576 1122 558 1139 528 c 0
 1156 498 1156 462 1139 432 c 0
 1122 402 1090 384 1056 384 c 0
EndSplineSet
Ligature2: "'liga' Standard Ligatures in Latin lookup 0 subtable" a r r o w hyphen u p hyphen r i g h t hyphen d o t s
EndChar

StartChar: arrows-down-to-line
Encoding: 58552 58552 175
Width: 1152
Flags: HW
LayerCount: 2
Fore
SplineSet
1088 64 m 2
 1123 64 1152 35 1152 0 c 0
 1152 -35 1123 -64 1088 -64 c 2
 64 -64 l 2
 29 -64 0 -35 0 0 c 0
 0 35 29 64 64 64 c 2
 1088 64 l 2
1133 339 m 2
 941 147 l 2
 916 122 876 122 851 147 c 2
 659 339 l 2
 634 364 634 404 659 429 c 0
 684 454 724 454 749 429 c 2
 832 347 l 1
 832 768 l 2
 832 803 861 832 896 832 c 0
 931 832 960 803 960 768 c 2
 960 347 l 1
 1043 429 l 2
 1068 454 1108 454 1133 429 c 0
 1158 404 1158 364 1133 339 c 2
493 429 m 1
 493 429 l 1
 518 404 518 364 493 339 c 2
 301 147 l 2
 276 122 236 122 211 147 c 2
 19 339 l 2
 -6 364 -6 404 19 429 c 0
 44 454 84 454 109 429 c 2
 192 347 l 1
 192 768 l 2
 192 803 221 832 256 832 c 0
 291 832 320 803 320 768 c 2
 320 347 l 1
 403 429 l 2
 428 454 468 454 493 429 c 1
493 429 m 1024
EndSplineSet
Ligature2: "'liga' Standard Ligatures in Latin lookup 0 subtable" a r r o w s hyphen d o w n hyphen t o hyphen l i n e
EndChar

StartChar: arrows-down-to-people
Encoding: 58553 58553 176
Width: 1280
Flags: HW
LayerCount: 2
Fore
SplineSet
288 896 m 0
 315 896 336 875 336 848 c 2
 336 612 l 1
 382 658 l 2
 401 677 431 677 450 658 c 0
 469 639 469 609 450 590 c 2
 322 462 l 2
 303 443 273 443 254 462 c 2
 126 590 l 2
 107 609 107 639 126 658 c 0
 145 677 175 677 194 658 c 2
 240 612 l 1
 240 848 l 2
 240 875 261 896 288 896 c 0
720 496 m 0
 720 467 705 441 680 427 c 0
 655 413 625 413 600 427 c 0
 575 441 560 467 560 496 c 0
 560 525 575 551 600 565 c 0
 625 579 655 579 680 565 c 0
 705 551 720 525 720 496 c 0
368 304 m 0
 368 275 353 249 328 235 c 0
 303 221 273 221 248 235 c 0
 223 249 208 275 208 304 c 0
 208 333 223 359 248 373 c 0
 273 387 303 387 328 373 c 0
 353 359 368 333 368 304 c 0
992 224 m 0
 963 224 937 239 923 264 c 0
 909 289 909 319 923 344 c 0
 937 369 963 384 992 384 c 0
 1021 384 1047 369 1061 344 c 0
 1075 319 1075 289 1061 264 c 0
 1047 239 1021 224 992 224 c 0
400 13 m 1
 400 -64 l 2
 400 -99 371 -128 336 -128 c 2
 240 -128 l 2
 205 -128 176 -99 176 -64 c 2
 176 13 l 1
 122 -87 l 2
 109 -110 80 -119 57 -106 c 0
 34 -93 25 -64 38 -41 c 2
 114 99 l 2
 145 156 204 192 269 192 c 2
 308 192 l 2
 341 192 371 183 398 167 c 1
 466 291 l 2
 497 348 556 384 621 384 c 2
 660 384 l 2
 725 384 784 348 815 291 c 2
 882 167 l 1
 909 183 940 192 973 192 c 2
 1012 192 l 2
 1077 192 1136 156 1167 99 c 2
 1242 -41 l 2
 1254 -64 1246 -94 1223 -106 c 0
 1200 -118 1171 -110 1158 -87 c 2
 1104 13 l 1
 1104 -64 l 2
 1104 -99 1075 -128 1040 -128 c 2
 944 -128 l 2
 909 -128 880 -99 880 -64 c 2
 880 13 l 1
 826 -87 l 2
 813 -110 784 -119 761 -106 c 0
 738 -93 729 -64 742 -41 c 2
 814 94 l 2
 811 97 808 101 806 105 c 2
 752 205 l 1
 752 96 l 2
 752 61 723 32 688 32 c 2
 592 32 l 2
 557 32 528 61 528 96 c 2
 528 205 l 1
 474 105 l 2
 472 101 469 97 466 94 c 2
 538 -41 l 2
 550 -64 542 -94 519 -106 c 0
 496 -118 467 -110 454 -87 c 2
 400 13 l 1
830 590 m 1
 830 590 l 1
 811 609 811 639 830 658 c 0
 849 677 879 677 898 658 c 2
 944 612 l 1
 944 848 l 2
 944 875 965 896 992 896 c 0
 1019 896 1040 875 1040 848 c 2
 1040 612 l 1
 1086 658 l 2
 1105 677 1135 677 1154 658 c 0
 1173 639 1173 609 1154 590 c 2
 1026 462 l 2
 1007 443 977 443 958 462 c 2
 830 590 l 1
830 590 m 1024
EndSplineSet
Ligature2: "'liga' Standard Ligatures in Latin lookup 0 subtable" a r r o w s hyphen d o w n hyphen t o hyphen p e o p l e
EndChar

StartChar: arrows-left-right-to-line
Encoding: 58554 58554 177
Width: 1280
Flags: HW
LayerCount: 2
Fore
SplineSet
64 768 m 0
 29 768 0 739 0 704 c 2
 0 64 l 2
 0 29 29 0 64 0 c 0
 99 0 128 29 128 64 c 2
 128 704 l 2
 128 739 99 768 64 768 c 0
493 621 m 0
 468 646 428 646 403 621 c 2
 211 429 l 2
 186 404 186 364 211 339 c 2
 403 147 l 2
 428 122 468 122 493 147 c 0
 518 172 518 212 493 237 c 2
 410 320 l 1
 869 320 l 1
 787 237 l 2
 762 212 762 172 787 147 c 0
 812 122 852 122 877 147 c 2
 1069 339 l 2
 1094 364 1094 404 1069 429 c 2
 877 621 l 2
 852 646 812 646 787 621 c 0
 762 596 762 556 787 531 c 2
 870 448 l 1
 411 448 l 1
 493 531 l 2
 518 556 518 596 493 621 c 0
1280 704 m 2
 1280 739 1251 768 1216 768 c 0
 1181 768 1152 739 1152 704 c 2
 1152 64 l 2
 1152 29 1181 0 1216 0 c 0
 1251 0 1280 29 1280 64 c 2
 1280 704 l 2
EndSplineSet
Ligature2: "'liga' Standard Ligatures in Latin lookup 0 subtable" a r r o w s hyphen l e f t hyphen r i g h t hyphen t o hyphen l i n e
EndChar

StartChar: arrows-spin
Encoding: 58555 58555 178
Width: 1024
Flags: HW
LayerCount: 2
Fore
SplineSet
512 704 m 0
 490 704 469 702 448 698 c 1
 448 827 l 1
 469 830 490 832 512 832 c 0
 624 832 726 791 805 723 c 1
 873 791 l 2
 882 800 896 803 908 798 c 0
 920 793 928 781 928 768 c 2
 928 544 l 2
 928 526 914 512 896 512 c 2
 672 512 l 2
 659 512 647 520 642 532 c 0
 637 544 640 558 649 567 c 2
 715 632 l 1
 660 677 589 704 512 704 c 0
264 587 m 1
 219 532 192 461 192 384 c 0
 192 362 194 341 198 320 c 1
 69 320 l 1
 66 341 64 362 64 384 c 0
 64 496 105 598 173 677 c 1
 105 745 l 2
 96 754 93 768 98 780 c 0
 103 792 115 800 128 800 c 2
 352 800 l 2
 370 800 384 786 384 768 c 2
 384 544 l 2
 384 531 376 519 364 514 c 0
 352 509 338 512 329 521 c 2
 264 587 l 1
955 448 m 1
 958 427 960 406 960 384 c 0
 960 272 919 170 851 91 c 1
 919 23 l 2
 928 14 931 0 926 -12 c 0
 921 -24 909 -32 896 -32 c 2
 672 -32 l 2
 654 -32 640 -18 640 -0 c 2
 640 224 l 2
 640 237 648 249 660 254 c 0
 672 259 686 256 695 247 c 2
 760 181 l 1
 805 236 832 307 832 384 c 0
 832 406 830 427 826 448 c 1
 955 448 l 1
512 64 m 0
 534 64 555 66 576 70 c 1
 576 -59 l 1
 555 -62 534 -64 512 -64 c 0
 400 -64 298 -23 219 45 c 1
 151 -23 l 2
 142 -32 128 -35 116 -30 c 0
 104 -25 96 -13 96 -0 c 2
 96 224 l 2
 96 242 110 256 128 256 c 2
 352 256 l 2
 365 256 377 248 382 236 c 0
 387 224 384 210 375 201 c 2
 309 136 l 1
 364 91 435 64 512 64 c 0
512 64 m 1024
EndSplineSet
Ligature2: "'liga' Standard Ligatures in Latin lookup 0 subtable" a r r o w s hyphen s p i n
EndChar

StartChar: arrows-split-up-and-left
Encoding: 58556 58556 179
Width: 1024
Flags: HW
LayerCount: 2
Fore
SplineSet
493 595 m 2
 576 678 l 1
 576 350 l 1
 538 372 495 384 448 384 c 2
 219 384 l 1
 301 467 l 2
 326 492 326 532 301 557 c 0
 276 582 236 582 211 557 c 2
 19 365 l 2
 -6 340 -6 300 19 275 c 2
 211 83 l 2
 236 58 276 58 301 83 c 0
 326 108 326 148 301 173 c 2
 219 256 l 1
 448 256 l 2
 519 256 576 199 576 128 c 0
 576 -13 691 -128 832 -128 c 2
 960 -128 l 2
 995 -128 1024 -99 1024 -64 c 0
 1024 -29 995 0 960 0 c 2
 832 0 l 2
 761 0 704 57 704 128 c 2
 704 677 l 1
 787 595 l 2
 812 570 852 570 877 595 c 0
 902 620 902 660 877 685 c 2
 685 877 l 2
 660 902 620 902 595 877 c 2
 403 685 l 2
 378 660 378 620 403 595 c 0
 428 570 468 570 493 595 c 2
EndSplineSet
Ligature2: "'liga' Standard Ligatures in Latin lookup 0 subtable" a r r o w s hyphen s p l i t hyphen u p hyphen a n d hyphen l e f t
EndChar

StartChar: arrows-to-circle
Encoding: 58557 58557 180
Width: 1280
Flags: HW
LayerCount: 2
Fore
SplineSet
19 877 m 0
 -6 852 -6 812 19 787 c 2
 230 576 l 1
 192 576 l 2
 157 576 128 547 128 512 c 0
 128 477 157 448 192 448 c 2
 384 448 l 2
 393 448 401 450 409 453 c 0
 416 456 423 461 429 467 c 2
 429 467 l 2
 435 473 440 481 443 488 c 0
 446 495 448 503 448 512 c 2
 448 704 l 2
 448 739 419 768 384 768 c 0
 349 768 320 739 320 704 c 2
 320 667 l 1
 109 877 l 2
 84 902 44 902 19 877 c 0
512 384 m 0
 512 338 536 296 576 273 c 0
 616 250 664 250 704 273 c 0
 744 296 768 338 768 384 c 0
 768 430 744 472 704 495 c 0
 664 518 616 518 576 495 c 0
 536 472 512 430 512 384 c 0
229 192 m 1
 19 -19 l 2
 -6 -44 -6 -84 19 -109 c 0
 44 -134 84 -134 109 -109 c 2
 320 102 l 1
 320 64 l 2
 320 29 349 0 384 0 c 0
 419 0 448 29 448 64 c 2
 448 256 l 2
 448 265 446 273 443 281 c 0
 440 288 435 295 429 301 c 2
 429 301 l 2
 417 312 402 320 384 320 c 2
 384 320 l 1
 384 320 l 1
 192 320 l 2
 157 320 128 291 128 256 c 0
 128 221 157 192 192 192 c 2
 229 192 l 1
832 704 m 2
 832 512 l 1
 832 512 l 1
 832 512 l 2
 832 503 834 494 837 487 c 0
 840 480 845 473 851 467 c 2
 851 467 l 2
 863 456 878 448 896 448 c 2
 1088 448 l 2
 1123 448 1152 477 1152 512 c 0
 1152 547 1123 576 1088 576 c 2
 1051 576 l 1
 1261 787 l 2
 1286 812 1286 852 1261 877 c 0
 1236 902 1196 902 1171 877 c 2
 960 667 l 1
 960 704 l 2
 960 739 931 768 896 768 c 0
 861 768 832 739 832 704 c 2
1051 192 m 1
 1050 192 l 1
 1088 192 l 2
 1123 192 1152 221 1152 256 c 0
 1152 291 1123 320 1088 320 c 2
 896 320 l 1
 896 320 l 1
 896 320 l 2
 878 320 863 313 851 301 c 0
 845 295 840 289 837 281 c 0
 834 273 832 265 832 256 c 2
 832 256 l 1
 832 256 l 1
 832 64 l 2
 832 29 861 0 896 0 c 0
 931 0 960 29 960 64 c 2
 960 101 l 1
 1171 -109 l 2
 1196 -134 1236 -134 1261 -109 c 0
 1286 -84 1286 -44 1261 -19 c 2
 1051 192 l 1
1051 192 m 1024
EndSplineSet
Ligature2: "'liga' Standard Ligatures in Latin lookup 0 subtable" a r r o w s hyphen t o hyphen c i r c l e
EndChar

StartChar: arrows-to-dot
Encoding: 58558 58558 181
Width: 1024
Flags: HW
LayerCount: 2
Fore
SplineSet
512 896 m 1
 512 896 l 1
 477 896 448 867 448 832 c 2
 448 768 l 1
 384 768 l 2
 358 768 335 752 325 728 c 0
 315 704 321 677 339 659 c 2
 467 531 l 2
 492 506 532 506 557 531 c 2
 685 659 l 2
 703 677 709 704 699 728 c 0
 689 752 666 768 640 768 c 2
 576 768 l 1
 576 832 l 2
 576 867 547 896 512 896 c 1
339 109 m 1
 339 109 l 1
 321 91 315 63 325 39 c 0
 335 15 358 0 384 -0 c 2
 448 -0 l 1
 448 -64 l 2
 448 -99 477 -128 512 -128 c 0
 547 -128 576 -99 576 -64 c 2
 576 -0 l 1
 640 -0 l 2
 666 0 689 15 699 39 c 0
 709 63 703 91 685 109 c 2
 557 237 l 2
 532 262 492 262 467 237 c 2
 339 109 l 1
64 448 m 1
 64 448 l 1
 29 448 0 419 0 384 c 0
 0 349 29 320 64 320 c 2
 128 320 l 1
 128 256 l 2
 128 230 144 207 168 197 c 0
 192 187 219 193 237 211 c 2
 365 339 l 2
 390 364 390 404 365 429 c 2
 237 557 l 2
 219 575 192 581 168 571 c 0
 144 561 128 538 128 512 c 2
 128 448 l 1
 64 448 l 1
659 339 m 1
 659 339 l 1
 787 211 l 2
 805 193 833 187 857 197 c 0
 881 207 896 230 896 256 c 2
 896 320 l 1
 960 320 l 2
 995 320 1024 349 1024 384 c 0
 1024 419 995 448 960 448 c 2
 896 448 l 1
 896 512 l 2
 896 538 881 561 857 571 c 0
 833 581 805 575 787 557 c 2
 659 429 l 2
 634 404 634 364 659 339 c 1
512 448 m 0
 477 448 448 419 448 384 c 0
 448 349 477 320 512 320 c 0
 547 320 576 349 576 384 c 0
 576 419 547 448 512 448 c 0
EndSplineSet
Ligature2: "'liga' Standard Ligatures in Latin lookup 0 subtable" a r r o w s hyphen t o hyphen d o t
EndChar

StartChar: arrows-to-eye
Encoding: 58559 58559 182
Width: 1280
Flags: HW
LayerCount: 2
Fore
SplineSet
30 866 m 0
 11 847 11 817 30 798 c 2
 156 672 l 1
 80 672 l 2
 53 672 32 651 32 624 c 0
 32 597 53 576 80 576 c 2
 272 576 l 2
 299 576 320 597 320 624 c 2
 320 816 l 2
 320 843 299 864 272 864 c 0
 245 864 224 843 224 816 c 2
 224 740 l 1
 98 866 l 2
 79 885 49 885 30 866 c 0
267 408 m 0
 259 393 259 375 267 360 c 0
 317 259 445 96 640 96 c 0
 835 96 963 259 1013 360 c 0
 1021 375 1021 393 1013 408 c 0
 963 509 835 672 640 672 c 0
 445 672 317 509 267 408 c 0
640 256 m 0
 594 256 552 280 529 320 c 0
 506 360 506 408 529 448 c 0
 552 488 594 512 640 512 c 0
 686 512 728 488 751 448 c 0
 774 408 774 360 751 320 c 0
 728 280 686 256 640 256 c 0
1182 866 m 2
 1056 740 l 1
 1056 816 l 2
 1056 843 1035 864 1008 864 c 0
 981 864 960 843 960 816 c 2
 960 624 l 2
 960 597 981 576 1008 576 c 2
 1200 576 l 2
 1227 576 1248 597 1248 624 c 0
 1248 651 1227 672 1200 672 c 2
 1124 672 l 1
 1250 798 l 2
 1269 817 1269 847 1250 866 c 0
 1231 885 1201 885 1182 866 c 2
30 -98 m 1
 30 -98 l 1
 49 -117 79 -117 98 -98 c 2
 224 28 l 1
 224 -48 l 2
 224 -75 245 -96 272 -96 c 0
 299 -96 320 -75 320 -48 c 2
 320 144 l 2
 320 171 299 192 272 192 c 2
 80 192 l 2
 53 192 32 171 32 144 c 0
 32 117 53 96 80 96 c 2
 156 96 l 1
 30 -30 l 2
 11 -49 11 -79 30 -98 c 1
1182 -98 m 2
 1201 -117 1231 -117 1250 -98 c 0
 1269 -79 1269 -49 1250 -30 c 2
 1124 96 l 1
 1200 96 l 2
 1227 96 1248 117 1248 144 c 0
 1248 171 1227 192 1200 192 c 2
 1008 192 l 2
 981 192 960 171 960 144 c 2
 960 -48 l 2
 960 -75 981 -96 1008 -96 c 0
 1035 -96 1056 -75 1056 -48 c 2
 1056 28 l 1
 1182 -98 l 2
EndSplineSet
Ligature2: "'liga' Standard Ligatures in Latin lookup 0 subtable" a r r o w s hyphen t o hyphen e y e
EndChar

StartChar: arrows-turn-right
Encoding: 58560 58560 183
Width: 896
Flags: HW
LayerCount: 2
Fore
SplineSet
595 877 m 1
 595 877 l 1
 570 852 570 812 595 787 c 2
 677 704 l 1
 256 704 l 2
 115 704 0 589 0 448 c 2
 0 384 l 2
 0 349 29 320 64 320 c 0
 99 320 128 349 128 384 c 2
 128 448 l 2
 128 519 185 576 256 576 c 2
 677 576 l 1
 595 493 l 2
 570 468 570 428 595 403 c 0
 620 378 660 378 685 403 c 2
 877 595 l 2
 902 620 902 660 877 685 c 2
 685 877 l 2
 660 902 620 902 595 877 c 1
403 365 m 1
 403 365 l 1
 378 340 378 300 403 275 c 2
 485 192 l 1
 192 192 l 2
 86 192 0 106 0 0 c 2
 0 -64 l 2
 0 -99 29 -128 64 -128 c 0
 99 -128 128 -99 128 -64 c 2
 128 0 l 2
 128 35 157 64 192 64 c 2
 485 64 l 1
 403 -19 l 2
 378 -44 378 -84 403 -109 c 0
 428 -134 468 -134 493 -109 c 2
 685 83 l 2
 710 108 710 148 685 173 c 2
 493 365 l 2
 468 390 428 390 403 365 c 1
403 365 m 1024
EndSplineSet
Ligature2: "'liga' Standard Ligatures in Latin lookup 0 subtable" a r r o w s hyphen t u r n hyphen r i g h t
EndChar

StartChar: arrows-turn-to-dots
Encoding: 58561 58561 184
Width: 1024
Flags: HW
LayerCount: 2
Fore
SplineSet
499 845 m 2
 339 685 l 2
 314 660 314 620 339 595 c 2
 499 435 l 2
 524 410 564 410 589 435 c 0
 614 460 614 500 589 525 c 2
 539 576 l 1
 832 576 l 2
 867 576 896 547 896 512 c 2
 896 448 l 2
 896 413 925 384 960 384 c 0
 995 384 1024 413 1024 448 c 2
 1024 512 l 2
 1024 618 938 704 832 704 c 2
 539 704 l 1
 589 755 l 2
 614 780 614 820 589 845 c 0
 564 870 524 870 499 845 c 2
525 333 m 1
 525 333 l 2
 500 358 460 358 435 333 c 0
 410 308 410 268 435 243 c 2
 485 192 l 1
 192 192 l 2
 86 192 0 106 0 0 c 2
 0 -64 l 2
 0 -99 29 -128 64 -128 c 0
 99 -128 128 -99 128 -64 c 2
 128 0 l 2
 128 35 157 64 192 64 c 2
 485 64 l 1
 435 13 l 2
 410 -12 410 -52 435 -77 c 0
 460 -102 500 -102 525 -77 c 2
 685 83 l 2
 710 108 710 148 685 173 c 2
 525 333 l 1
768 128 m 0
 768 82 792 40 832 17 c 0
 872 -6 920 -6 960 17 c 0
 1000 40 1024 82 1024 128 c 0
 1024 174 1000 216 960 239 c 0
 920 262 872 262 832 239 c 0
 792 216 768 174 768 128 c 0
128 512 m 0
 174 512 216 536 239 576 c 0
 262 616 262 664 239 704 c 0
 216 744 174 768 128 768 c 0
 82 768 40 744 17 704 c 0
 -6 664 -6 616 17 576 c 0
 40 536 82 512 128 512 c 0
EndSplineSet
Ligature2: "'liga' Standard Ligatures in Latin lookup 0 subtable" a r r o w s hyphen t u r n hyphen t o hyphen d o t s
EndChar

StartChar: arrows-up-to-line
Encoding: 58562 58562 185
Width: 1152
Flags: HW
LayerCount: 2
Fore
SplineSet
64 704 m 2
 29 704 0 733 0 768 c 0
 0 803 29 832 64 832 c 2
 1088 832 l 2
 1123 832 1152 803 1152 768 c 0
 1152 733 1123 704 1088 704 c 2
 64 704 l 2
19 429 m 2
 211 621 l 2
 236 646 276 646 301 621 c 2
 493 429 l 2
 518 404 518 364 493 339 c 0
 468 314 428 314 403 339 c 2
 320 421 l 1
 320 0 l 2
 320 -35 291 -64 256 -64 c 0
 221 -64 192 -35 192 0 c 2
 192 421 l 1
 109 339 l 2
 84 314 44 314 19 339 c 0
 -6 364 -6 404 19 429 c 2
659 339 m 0
 634 364 634 404 659 429 c 2
 851 621 l 2
 876 646 916 646 941 621 c 2
 1133 429 l 2
 1158 404 1158 364 1133 339 c 0
 1108 314 1068 314 1043 339 c 2
 960 421 l 1
 960 0 l 2
 960 -35 931 -64 896 -64 c 0
 861 -64 832 -35 832 0 c 2
 832 421 l 1
 749 339 l 2
 724 314 684 314 659 339 c 0
659 339 m 1024
EndSplineSet
Ligature2: "'liga' Standard Ligatures in Latin lookup 0 subtable" a r r o w s hyphen u p hyphen t o hyphen l i n e
EndChar

StartChar: bore-hole
Encoding: 58563 58563 186
Width: 1024
Flags: HW
LayerCount: 2
Fore
SplineSet
512 896 m 0
 547 896 576 867 576 832 c 2
 576 303 l 1
 614 281 640 239 640 192 c 0
 640 121 583 64 512 64 c 0
 441 64 384 121 384 192 c 0
 384 239 410 281 448 303 c 1
 448 832 l 2
 448 867 477 896 512 896 c 0
96 640 m 2
 256 640 l 2
 291 640 320 611 320 576 c 2
 320 192 l 2
 320 86 406 0 512 0 c 0
 618 0 704 86 704 192 c 2
 704 576 l 2
 704 611 733 640 768 640 c 2
 928 640 l 2
 981 640 1024 597 1024 544 c 2
 1024 -32 l 2
 1024 -85 981 -128 928 -128 c 2
 96 -128 l 2
 43 -128 0 -85 0 -32 c 2
 0 544 l 2
 0 597 43 640 96 640 c 2
EndSplineSet
Ligature2: "'liga' Standard Ligatures in Latin lookup 0 subtable" b o r e hyphen h o l e
EndChar

